<?xml version="1.0" encoding="UTF-8" standalone="no"?>
<!DOCTYPE svg PUBLIC "-//W3C//DTD SVG 1.1//EN" "http://www.w3.org/Graphics/SVG/1.1/DTD/svg11.dtd">
<svg width="100%" height="100%" viewBox="0 0 101 555" version="1.1" xmlns="http://www.w3.org/2000/svg" xmlns:xlink="http://www.w3.org/1999/xlink" xml:space="preserve" xmlns:serif="http://www.serif.com/" style="fill-rule:evenodd;clip-rule:evenodd;stroke-linejoin:round;stroke-miterlimit:1.41421;">
    <g transform="matrix(1,0,0,1,-450,-452)">
        <g>
            <g transform="matrix(1.51282,0,0,1.51282,-1712.15,-392.376)">
                <path d="M1494.01,629.649C1495.79,611.844 1489.96,594.113 1477.96,580.842C1465.95,567.572 1448.9,560 1431,560C1431,560 1431,560 1431,560L1431,799L1477,799C1477,799 1486.92,700.201 1494.01,629.649Z" style="fill:url(#_Linear1);"/>
                <path d="M1492.53,660.219L1484.96,734.149L1478.34,799.134L1478.3,799.35L1478.22,799.556L1478.12,799.747L1477.98,799.918L1477.82,800.065L1477.82,800.065L1477.63,800.183L1477.43,800.27L1477.22,800.322L1477,800.34L1451.79,800.303L1431,800.282L1430.78,800.262L1430.56,800.204L1430.36,800.109L1430.18,799.981L1430.02,799.823L1430.02,799.823L1429.89,799.64L1429.8,799.438L1429.74,799.222L1429.72,799L1429.74,777.268L1429.76,737.937L1429.75,701.018L1429.72,662.123L1429.61,582.96L1429.56,560L1429.59,559.751L1429.65,559.509L1429.76,559.281L1429.9,559.076L1430.08,558.899L1430.28,558.755L1430.51,558.648L1430.75,558.583L1431,558.561L1431,558.561L1431,558.561L1431.21,558.561L1431.43,558.562L1431.64,558.563L1431.86,558.565L1432.07,558.568L1432.29,558.571L1432.5,558.575L1432.71,558.58L1432.93,558.586L1433.14,558.592L1433.36,558.599L1433.57,558.607L1433.78,558.615L1434,558.625L1434.21,558.634L1434.42,558.645L1434.63,558.656L1434.85,558.668L1435.06,558.681L1435.27,558.694L1435.49,558.708L1435.7,558.723L1435.91,558.738L1436.12,558.754L1436.34,558.771L1436.55,558.788L1436.76,558.807L1436.97,558.825L1437.18,558.845L1437.39,558.865L1437.61,558.886L1437.82,558.908L1438.03,558.93L1438.24,558.953L1438.45,558.977L1438.66,559.001L1438.87,559.026L1439.08,559.052L1439.29,559.078L1439.5,559.105L1439.71,559.133L1439.92,559.161L1440.13,559.191L1440.34,559.22L1440.55,559.251L1440.76,559.282L1440.97,559.314L1441.18,559.346L1441.39,559.38L1441.6,559.414L1441.81,559.448L1442.02,559.483L1442.22,559.519L1442.43,559.556L1442.64,559.593L1442.85,559.631L1443.06,559.67L1443.26,559.709L1443.47,559.749L1443.68,559.789L1443.88,559.831L1444.09,559.873L1444.3,559.915L1444.51,559.958L1444.71,560.002L1444.92,560.047L1445.12,560.092L1445.33,560.138L1445.54,560.185L1445.74,560.232L1445.95,560.28L1446.15,560.329L1446.36,560.378L1446.56,560.428L1446.77,560.478L1446.97,560.53L1447.17,560.581L1447.38,560.634L1447.58,560.687L1447.79,560.741L1447.99,560.796L1448.19,560.851L1448.39,560.907L1448.6,560.963L1448.8,561.02L1449,561.078L1449.2,561.136L1449.41,561.195L1449.61,561.255L1449.81,561.315L1450.01,561.376L1450.21,561.438L1450.41,561.5L1450.61,561.563L1450.81,561.627L1451.01,561.691L1451.21,561.756L1451.41,561.822L1451.61,561.888L1451.81,561.955L1452.01,562.022L1452.21,562.09L1452.41,562.159L1452.61,562.228L1452.81,562.298L1453,562.369L1453.2,562.44L1453.4,562.512L1453.6,562.585L1453.79,562.658L1453.99,562.732L1454.18,562.806L1454.38,562.882L1454.58,562.957L1454.77,563.034L1454.97,563.111L1455.16,563.188L1455.36,563.267L1455.55,563.346L1455.75,563.425L1455.94,563.505L1456.14,563.586L1456.33,563.667L1456.52,563.749L1456.72,563.832L1456.91,563.915L1457.1,563.999L1457.29,564.084L1457.49,564.169L1457.68,564.255L1457.87,564.341L1458.06,564.428L1458.25,564.516L1458.44,564.604L1458.63,564.693L1458.82,564.783L1459.01,564.873L1459.2,564.963L1459.39,565.055L1459.58,565.147L1459.77,565.239L1459.95,565.332L1460.14,565.426L1460.33,565.521L1460.52,565.616L1460.7,565.711L1460.89,565.808L1461.08,565.904L1461.27,566.002L1461.45,566.1L1461.64,566.199L1461.82,566.298L1462.01,566.398L1462.19,566.498L1462.38,566.6L1462.56,566.701L1462.74,566.804L1462.93,566.907L1463.11,567.01L1463.29,567.114L1463.48,567.219L1463.66,567.324L1463.84,567.43L1464.02,567.537L1464.2,567.644L1464.38,567.752L1464.56,567.86L1464.74,567.969L1464.92,568.078L1465.1,568.188L1465.28,568.299L1465.46,568.41L1465.64,568.522L1465.82,568.635L1465.99,568.748L1466.17,568.862L1466.35,568.976L1466.53,569.091L1466.7,569.206L1466.88,569.322L1467.05,569.439L1467.23,569.556L1467.4,569.674L1467.58,569.792L1467.75,569.911L1467.92,570.031L1468.1,570.151L1468.27,570.271L1468.44,570.393L1468.62,570.515L1468.79,570.637L1468.96,570.76L1469.13,570.884L1469.3,571.008L1469.47,571.133L1469.64,571.258L1469.81,571.384L1469.98,571.51L1470.15,571.638L1470.32,571.765L1470.49,571.893L1470.66,572.022L1470.82,572.152L1470.99,572.282L1471.16,572.412L1471.32,572.543L1471.49,572.675L1471.65,572.807L1471.82,572.94L1471.98,573.073L1472.15,573.207L1472.31,573.342L1472.48,573.477L1472.64,573.612L1472.8,573.749L1472.96,573.885L1473.13,574.023L1473.29,574.16L1473.45,574.299L1473.61,574.438L1473.77,574.578L1473.93,574.718L1474.09,574.858L1474.25,575L1474.41,575.141L1474.56,575.284L1474.72,575.427L1474.88,575.57L1475.04,575.714L1475.19,575.859L1475.35,576.004L1475.5,576.15L1475.66,576.296L1475.81,576.443L1475.97,576.59L1476.12,576.738L1476.27,576.886L1476.43,577.035L1476.58,577.185L1476.73,577.335L1476.88,577.485L1477.03,577.636L1477.18,577.788L1477.34,577.94L1477.49,578.093L1477.63,578.246L1477.78,578.4L1477.93,578.555L1478.08,578.71L1478.23,578.865L1478.37,579.021L1478.52,579.178L1478.67,579.335L1478.81,579.492L1478.96,579.651L1479.1,579.809L1479.25,579.969L1479.39,580.128L1479.53,580.288L1479.67,580.449L1479.82,580.61L1479.96,580.771L1480.1,580.933L1480.24,581.095L1480.38,581.257L1480.52,581.42L1480.65,581.583L1480.79,581.747L1480.93,581.911L1481.07,582.076L1481.2,582.241L1481.34,582.406L1481.47,582.572L1481.61,582.738L1481.74,582.904L1481.87,583.071L1482.01,583.239L1482.14,583.406L1482.27,583.574L1482.4,583.743L1482.53,583.912L1482.66,584.081L1482.79,584.25L1482.92,584.42L1483.05,584.591L1483.17,584.761L1483.3,584.932L1483.42,585.104L1483.55,585.276L1483.67,585.448L1483.8,585.62L1483.92,585.793L1484.05,585.967L1484.17,586.14L1484.29,586.314L1484.41,586.489L1484.53,586.663L1484.65,586.838L1484.77,587.014L1484.89,587.19L1485.01,587.366L1485.13,587.542L1485.24,587.719L1485.36,587.896L1485.48,588.074L1485.59,588.252L1485.7,588.43L1485.82,588.608L1485.93,588.787L1486.05,588.966L1486.16,589.146L1486.27,589.326L1486.38,589.506L1486.49,589.687L1486.6,589.867L1486.71,590.049L1486.82,590.23L1486.93,590.412L1487.03,590.594L1487.14,590.777L1487.25,590.959L1487.35,591.143L1487.46,591.326L1487.56,591.51L1487.66,591.694L1487.77,591.878L1487.87,592.063L1487.97,592.248L1488.07,592.433L1488.17,592.619L1488.27,592.805L1488.37,592.991L1488.47,593.177L1488.57,593.364L1488.67,593.551L1488.76,593.738L1488.86,593.926L1488.95,594.114L1489.05,594.302L1489.14,594.491L1489.24,594.68L1489.33,594.869L1489.42,595.058L1489.52,595.248L1489.61,595.438L1489.7,595.628L1489.79,595.818L1489.88,596.009L1489.96,596.2L1490.05,596.392L1490.14,596.583L1490.23,596.775L1490.31,596.967L1490.4,597.16L1490.48,597.352L1490.57,597.545L1490.65,597.738L1490.74,597.932L1490.82,598.125L1490.9,598.319L1490.98,598.514L1491.06,598.708L1491.14,598.903L1491.22,599.098L1491.3,599.293L1491.38,599.488L1491.45,599.684L1491.53,599.88L1491.61,600.076L1491.68,600.273L1491.76,600.469L1491.83,600.666L1491.9,600.863L1491.98,601.061L1492.05,601.258L1492.12,601.456L1492.19,601.654L1492.26,601.852L1492.33,602.051L1492.4,602.25L1492.47,602.448L1492.54,602.648L1492.61,602.847L1492.67,603.047L1492.74,603.246L1492.8,603.446L1492.87,603.647L1492.93,603.847L1492.99,604.048L1493.06,604.249L1493.12,604.45L1493.18,604.651L1493.24,604.853L1493.3,605.054L1493.36,605.256L1493.42,605.458L1493.48,605.66L1493.53,605.863L1493.59,606.066L1493.65,606.268L1493.7,606.471L1493.76,606.675L1493.81,606.878L1493.86,607.082L1493.92,607.286L1493.97,607.49L1494.02,607.694L1494.07,607.898L1494.12,608.102L1494.17,608.307L1494.22,608.512L1494.27,608.717L1494.32,608.922L1494.36,609.128L1494.41,609.333L1494.45,609.539L1494.5,609.745L1494.54,609.951L1494.59,610.157L1494.63,610.363L1494.67,610.57L1494.71,610.776L1494.75,610.983L1494.79,611.19L1494.83,611.397L1494.87,611.605L1494.91,611.812L1494.95,612.02L1494.98,612.227L1495.02,612.435L1495.06,612.643L1495.09,612.851L1495.13,613.06L1495.16,613.268L1495.19,613.477L1495.22,613.685L1495.25,613.894L1495.29,614.103L1495.32,614.312L1495.35,614.521L1495.37,614.731L1495.4,614.94L1495.43,615.15L1495.46,615.359L1495.48,615.569L1495.51,615.779L1495.53,615.989L1495.56,616.199L1495.58,616.41L1495.6,616.62L1495.62,616.83L1495.64,617.041L1495.66,617.252L1495.68,617.463L1495.7,617.673L1495.72,617.885L1495.74,618.096L1495.76,618.307L1495.77,618.518L1495.79,618.73L1495.81,618.941L1495.82,619.153L1495.83,619.364L1495.85,619.576L1495.86,619.788L1495.87,620L1495.88,620.212L1495.89,620.424L1495.9,620.636L1495.91,620.849L1495.92,621.061L1495.93,621.273L1495.93,621.486L1495.94,621.698L1495.94,621.911L1495.95,622.124L1495.95,622.337L1495.96,622.549L1495.96,622.762L1495.96,622.975L1495.96,623.188L1495.96,623.401L1495.96,623.615L1495.96,623.828L1495.96,624.041L1495.96,624.254L1495.95,624.468L1495.95,624.681L1495.95,624.895L1495.94,625.108L1495.93,625.322L1495.93,625.535L1495.92,625.749L1495.91,625.963L1495.9,626.176L1495.9,626.39L1495.89,626.604L1495.88,626.818L1495.86,627.032L1495.85,627.245L1495.84,627.459L1495.84,627.511L1495.83,627.673L1495.81,627.887L1495.8,628.101L1495.78,628.315L1495.76,628.529L1495.75,628.743L1495.73,628.958L1495.71,629.172L1495.69,629.386L1495.67,629.6L1495.65,629.813L1492.53,660.219ZM1492.4,629.077L1492.42,628.874L1492.44,628.671L1492.46,628.468L1492.48,628.265L1492.49,628.062L1492.51,627.859L1492.52,627.656L1492.54,627.452L1492.55,627.299L1492.55,627.249L1492.56,627.046L1492.58,626.843L1492.59,626.64L1492.6,626.437L1492.61,626.235L1492.62,626.032L1492.63,625.829L1492.64,625.626L1492.64,625.423L1492.65,625.22L1492.66,625.018L1492.66,624.815L1492.67,624.612L1492.67,624.41L1492.68,624.207L1492.68,624.005L1492.68,623.802L1492.68,623.6L1492.68,623.397L1492.68,623.195L1492.68,622.993L1492.68,622.79L1492.68,622.588L1492.68,622.386L1492.68,622.184L1492.67,621.982L1492.67,621.78L1492.66,621.578L1492.66,621.376L1492.65,621.175L1492.64,620.973L1492.64,620.771L1492.63,620.57L1492.62,620.368L1492.61,620.167L1492.6,619.965L1492.59,619.764L1492.58,619.563L1492.57,619.362L1492.55,619.161L1492.54,618.96L1492.53,618.759L1492.51,618.558L1492.5,618.358L1492.48,618.157L1492.46,617.957L1492.44,617.756L1492.43,617.556L1492.41,617.356L1492.39,617.155L1492.37,616.955L1492.35,616.755L1492.33,616.556L1492.31,616.356L1492.28,616.156L1492.26,615.957L1492.24,615.757L1492.21,615.558L1492.19,615.359L1492.16,615.16L1492.13,614.961L1492.11,614.762L1492.08,614.563L1492.05,614.364L1492.02,614.166L1491.99,613.967L1491.96,613.769L1491.93,613.571L1491.9,613.373L1491.87,613.175L1491.83,612.977L1491.8,612.78L1491.77,612.582L1491.73,612.385L1491.7,612.187L1491.66,611.99L1491.62,611.793L1491.59,611.596L1491.55,611.4L1491.51,611.203L1491.47,611.007L1491.43,610.81L1491.39,610.614L1491.35,610.418L1491.31,610.223L1491.26,610.027L1491.22,609.831L1491.18,609.636L1491.13,609.441L1491.09,609.246L1491.04,609.051L1491,608.856L1490.95,608.661L1490.9,608.467L1490.85,608.273L1490.81,608.079L1490.76,607.885L1490.71,607.691L1490.66,607.497L1490.61,607.304L1490.55,607.111L1490.5,606.918L1490.45,606.725L1490.39,606.532L1490.34,606.339L1490.28,606.147L1490.23,605.955L1490.17,605.763L1490.12,605.571L1490.06,605.38L1490,605.188L1489.94,604.997L1489.88,604.806L1489.82,604.615L1489.76,604.424L1489.7,604.234L1489.64,604.044L1489.58,603.854L1489.51,603.664L1489.45,603.474L1489.39,603.285L1489.32,603.095L1489.26,602.906L1489.19,602.717L1489.12,602.529L1489.06,602.34L1488.99,602.152L1488.92,601.964L1488.85,601.777L1488.78,601.589L1488.71,601.402L1488.64,601.215L1488.57,601.028L1488.5,600.841L1488.42,600.655L1488.35,600.468L1488.28,600.282L1488.2,600.097L1488.13,599.911L1488.05,599.726L1487.97,599.541L1487.9,599.356L1487.82,599.171L1487.74,598.987L1487.66,598.803L1487.58,598.619L1487.5,598.436L1487.42,598.252L1487.34,598.069L1487.26,597.886L1487.18,597.704L1487.09,597.521L1487.01,597.339L1486.92,597.157L1486.84,596.976L1486.76,596.794L1486.67,596.613L1486.58,596.433L1486.5,596.252L1486.41,596.072L1486.32,595.892L1486.23,595.712L1486.14,595.532L1486.05,595.353L1485.96,595.174L1485.87,594.996L1485.78,594.817L1485.68,594.639L1485.59,594.461L1485.5,594.284L1485.4,594.106L1485.31,593.929L1485.21,593.753L1485.12,593.576L1485.02,593.4L1484.92,593.224L1484.82,593.049L1484.73,592.874L1484.63,592.699L1484.53,592.524L1484.43,592.349L1484.33,592.175L1484.22,592.002L1484.12,591.828L1484.02,591.655L1483.92,591.482L1483.81,591.309L1483.71,591.137L1483.6,590.965L1483.5,590.794L1483.39,590.622L1483.29,590.451L1483.18,590.281L1483.07,590.11L1482.96,589.94L1482.85,589.77L1482.74,589.601L1482.63,589.432L1482.52,589.263L1482.41,589.095L1482.3,588.926L1482.19,588.759L1482.08,588.591L1481.96,588.424L1481.85,588.257L1481.73,588.091L1481.62,587.925L1481.5,587.759L1481.38,587.593L1481.27,587.428L1481.15,587.263L1481.03,587.099L1480.91,586.935L1480.8,586.771L1480.67,586.608L1480.55,586.445L1480.43,586.282L1480.31,586.12L1480.19,585.958L1480.07,585.796L1479.94,585.635L1479.82,585.474L1479.7,585.313L1479.57,585.153L1479.44,584.993L1479.32,584.834L1479.19,584.675L1479.07,584.516L1478.94,584.358L1478.81,584.2L1478.68,584.042L1478.55,583.885L1478.42,583.728L1478.29,583.571L1478.16,583.415L1478.03,583.259L1477.9,583.104L1477.76,582.949L1477.63,582.795L1477.5,582.64L1477.36,582.487L1477.23,582.333L1477.09,582.18L1476.95,582.027L1476.82,581.875L1476.68,581.723L1476.54,581.572L1476.4,581.421L1476.27,581.271L1476.13,581.121L1475.99,580.972L1475.85,580.823L1475.71,580.675L1475.57,580.528L1475.43,580.38L1475.29,580.234L1475.14,580.087L1475,579.942L1474.86,579.797L1474.71,579.652L1474.57,579.508L1474.43,579.364L1474.28,579.221L1474.14,579.079L1473.99,578.937L1473.85,578.795L1473.7,578.654L1473.55,578.516L1473.55,578.514L1473.4,578.374L1473.26,578.235L1473.11,578.096L1472.96,577.957L1472.81,577.82L1472.66,577.682L1472.51,577.546L1472.36,577.409L1472.21,577.274L1472.06,577.139L1471.91,577.004L1471.76,576.87L1471.61,576.736L1471.45,576.603L1471.3,576.471L1471.15,576.339L1470.99,576.207L1470.84,576.076L1470.68,575.946L1470.53,575.816L1470.37,575.687L1470.22,575.558L1470.06,575.43L1469.91,575.302L1469.75,575.175L1469.59,575.048L1469.43,574.922L1469.28,574.797L1469.12,574.672L1468.96,574.547L1468.8,574.423L1468.64,574.3L1468.48,574.177L1468.32,574.055L1468.16,573.933L1468,573.812L1467.84,573.691L1467.68,573.571L1467.51,573.452L1467.35,573.333L1467.19,573.214L1467.03,573.096L1466.86,572.979L1466.7,572.862L1466.53,572.746L1466.37,572.63L1466.2,572.515L1466.04,572.4L1465.87,572.286L1465.71,572.173L1465.54,572.06L1465.37,571.948L1465.21,571.836L1465.04,571.725L1464.87,571.614L1464.7,571.504L1464.54,571.394L1464.37,571.285L1464.2,571.177L1464.03,571.069L1463.86,570.961L1463.69,570.855L1463.52,570.748L1463.35,570.643L1463.18,570.538L1463.01,570.433L1462.83,570.329L1462.66,570.226L1462.49,570.123L1462.32,570.021L1462.14,569.919L1461.97,569.818L1461.8,569.718L1461.62,569.618L1461.45,569.518L1461.27,569.419L1461.1,569.321L1460.92,569.223L1460.75,569.126L1460.57,569.03L1460.4,568.934L1460.22,568.838L1460.04,568.744L1459.87,568.649L1459.69,568.556L1459.51,568.463L1459.34,568.37L1459.16,568.278L1458.98,568.187L1458.8,568.096L1458.62,568.006L1458.44,567.917L1458.26,567.828L1458.08,567.739L1457.9,567.651L1457.72,567.564L1457.54,567.477L1457.36,567.391L1457.18,567.306L1457,567.221L1456.82,567.137L1456.63,567.053L1456.45,566.97L1456.27,566.887L1456.09,566.805L1455.9,566.724L1455.72,566.643L1455.54,566.563L1455.35,566.484L1455.17,566.405L1454.98,566.326L1454.8,566.249L1454.61,566.171L1454.43,566.095L1454.24,566.019L1454.06,565.943L1453.87,565.869L1453.68,565.794L1453.5,565.721L1453.31,565.648L1453.12,565.575L1452.94,565.504L1452.75,565.433L1452.56,565.362L1452.37,565.292L1452.19,565.223L1452,565.154L1451.81,565.086L1451.62,565.018L1451.43,564.951L1451.24,564.885L1451.05,564.819L1450.86,564.754L1450.67,564.69L1450.48,564.626L1450.29,564.562L1450.1,564.5L1449.91,564.438L1449.72,564.376L1449.53,564.316L1449.34,564.255L1449.14,564.196L1448.95,564.137L1448.76,564.078L1448.57,564.021L1448.38,563.964L1448.18,563.907L1447.99,563.851L1447.8,563.796L1447.6,563.741L1447.41,563.687L1447.22,563.634L1447.02,563.581L1446.83,563.529L1446.63,563.478L1446.44,563.427L1446.25,563.376L1446.05,563.327L1445.86,563.278L1445.66,563.229L1445.46,563.182L1445.27,563.135L1445.07,563.088L1444.88,563.042L1444.68,562.997L1444.48,562.952L1444.29,562.908L1444.09,562.865L1443.89,562.822L1443.7,562.78L1443.5,562.739L1443.3,562.698L1443.11,562.658L1442.91,562.618L1442.71,562.58L1442.51,562.541L1442.31,562.504L1442.12,562.467L1441.92,562.43L1441.72,562.395L1441.52,562.36L1441.32,562.325L1441.12,562.292L1440.92,562.258L1440.72,562.226L1440.52,562.194L1440.32,562.163L1440.12,562.132L1439.92,562.103L1439.72,562.073L1439.52,562.045L1439.32,562.017L1439.12,561.99L1438.92,561.963L1438.72,561.937L1438.52,561.912L1438.32,561.887L1438.12,561.863L1437.91,561.84L1437.71,561.817L1437.51,561.795L1437.31,561.773L1437.11,561.753L1436.91,561.733L1436.7,561.713L1436.5,561.694L1436.3,561.676L1436.1,561.659L1435.89,561.642L1435.69,561.626L1435.49,561.611L1435.29,561.596L1435.08,561.582L1434.88,561.568L1434.68,561.555L1434.47,561.543L1434.27,561.532L1434.07,561.521L1433.86,561.511L1433.66,561.501L1433.45,561.492L1433.25,561.484L1433.05,561.477L1432.84,561.47L1432.64,561.464L1432.43,561.458L1432.43,561.458L1432.39,584.145L1432.28,661.817L1432.25,699.993L1432.24,736.225L1432.26,774.801L1432.28,774.779L1432.28,797.72L1432.28,797.718L1452.2,797.697L1452.21,797.658L1475.79,797.658L1475.78,797.656L1482.26,732.157L1489.42,659.383L1492.36,629.485L1492.38,629.281L1492.4,629.077Z" style="fill:rgb(55,55,55);"/>
            </g>
            <g transform="matrix(1.51282,0,0,1.51282,-1712.15,-392.376)">
                <path d="M1431,571.147L1431,560C1431,560 1431,560 1431,560C1448.9,560 1465.95,567.572 1477.96,580.842C1489.96,594.113 1495.79,611.844 1494.01,629.649C1486.92,700.201 1477,799 1477,799L1466,799L1482.01,639.649C1483.79,621.844 1477.96,604.113 1465.96,590.842C1456.68,580.582 1444.38,573.728 1431,571.147Z" style="fill:rgb(189,189,189);"/>
                <path d="M1429.37,560L1429.39,559.717L1429.47,559.442L1429.59,559.185L1429.75,558.952L1429.95,558.752L1430.18,558.589L1430.44,558.469L1430.72,558.396L1431,558.372L1431.22,558.373L1431.43,558.374L1431.65,558.376L1431.86,558.379L1432.08,558.383L1432.29,558.387L1432.5,558.392L1432.72,558.398L1432.93,558.405L1433.15,558.412L1433.36,558.42L1433.58,558.428L1433.79,558.437L1434,558.447L1434.22,558.458L1434.43,558.469L1434.64,558.482L1434.86,558.494L1435.07,558.508L1435.28,558.522L1435.5,558.537L1435.71,558.552L1435.92,558.569L1436.14,558.586L1436.35,558.603L1436.56,558.622L1436.77,558.641L1436.99,558.661L1437.2,558.681L1437.41,558.702L1437.62,558.724L1437.83,558.746L1438.05,558.77L1438.26,558.793L1438.47,558.818L1438.68,558.843L1438.89,558.869L1439.1,558.896L1439.31,558.923L1439.52,558.951L1439.73,558.98L1439.94,559.009L1440.15,559.039L1440.36,559.07L1440.57,559.101L1440.78,559.133L1440.99,559.166L1441.2,559.2L1441.41,559.234L1441.62,559.268L1441.83,559.304L1442.04,559.34L1442.25,559.377L1442.46,559.414L1442.66,559.452L1442.87,559.491L1443.08,559.531L1443.29,559.571L1443.5,559.612L1443.7,559.653L1443.91,559.696L1444.12,559.738L1444.33,559.782L1444.53,559.826L1444.74,559.871L1444.95,559.916L1445.15,559.963L1445.36,560.009L1445.56,560.057L1445.77,560.105L1445.98,560.154L1446.18,560.203L1446.39,560.254L1446.59,560.304L1446.8,560.356L1447,560.408L1447.2,560.461L1447.41,560.514L1447.61,560.568L1447.82,560.623L1448.02,560.679L1448.22,560.735L1448.43,560.791L1448.63,560.849L1448.83,560.907L1449.03,560.965L1449.24,561.025L1449.44,561.085L1449.64,561.145L1449.84,561.207L1450.04,561.269L1450.25,561.331L1450.45,561.394L1450.65,561.458L1450.85,561.523L1451.05,561.588L1451.25,561.654L1451.45,561.72L1451.65,561.787L1451.85,561.855L1452.05,561.923L1452.24,561.992L1452.44,562.062L1452.64,562.132L1452.84,562.203L1453.04,562.275L1453.24,562.347L1453.43,562.42L1453.63,562.493L1453.83,562.567L1454.02,562.642L1454.22,562.717L1454.42,562.793L1454.61,562.87L1454.81,562.947L1455,563.025L1455.2,563.104L1455.39,563.183L1455.59,563.263L1455.78,563.343L1455.98,563.424L1456.17,563.506L1456.36,563.588L1456.56,563.671L1456.75,563.754L1456.94,563.839L1457.13,563.923L1457.33,564.009L1457.52,564.095L1457.71,564.181L1457.9,564.269L1458.09,564.357L1458.28,564.445L1458.47,564.534L1458.66,564.624L1458.85,564.714L1459.04,564.805L1459.23,564.897L1459.42,564.989L1459.61,565.082L1459.8,565.175L1459.99,565.269L1460.17,565.364L1460.36,565.459L1460.55,565.555L1460.74,565.652L1460.92,565.749L1461.11,565.846L1461.3,565.945L1461.48,566.044L1461.67,566.143L1461.85,566.243L1462.04,566.344L1462.22,566.445L1462.4,566.547L1462.59,566.65L1462.77,566.753L1462.95,566.857L1463.14,566.961L1463.32,567.066L1463.5,567.171L1463.68,567.278L1463.87,567.384L1464.05,567.492L1464.23,567.6L1464.41,567.708L1464.59,567.817L1464.77,567.927L1464.95,568.037L1465.13,568.148L1465.31,568.26L1465.48,568.372L1465.66,568.484L1465.84,568.598L1466.02,568.712L1466.19,568.826L1466.37,568.941L1466.55,569.057L1466.72,569.173L1466.9,569.29L1467.07,569.407L1467.25,569.525L1467.42,569.644L1467.6,569.763L1467.77,569.882L1467.94,570.003L1468.12,570.124L1468.29,570.245L1468.46,570.367L1468.63,570.49L1468.81,570.613L1468.98,570.737L1469.15,570.861L1469.32,570.986L1469.49,571.111L1469.66,571.237L1469.83,571.364L1470,571.491L1470.16,571.619L1470.33,571.747L1470.5,571.876L1470.67,572.006L1470.84,572.136L1471,572.267L1471.17,572.398L1471.33,572.53L1471.5,572.662L1471.66,572.795L1471.83,572.928L1471.99,573.062L1472.16,573.197L1472.32,573.332L1472.48,573.468L1472.65,573.604L1472.81,573.741L1472.97,573.878L1473.13,574.016L1473.29,574.155L1473.45,574.294L1473.61,574.434L1473.77,574.574L1473.93,574.715L1474.09,574.856L1474.25,574.998L1474.41,575.14L1474.56,575.283L1474.72,575.427L1474.88,575.571L1475.03,575.715L1475.19,575.86L1475.35,576.006L1475.5,576.152L1475.65,576.299L1475.81,576.447L1475.96,576.594L1476.12,576.743L1476.27,576.892L1476.42,577.041L1476.57,577.192L1476.72,577.342L1476.88,577.493L1477.03,577.645L1477.18,577.797L1477.33,577.95L1477.47,578.103L1477.62,578.257L1477.77,578.412L1477.92,578.567L1478.07,578.722L1478.21,578.878L1478.36,579.035L1478.51,579.192L1478.65,579.349L1478.8,579.508L1478.94,579.666L1479.08,579.826L1479.23,579.985L1479.37,580.145L1479.51,580.306L1479.65,580.467L1479.8,580.628L1479.94,580.79L1480.08,580.952L1480.21,581.115L1480.35,581.278L1480.49,581.441L1480.63,581.605L1480.77,581.769L1480.9,581.934L1481.04,582.099L1481.17,582.264L1481.31,582.43L1481.44,582.596L1481.58,582.762L1481.71,582.929L1481.84,583.097L1481.97,583.264L1482.11,583.432L1482.24,583.601L1482.37,583.77L1482.5,583.939L1482.62,584.109L1482.75,584.279L1482.88,584.449L1483.01,584.62L1483.13,584.791L1483.26,584.962L1483.38,585.134L1483.51,585.306L1483.63,585.479L1483.76,585.652L1483.88,585.825L1484,585.998L1484.12,586.172L1484.24,586.347L1484.36,586.521L1484.48,586.696L1484.6,586.872L1484.72,587.048L1484.84,587.224L1484.96,587.4L1485.07,587.577L1485.19,587.754L1485.31,587.931L1485.42,588.109L1485.54,588.287L1485.65,588.466L1485.76,588.645L1485.87,588.824L1485.99,589.003L1486.1,589.183L1486.21,589.363L1486.32,589.544L1486.43,589.724L1486.54,589.905L1486.64,590.087L1486.75,590.269L1486.86,590.451L1486.97,590.633L1487.07,590.816L1487.18,590.999L1487.28,591.182L1487.39,591.366L1487.49,591.549L1487.59,591.734L1487.69,591.918L1487.8,592.103L1487.9,592.288L1488,592.474L1488.1,592.659L1488.2,592.845L1488.29,593.032L1488.39,593.218L1488.49,593.405L1488.59,593.592L1488.68,593.78L1488.78,593.968L1488.87,594.156L1488.97,594.344L1489.06,594.533L1489.15,594.722L1489.25,594.911L1489.34,595.1L1489.43,595.29L1489.52,595.48L1489.61,595.67L1489.7,595.861L1489.79,596.052L1489.87,596.243L1489.96,596.434L1490.05,596.626L1490.13,596.818L1490.22,597.01L1490.3,597.202L1490.39,597.395L1490.47,597.588L1490.55,597.781L1490.63,597.975L1490.72,598.168L1490.8,598.362L1490.88,598.556L1490.96,598.751L1491.04,598.945L1491.11,599.14L1491.19,599.336L1491.27,599.531L1491.35,599.727L1491.42,599.922L1491.5,600.119L1491.57,600.315L1491.64,600.512L1491.72,600.708L1491.79,600.905L1491.86,601.103L1491.93,601.3L1492.01,601.498L1492.08,601.696L1492.14,601.894L1492.21,602.092L1492.28,602.291L1492.35,602.49L1492.41,602.689L1492.48,602.888L1492.55,603.088L1492.61,603.287L1492.68,603.487L1492.74,603.687L1492.8,603.887L1492.87,604.088L1492.93,604.289L1492.99,604.49L1493.05,604.691L1493.11,604.892L1493.17,605.093L1493.23,605.295L1493.28,605.497L1493.34,605.699L1493.4,605.901L1493.45,606.104L1493.51,606.306L1493.56,606.509L1493.62,606.712L1493.67,606.915L1493.72,607.119L1493.77,607.322L1493.82,607.526L1493.87,607.73L1493.92,607.934L1493.97,608.138L1494.02,608.342L1494.07,608.547L1494.12,608.752L1494.16,608.957L1494.21,609.162L1494.26,609.367L1494.3,609.572L1494.34,609.778L1494.39,609.984L1494.43,610.189L1494.47,610.395L1494.51,610.602L1494.55,610.808L1494.59,611.014L1494.63,611.221L1494.67,611.428L1494.71,611.635L1494.75,611.842L1494.78,612.049L1494.82,612.256L1494.85,612.464L1494.89,612.671L1494.92,612.879L1494.95,613.087L1494.99,613.295L1495.02,613.503L1495.05,613.711L1495.08,613.919L1495.11,614.128L1495.14,614.337L1495.17,614.545L1495.2,614.754L1495.22,614.963L1495.25,615.172L1495.28,615.381L1495.3,615.591L1495.33,615.8L1495.35,616.01L1495.37,616.219L1495.39,616.429L1495.42,616.639L1495.44,616.849L1495.46,617.059L1495.48,617.269L1495.5,617.48L1495.52,617.69L1495.53,617.9L1495.55,618.111L1495.57,618.322L1495.58,618.532L1495.6,618.743L1495.61,618.954L1495.62,619.165L1495.64,619.376L1495.65,619.588L1495.66,619.799L1495.67,620.01L1495.68,620.222L1495.69,620.433L1495.7,620.645L1495.71,620.856L1495.71,621.068L1495.72,621.28L1495.73,621.492L1495.73,621.704L1495.74,621.916L1495.74,622.128L1495.74,622.34L1495.75,622.552L1495.75,622.764L1495.75,622.976L1495.75,623.189L1495.75,623.401L1495.75,623.614L1495.75,623.826L1495.74,624.039L1495.74,624.251L1495.74,624.464L1495.73,624.677L1495.73,624.889L1495.72,625.102L1495.71,625.315L1495.71,625.528L1495.7,625.741L1495.69,625.954L1495.68,626.167L1495.67,626.38L1495.66,626.593L1495.65,626.806L1495.64,627.019L1495.62,627.232L1495.61,627.445L1495.6,627.658L1495.58,627.871L1495.57,628.084L1495.55,628.298L1495.53,628.511L1495.51,628.724L1495.5,628.937L1495.48,629.15L1495.46,629.364L1495.43,629.577L1495.41,629.789L1494.28,640.887L1486.42,717.995L1482.59,755.882L1478.96,791.845L1478.24,799.124L1478.2,799.323L1478.13,799.514L1478.03,799.691L1477.91,799.85L1477.76,799.986L1477.59,800.096L1477.4,800.177L1477.2,800.226L1477,800.243L1466,800.247L1465.8,800.229L1465.6,800.178L1465.4,800.094L1465.23,799.979L1465.08,799.837L1464.95,799.671L1464.86,799.487L1464.79,799.289L1464.76,799.084L1464.76,798.875L1466.44,782.132L1470.77,738.458L1479.7,648.133L1480.55,639.504L1480.57,639.299L1480.59,639.095L1480.61,638.891L1480.63,638.687L1480.64,638.484L1480.66,638.28L1480.67,638.076L1480.69,637.872L1480.7,637.668L1480.72,637.465L1480.73,637.261L1480.74,637.057L1480.75,636.854L1480.77,636.65L1480.78,636.446L1480.79,636.243L1480.79,636.039L1480.8,635.836L1480.81,635.632L1480.82,635.429L1480.82,635.226L1480.83,635.022L1480.83,634.819L1480.84,634.616L1480.84,634.413L1480.84,634.21L1480.85,634.006L1480.85,633.803L1480.85,633.6L1480.85,633.397L1480.85,633.195L1480.85,632.992L1480.85,632.789L1480.84,632.586L1480.84,632.384L1480.84,632.181L1480.83,631.979L1480.83,631.776L1480.82,631.574L1480.81,631.371L1480.81,631.169L1480.8,630.967L1480.79,630.765L1480.78,630.563L1480.77,630.361L1480.76,630.159L1480.75,629.957L1480.74,629.756L1480.73,629.554L1480.71,629.352L1480.7,629.151L1480.68,628.95L1480.67,628.748L1480.65,628.547L1480.64,628.346L1480.62,628.145L1480.6,627.944L1480.59,627.743L1480.57,627.543L1480.55,627.342L1480.53,627.142L1480.51,626.941L1480.48,626.741L1480.46,626.541L1480.44,626.341L1480.42,626.141L1480.39,625.941L1480.37,625.741L1480.34,625.541L1480.32,625.342L1480.29,625.142L1480.26,624.943L1480.23,624.744L1480.2,624.545L1480.17,624.346L1480.14,624.147L1480.12,623.948L1480.08,623.75L1480.05,623.551L1480.02,623.353L1479.99,623.155L1479.95,622.957L1479.92,622.759L1479.88,622.561L1479.85,622.364L1479.81,622.166L1479.77,621.969L1479.74,621.772L1479.7,621.575L1479.66,621.378L1479.62,621.181L1479.58,620.984L1479.54,620.788L1479.5,620.592L1479.46,620.395L1479.41,620.199L1479.37,620.004L1479.33,619.808L1479.28,619.612L1479.24,619.417L1479.19,619.222L1479.14,619.027L1479.1,618.832L1479.05,618.637L1479,618.443L1478.95,618.248L1478.9,618.054L1478.85,617.86L1478.8,617.666L1478.75,617.472L1478.7,617.279L1478.64,617.086L1478.59,616.892L1478.54,616.699L1478.48,616.507L1478.43,616.314L1478.37,616.122L1478.32,615.929L1478.26,615.737L1478.2,615.546L1478.14,615.354L1478.08,615.163L1478.02,614.971L1477.96,614.78L1477.9,614.589L1477.84,614.399L1477.78,614.208L1477.72,614.018L1477.65,613.828L1477.59,613.638L1477.53,613.448L1477.46,613.259L1477.39,613.07L1477.33,612.881L1477.26,612.692L1477.19,612.504L1477.13,612.315L1477.06,612.127L1476.99,611.939L1476.92,611.751L1476.85,611.564L1476.78,611.377L1476.7,611.19L1476.63,611.003L1476.56,610.816L1476.49,610.63L1476.41,610.444L1476.34,610.258L1476.26,610.072L1476.18,609.887L1476.11,609.702L1476.03,609.517L1475.95,609.332L1475.87,609.148L1475.8,608.964L1475.71,608.78L1475.63,608.596L1475.55,608.413L1475.47,608.23L1475.39,608.047L1475.31,607.864L1475.22,607.682L1475.14,607.499L1475.06,607.317L1474.97,607.136L1474.88,606.954L1474.8,606.773L1474.71,606.592L1474.63,606.412L1474.54,606.232L1474.45,606.052L1474.36,605.872L1474.27,605.692L1474.18,605.513L1474.09,605.334L1474,605.155L1473.9,604.977L1473.81,604.799L1473.72,604.621L1473.62,604.443L1473.53,604.266L1473.43,604.089L1473.34,603.912L1473.24,603.736L1473.14,603.56L1473.05,603.384L1472.95,603.209L1472.85,603.033L1472.75,602.858L1472.65,602.684L1472.55,602.509L1472.45,602.335L1472.35,602.162L1472.25,601.988L1472.14,601.815L1472.04,601.642L1471.94,601.47L1471.83,601.298L1471.73,601.126L1471.62,600.954L1471.52,600.783L1471.41,600.612L1471.3,600.441L1471.19,600.271L1471.09,600.101L1470.98,599.931L1470.87,599.762L1470.76,599.593L1470.64,599.424L1470.53,599.256L1470.42,599.088L1470.31,598.92L1470.2,598.753L1470.08,598.586L1469.97,598.419L1469.85,598.253L1469.74,598.087L1469.62,597.921L1469.51,597.756L1469.39,597.591L1469.27,597.426L1469.15,597.262L1469.03,597.098L1468.91,596.934L1468.8,596.771L1468.67,596.608L1468.55,596.446L1468.43,596.283L1468.31,596.122L1468.19,595.96L1468.06,595.799L1467.94,595.638L1467.82,595.478L1467.69,595.318L1467.56,595.158L1467.44,594.999L1467.31,594.84L1467.18,594.681L1467.06,594.523L1466.93,594.366L1466.8,594.208L1466.67,594.051L1466.54,593.894L1466.41,593.738L1466.28,593.582L1466.15,593.427L1466.01,593.272L1465.88,593.117L1465.75,592.962L1465.61,592.809L1465.48,592.655L1465.34,592.502L1465.21,592.349L1465.07,592.197L1464.94,592.045L1464.8,591.893L1464.59,591.659L1464.37,591.427L1464.16,591.196L1463.94,590.966L1463.72,590.738L1463.5,590.51L1463.28,590.284L1463.06,590.059L1462.84,589.836L1462.62,589.613L1462.4,589.392L1462.17,589.172L1461.94,588.954L1461.72,588.736L1461.49,588.52L1461.26,588.305L1461.03,588.092L1460.8,587.879L1460.57,587.668L1460.34,587.458L1460.11,587.25L1459.87,587.042L1459.63,586.836L1459.4,586.632L1459.16,586.428L1458.92,586.226L1458.68,586.025L1458.44,585.825L1458.2,585.627L1457.96,585.43L1457.72,585.234L1457.47,585.04L1457.23,584.847L1456.98,584.655L1456.92,584.608L1456.74,584.464L1456.49,584.275L1456.24,584.087L1455.99,583.901L1455.74,583.716L1455.49,583.532L1455.24,583.349L1454.99,583.168L1454.73,582.988L1454.48,582.809L1454.23,582.632L1453.97,582.456L1453.71,582.281L1453.45,582.108L1453.2,581.936L1452.94,581.765L1452.68,581.596L1452.42,581.428L1452.15,581.261L1451.89,581.096L1451.63,580.932L1451.37,580.769L1451.1,580.608L1450.84,580.448L1450.57,580.289L1450.3,580.132L1450.04,579.976L1449.77,579.822L1449.5,579.669L1449.23,579.517L1448.96,579.367L1448.68,579.218L1448.41,579.07L1448.14,578.924L1447.87,578.779L1447.59,578.636L1447.32,578.494L1447.04,578.353L1446.77,578.214L1446.49,578.076L1446.21,577.94L1445.93,577.805L1445.65,577.671L1445.38,577.539L1445.1,577.408L1444.81,577.279L1444.53,577.151L1444.25,577.024L1443.97,576.899L1443.68,576.775L1443.4,576.653L1443.12,576.532L1442.83,576.412L1442.55,576.294L1442.26,576.177L1441.97,576.062L1441.68,575.948L1441.4,575.836L1441.11,575.725L1440.82,575.616L1440.53,575.508L1440.24,575.401L1439.95,575.296L1439.66,575.192L1439.36,575.09L1439.07,574.989L1438.78,574.89L1438.49,574.792L1438.19,574.696L1437.9,574.601L1437.6,574.508L1437.31,574.416L1437.01,574.325L1436.71,574.236L1436.42,574.149L1436.12,574.063L1435.82,573.978L1435.52,573.895L1435.22,573.813L1434.92,573.733L1434.62,573.655L1434.32,573.578L1434.02,573.502L1433.72,573.428L1433.42,573.355L1433.12,573.284L1432.82,573.214L1432.51,573.146L1432.21,573.08L1431.9,573.015L1431.6,572.951L1431.3,572.889L1430.99,572.829L1430.68,572.769L1430.41,572.69L1430.15,572.566L1429.92,572.4L1429.72,572.197L1429.56,571.963L1429.44,571.705L1429.37,571.43L1429.35,571.147L1429.35,568.603L1429.37,560ZM1432.63,568.931L1432.65,568.931L1432.65,569.8L1432.92,569.858L1433.24,569.93L1433.55,570.003L1433.87,570.078L1434.19,570.154L1434.51,570.232L1434.82,570.311L1435.14,570.392L1435.46,570.475L1435.77,570.559L1436.09,570.645L1436.4,570.732L1436.71,570.821L1437.03,570.911L1437.34,571.003L1437.65,571.097L1437.97,571.192L1438.28,571.289L1438.59,571.387L1438.9,571.487L1439.21,571.588L1439.52,571.691L1439.83,571.795L1440.13,571.901L1440.44,572.008L1440.75,572.117L1441.06,572.228L1441.36,572.34L1441.67,572.453L1441.97,572.568L1442.28,572.685L1442.58,572.803L1442.88,572.922L1443.18,573.044L1443.49,573.166L1443.79,573.29L1444.09,573.416L1444.38,573.543L1444.68,573.671L1444.98,573.802L1445.28,573.933L1445.58,574.066L1445.87,574.201L1446.17,574.337L1446.46,574.474L1446.76,574.613L1447.05,574.754L1447.35,574.896L1447.64,575.039L1447.93,575.184L1448.22,575.33L1448.51,575.478L1448.8,575.627L1449.09,575.778L1449.38,575.93L1449.66,576.084L1449.95,576.239L1450.23,576.395L1450.52,576.553L1450.8,576.713L1451.09,576.874L1451.37,577.036L1451.65,577.199L1451.93,577.365L1452.21,577.531L1452.49,577.699L1452.77,577.869L1453.05,578.039L1453.32,578.212L1453.6,578.385L1453.87,578.56L1454.15,578.737L1454.42,578.915L1454.69,579.094L1454.97,579.275L1455.24,579.457L1455.51,579.64L1455.78,579.825L1456.05,580.012L1456.31,580.199L1456.58,580.388L1456.85,580.579L1457.11,580.771L1457.37,580.964L1457.64,581.158L1457.9,581.354L1458.16,581.552L1458.42,581.75L1458.68,581.95L1458.87,582.102L1458.94,582.152L1459.19,582.355L1459.45,582.559L1459.71,582.764L1459.96,582.971L1460.21,583.179L1460.47,583.389L1460.72,583.599L1460.97,583.812L1461.22,584.025L1461.47,584.24L1461.71,584.456L1461.96,584.674L1462.21,584.893L1462.45,585.113L1462.7,585.334L1462.94,585.557L1463.18,585.781L1463.42,586.007L1463.66,586.234L1463.9,586.462L1464.13,586.691L1464.37,586.922L1464.61,587.154L1464.84,587.387L1465.07,587.622L1465.31,587.858L1465.54,588.095L1465.77,588.334L1466,588.573L1466.22,588.815L1466.45,589.057L1466.67,589.301L1466.9,589.545L1467.12,589.791L1467.27,589.952L1467.41,590.112L1467.55,590.272L1467.69,590.434L1467.83,590.595L1467.97,590.757L1468.11,590.919L1468.25,591.082L1468.39,591.245L1468.53,591.409L1468.67,591.572L1468.81,591.737L1468.94,591.902L1469.08,592.067L1469.21,592.232L1469.35,592.398L1469.48,592.564L1469.62,592.731L1469.75,592.898L1469.88,593.066L1470.01,593.233L1470.14,593.402L1470.28,593.57L1470.4,593.739L1470.54,593.908L1470.66,594.078L1470.79,594.248L1470.92,594.419L1471.05,594.59L1471.17,594.761L1471.3,594.932L1471.42,595.104L1471.55,595.277L1471.67,595.449L1471.8,595.622L1471.92,595.796L1472.04,595.97L1472.16,596.144L1472.29,596.318L1472.4,596.493L1472.53,596.668L1472.64,596.844L1472.76,597.02L1472.88,597.196L1473,597.372L1473.12,597.549L1473.23,597.727L1473.35,597.904L1473.46,598.082L1473.58,598.26L1473.69,598.439L1473.8,598.618L1473.92,598.797L1474.03,598.977L1474.14,599.157L1474.25,599.337L1474.36,599.518L1474.47,599.699L1474.58,599.88L1474.69,600.061L1474.8,600.243L1474.9,600.425L1475.01,600.608L1475.12,600.791L1475.22,600.974L1475.33,601.157L1475.43,601.341L1475.53,601.525L1475.64,601.709L1475.74,601.894L1475.84,602.079L1475.94,602.264L1476.04,602.45L1476.14,602.636L1476.24,602.822L1476.34,603.009L1476.44,603.195L1476.53,603.382L1476.63,603.57L1476.73,603.757L1476.82,603.945L1476.92,604.134L1477.01,604.322L1477.1,604.511L1477.2,604.7L1477.29,604.889L1477.38,605.079L1477.47,605.269L1477.56,605.459L1477.65,605.649L1477.74,605.84L1477.83,606.031L1477.92,606.222L1478.01,606.414L1478.09,606.606L1478.18,606.798L1478.26,606.99L1478.35,607.182L1478.43,607.375L1478.52,607.568L1478.6,607.762L1478.68,607.955L1478.76,608.149L1478.84,608.343L1478.92,608.538L1479,608.732L1479.08,608.927L1479.16,609.122L1479.24,609.317L1479.32,609.513L1479.39,609.709L1479.47,609.905L1479.54,610.101L1479.62,610.297L1479.69,610.494L1479.76,610.691L1479.84,610.888L1479.91,611.086L1479.98,611.283L1480.05,611.481L1480.12,611.679L1480.19,611.878L1480.26,612.076L1480.33,612.275L1480.39,612.474L1480.46,612.673L1480.53,612.873L1480.59,613.072L1480.66,613.272L1480.72,613.472L1480.79,613.672L1480.85,613.873L1480.91,614.073L1480.97,614.274L1481.03,614.475L1481.1,614.677L1481.15,614.878L1481.21,615.08L1481.27,615.281L1481.33,615.483L1481.39,615.686L1481.44,615.888L1481.5,616.091L1481.55,616.293L1481.61,616.496L1481.66,616.7L1481.72,616.903L1481.77,617.106L1481.82,617.31L1481.87,617.514L1481.92,617.718L1481.97,617.922L1482.02,618.127L1482.07,618.331L1482.12,618.536L1482.16,618.741L1482.21,618.946L1482.26,619.151L1482.3,619.356L1482.35,619.562L1482.39,619.768L1482.43,619.974L1482.48,620.18L1482.52,620.386L1482.56,620.592L1482.6,620.798L1482.64,621.005L1482.68,621.212L1482.72,621.419L1482.76,621.626L1482.79,621.833L1482.83,622.04L1482.87,622.248L1482.9,622.455L1482.94,622.663L1482.97,622.871L1483,623.079L1483.04,623.287L1483.07,623.495L1483.1,623.704L1483.13,623.912L1483.16,624.121L1483.19,624.33L1483.22,624.539L1483.25,624.748L1483.27,624.957L1483.3,625.166L1483.32,625.376L1483.35,625.585L1483.37,625.795L1483.4,626.004L1483.42,626.214L1483.44,626.424L1483.46,626.634L1483.49,626.844L1483.51,627.055L1483.53,627.265L1483.55,627.475L1483.56,627.686L1483.58,627.896L1483.6,628.107L1483.61,628.318L1483.63,628.529L1483.64,628.74L1483.66,628.951L1483.67,629.162L1483.68,629.373L1483.7,629.585L1483.71,629.796L1483.72,630.008L1483.73,630.219L1483.74,630.431L1483.75,630.643L1483.76,630.854L1483.76,631.066L1483.77,631.278L1483.78,631.49L1483.78,631.702L1483.79,631.914L1483.79,632.127L1483.79,632.339L1483.8,632.551L1483.8,632.764L1483.8,632.976L1483.8,633.189L1483.8,633.401L1483.8,633.614L1483.8,633.826L1483.79,634.039L1483.79,634.252L1483.79,634.465L1483.78,634.678L1483.78,634.89L1483.77,635.103L1483.76,635.316L1483.76,635.529L1483.75,635.742L1483.74,635.956L1483.73,636.169L1483.72,636.382L1483.71,636.595L1483.7,636.808L1483.68,637.021L1483.67,637.235L1483.66,637.448L1483.64,637.661L1483.63,637.875L1483.61,638.088L1483.6,638.301L1483.58,638.515L1483.56,638.728L1483.54,638.941L1483.52,639.155L1483.5,639.368L1483.48,639.582L1483.46,639.794L1482.6,648.237L1473.57,736.722L1469.22,779.552L1467.38,797.752L1467.38,797.753L1475.87,797.753L1475.88,797.758L1476.74,789.126L1476.75,789.13L1480.29,753.704L1484.01,716.375L1491.52,640.433L1492.6,629.509L1492.62,629.304L1492.64,629.099L1492.66,628.895L1492.67,628.691L1492.69,628.487L1492.71,628.284L1492.72,628.08L1492.74,627.876L1492.75,627.672L1492.77,627.468L1492.78,627.264L1492.79,627.06L1492.8,626.856L1492.81,626.653L1492.82,626.449L1492.83,626.245L1492.84,626.041L1492.85,625.838L1492.86,625.634L1492.86,625.431L1492.87,625.227L1492.88,625.024L1492.88,624.82L1492.88,624.617L1492.89,624.414L1492.89,624.21L1492.89,624.007L1492.89,623.804L1492.9,623.601L1492.9,623.398L1492.9,623.194L1492.89,622.992L1492.89,622.789L1492.89,622.586L1492.89,622.383L1492.88,622.18L1492.88,621.978L1492.87,621.775L1492.87,621.572L1492.86,621.37L1492.86,621.168L1492.85,620.965L1492.84,620.763L1492.83,620.561L1492.82,620.359L1492.81,620.157L1492.8,619.955L1492.79,619.753L1492.77,619.551L1492.76,619.349L1492.75,619.148L1492.73,618.946L1492.72,618.745L1492.7,618.543L1492.69,618.342L1492.67,618.141L1492.65,617.94L1492.63,617.739L1492.61,617.538L1492.6,617.337L1492.58,617.137L1492.55,616.936L1492.53,616.736L1492.51,616.535L1492.49,616.335L1492.46,616.135L1492.44,615.935L1492.41,615.735L1492.39,615.535L1492.36,615.336L1492.34,615.136L1492.31,614.937L1492.28,614.737L1492.25,614.538L1492.22,614.339L1492.19,614.14L1492.16,613.941L1492.13,613.742L1492.1,613.544L1492.07,613.345L1492.03,613.147L1492,612.949L1491.97,612.751L1491.93,612.553L1491.89,612.355L1491.86,612.157L1491.82,611.96L1491.78,611.763L1491.75,611.565L1491.71,611.368L1491.67,611.171L1491.63,610.975L1491.59,610.778L1491.55,610.582L1491.5,610.385L1491.46,610.189L1491.42,609.993L1491.37,609.797L1491.33,609.602L1491.28,609.406L1491.24,609.211L1491.19,609.015L1491.14,608.82L1491.1,608.626L1491.05,608.431L1491,608.236L1490.95,608.042L1490.9,607.848L1490.85,607.654L1490.8,607.46L1490.75,607.266L1490.69,607.073L1490.64,606.879L1490.59,606.686L1490.53,606.493L1490.48,606.301L1490.42,606.108L1490.36,605.916L1490.31,605.724L1490.25,605.532L1490.19,605.34L1490.13,605.148L1490.07,604.957L1490.01,604.766L1489.95,604.575L1489.89,604.384L1489.83,604.193L1489.76,604.003L1489.7,603.812L1489.64,603.623L1489.57,603.433L1489.51,603.243L1489.44,603.054L1489.37,602.865L1489.31,602.676L1489.24,602.487L1489.17,602.298L1489.1,602.11L1489.03,601.922L1488.96,601.734L1488.89,601.547L1488.82,601.359L1488.75,601.172L1488.68,600.985L1488.6,600.798L1488.53,600.612L1488.46,600.426L1488.38,600.24L1488.31,600.054L1488.23,599.868L1488.15,599.683L1488.08,599.498L1488,599.313L1487.92,599.129L1487.84,598.944L1487.76,598.76L1487.68,598.576L1487.6,598.393L1487.52,598.21L1487.44,598.026L1487.35,597.844L1487.27,597.661L1487.19,597.479L1487.1,597.297L1487.02,597.115L1486.93,596.933L1486.84,596.752L1486.76,596.571L1486.67,596.39L1486.58,596.21L1486.49,596.03L1486.4,595.85L1486.31,595.67L1486.22,595.491L1486.13,595.312L1486.04,595.133L1485.95,594.954L1485.86,594.776L1485.76,594.598L1485.67,594.42L1485.57,594.243L1485.48,594.066L1485.38,593.889L1485.29,593.712L1485.19,593.536L1485.09,593.36L1484.99,593.184L1484.89,593.009L1484.8,592.834L1484.69,592.659L1484.6,592.485L1484.49,592.31L1484.39,592.137L1484.29,591.963L1484.19,591.79L1484.08,591.617L1483.98,591.444L1483.88,591.272L1483.77,591.1L1483.66,590.928L1483.56,590.757L1483.45,590.585L1483.34,590.415L1483.24,590.244L1483.13,590.074L1483.02,589.904L1482.91,589.735L1482.8,589.566L1482.69,589.397L1482.58,589.228L1482.46,589.06L1482.35,588.892L1482.24,588.725L1482.12,588.558L1482.01,588.391L1481.89,588.224L1481.78,588.058L1481.66,587.892L1481.55,587.727L1481.43,587.562L1481.31,587.397L1481.19,587.233L1481.07,587.068L1480.95,586.905L1480.84,586.741L1480.71,586.578L1480.59,586.416L1480.47,586.253L1480.35,586.091L1480.23,585.93L1480.1,585.768L1479.98,585.608L1479.85,585.447L1479.73,585.287L1479.6,585.127L1479.48,584.968L1479.35,584.809L1479.22,584.65L1479.1,584.492L1478.97,584.334L1478.84,584.176L1478.71,584.019L1478.58,583.862L1478.45,583.706L1478.32,583.55L1478.18,583.394L1478.05,583.239L1477.92,583.084L1477.79,582.93L1477.65,582.775L1477.52,582.622L1477.38,582.468L1477.25,582.315L1477.11,582.163L1476.97,582.011L1476.84,581.859L1476.7,581.708L1476.56,581.557L1476.42,581.407L1476.28,581.257L1476.14,581.108L1476,580.959L1475.86,580.811L1475.72,580.663L1475.58,580.516L1475.44,580.369L1475.3,580.223L1475.15,580.078L1475.01,579.933L1474.87,579.788L1474.72,579.644L1474.58,579.5L1474.43,579.357L1474.29,579.215L1474.14,579.073L1474,578.932L1473.85,578.791L1473.7,578.65L1473.56,578.51L1473.41,578.371L1473.26,578.232L1473.11,578.094L1472.96,577.956L1472.81,577.819L1472.66,577.682L1472.51,577.546L1472.36,577.411L1472.21,577.275L1472.06,577.141L1471.91,577.007L1471.78,576.892L1471.76,576.873L1471.6,576.74L1471.45,576.608L1471.3,576.476L1471.14,576.345L1470.99,576.214L1470.83,576.084L1470.68,575.954L1470.52,575.825L1470.37,575.696L1470.21,575.568L1470.05,575.441L1469.9,575.314L1469.74,575.187L1469.58,575.061L1469.42,574.936L1469.27,574.811L1469.11,574.687L1468.95,574.563L1468.79,574.44L1468.63,574.317L1468.47,574.195L1468.31,574.073L1468.14,573.952L1467.98,573.832L1467.82,573.712L1467.66,573.593L1467.5,573.474L1467.34,573.355L1467.17,573.238L1467.01,573.121L1466.84,573.004L1466.68,572.888L1466.52,572.772L1466.35,572.657L1466.18,572.543L1466.02,572.429L1465.85,572.316L1465.69,572.203L1465.52,572.091L1465.35,571.979L1465.19,571.868L1465.02,571.758L1464.85,571.648L1464.68,571.538L1464.51,571.43L1464.34,571.321L1464.17,571.214L1464.01,571.107L1463.83,571L1463.66,570.894L1463.49,570.789L1463.32,570.684L1463.15,570.58L1462.98,570.476L1462.81,570.373L1462.63,570.27L1462.46,570.168L1462.29,570.067L1462.12,569.966L1461.94,569.865L1461.77,569.766L1461.6,569.667L1461.42,569.568L1461.25,569.47L1461.07,569.373L1460.89,569.276L1460.72,569.179L1460.54,569.084L1460.37,568.989L1460.19,568.894L1460.01,568.8L1459.84,568.707L1459.66,568.614L1459.48,568.522L1459.3,568.43L1459.13,568.339L1458.95,568.249L1458.77,568.159L1458.59,568.069L1458.41,567.981L1458.23,567.892L1458.05,567.805L1457.87,567.718L1457.69,567.632L1457.51,567.546L1457.33,567.461L1457.15,567.376L1456.96,567.292L1456.78,567.208L1456.6,567.126L1456.42,567.043L1456.24,566.962L1456.05,566.881L1455.87,566.8L1455.68,566.72L1455.5,566.641L1455.32,566.562L1455.13,566.484L1454.95,566.407L1454.76,566.33L1454.58,566.253L1454.39,566.178L1454.21,566.103L1454.02,566.028L1453.84,565.954L1453.65,565.881L1453.46,565.808L1453.28,565.736L1453.09,565.665L1452.9,565.594L1452.72,565.523L1452.53,565.454L1452.34,565.385L1452.15,565.316L1451.96,565.248L1451.78,565.181L1451.59,565.114L1451.4,565.048L1451.21,564.983L1451.02,564.918L1450.83,564.854L1450.64,564.79L1450.45,564.727L1450.26,564.665L1450.07,564.603L1449.88,564.542L1449.69,564.482L1449.5,564.422L1449.3,564.362L1449.11,564.304L1448.92,564.246L1448.73,564.188L1448.54,564.131L1448.34,564.075L1448.15,564.02L1447.96,563.965L1447.77,563.91L1447.57,563.857L1447.38,563.803L1447.18,563.751L1446.99,563.699L1446.8,563.648L1446.6,563.597L1446.41,563.547L1446.21,563.498L1446.02,563.449L1445.83,563.401L1445.63,563.354L1445.43,563.307L1445.24,563.261L1445.04,563.215L1444.85,563.17L1444.65,563.126L1444.45,563.082L1444.26,563.039L1444.06,562.997L1443.87,562.955L1443.67,562.914L1443.47,562.873L1443.28,562.833L1443.08,562.794L1442.88,562.755L1442.68,562.717L1442.49,562.68L1442.29,562.643L1442.09,562.607L1441.89,562.572L1441.69,562.537L1441.49,562.503L1441.3,562.47L1441.1,562.437L1440.9,562.404L1440.7,562.373L1440.5,562.342L1440.3,562.312L1440.1,562.282L1439.9,562.253L1439.7,562.225L1439.5,562.197L1439.3,562.17L1439.1,562.144L1438.9,562.118L1438.7,562.093L1438.5,562.068L1438.3,562.045L1438.1,562.022L1437.9,561.999L1437.69,561.977L1437.49,561.956L1437.29,561.936L1437.09,561.916L1436.89,561.897L1436.69,561.878L1436.49,561.86L1436.29,561.843L1436.08,561.826L1435.88,561.81L1435.68,561.795L1435.48,561.781L1435.27,561.767L1435.07,561.753L1434.87,561.741L1434.67,561.729L1434.46,561.718L1434.26,561.707L1434.06,561.697L1433.85,561.688L1433.65,561.679L1433.45,561.671L1433.24,561.664L1433.04,561.657L1432.84,561.651L1432.63,561.646L1432.63,561.646L1432.63,568.931ZM1431,561.628L1431,561.628L1431,561.628L1431,561.628Z" style="fill:rgb(55,55,55);"/>
            </g>
            <g transform="matrix(1.3666,0,0,1.51282,-1516.58,-392.376)">
                <rect x="1441" y="799" width="27" height="124.11" style="fill:rgb(114,96,92);"/>
                <path d="M1468.63,797.447L1468.91,797.569L1469.18,797.734L1469.4,797.938L1469.58,798.174L1469.72,798.435L1469.8,798.713L1469.83,799L1469.76,815.254L1469.6,854.774L1469.44,903.699L1469.4,923.11L1469.38,923.33L1469.31,923.542L1469.21,923.741L1469.07,923.921L1468.9,924.076L1468.9,924.076L1468.7,924.202L1468.48,924.294L1468.24,924.35L1468,924.368L1466.6,924.366L1441,924.349L1440.83,924.335L1440.76,924.33L1440.53,924.274L1440.31,924.183L1440.12,924.059L1439.95,923.907L1439.95,923.907L1439.81,923.73L1439.71,923.534L1439.65,923.326L1439.63,923.11L1439.62,906.297L1439.58,885.443L1439.46,842.999L1439.31,803.648L1439.29,799L1439.31,798.731L1439.39,798.47L1439.51,798.224L1439.68,798.002L1439.89,797.809L1439.89,797.809L1440.14,797.652L1440.41,797.536L1440.7,797.465L1441,797.44L1466.59,797.352L1468,797.347L1468.32,797.373L1468.63,797.447ZM1442.69,806.536L1442.54,843.876L1442.42,884.325L1442.38,904.239L1442.37,904.247L1442.37,921.872L1442.37,921.872L1443.66,921.872L1443.66,921.872L1464.07,921.855L1464.06,921.85L1466.6,921.849L1466.6,921.846L1466.56,901.239L1466.4,853.4L1466.24,814.835L1466.18,800.555L1442.72,800.554L1442.71,800.548L1442.69,806.536Z" style="fill:rgb(55,55,55);"/>
            </g>
            <g transform="matrix(1.51282,0,0,1.51282,-1723.15,-381.574)">
                <path d="M1462.66,803L1446.83,818.831" style="fill:url(#_Linear2);"/>
                <path d="M1463.83,801.827L1463.84,801.836L1464.31,803L1463.84,804.164L1463.83,804.169L1463.76,804.229L1462.12,805.71L1459.98,807.656L1457.69,809.782L1456.59,810.841L1455.55,811.86L1454.47,812.967L1453.26,814.245L1450.79,816.919L1448.81,819.099L1448,819.999L1448,820.004L1446.86,820.449L1445.71,819.958L1445.7,819.949L1445.21,818.798L1445.66,817.667L1445.66,817.662L1446.56,816.853L1448.74,814.875L1451.42,812.402L1452.69,811.191L1453.8,810.109L1454.82,809.073L1455.88,807.967L1458.01,805.686L1459.95,803.547L1461.43,801.899L1461.49,801.831L1461.5,801.827L1462.66,801.349L1463.83,801.827Z" style="fill:rgb(55,55,55);"/>
            </g>
            <g transform="matrix(1.51282,0,0,1.51282,-1723.15,-349.049)">
                <path d="M1462.66,803L1446.83,818.831" style="fill:url(#_Linear3);"/>
                <path d="M1463.83,801.827L1463.84,801.836L1464.31,803L1463.84,804.164L1463.83,804.169L1463.76,804.229L1462.12,805.71L1459.98,807.656L1457.69,809.782L1456.59,810.841L1455.55,811.86L1454.47,812.967L1453.26,814.245L1450.79,816.919L1448.81,819.099L1448,819.999L1448,820.004L1446.86,820.449L1445.71,819.958L1445.7,819.949L1445.21,818.798L1445.66,817.667L1445.66,817.662L1446.56,816.853L1448.74,814.875L1451.42,812.402L1452.69,811.191L1453.8,810.109L1454.82,809.073L1455.88,807.967L1458.01,805.686L1459.95,803.547L1461.43,801.899L1461.49,801.831L1461.5,801.827L1462.66,801.349L1463.83,801.827Z" style="fill:rgb(55,55,55);"/>
            </g>
            <g transform="matrix(1.51282,0,0,1.51282,-1723.15,-316.523)">
                <path d="M1462.66,803L1446.83,818.831" style="fill:url(#_Linear4);"/>
                <path d="M1463.83,801.827L1463.84,801.836L1464.31,803L1463.84,804.164L1463.83,804.169L1463.76,804.229L1462.12,805.71L1459.98,807.656L1457.69,809.782L1456.59,810.841L1455.55,811.86L1454.47,812.967L1453.26,814.245L1450.79,816.919L1448.81,819.099L1448,819.999L1448,820.004L1446.86,820.449L1445.71,819.958L1445.7,819.949L1445.21,818.798L1445.66,817.667L1445.66,817.662L1446.56,816.853L1448.74,814.875L1451.42,812.402L1452.69,811.191L1453.8,810.109L1454.82,809.073L1455.88,807.967L1458.01,805.686L1459.95,803.547L1461.43,801.899L1461.49,801.831L1461.5,801.827L1462.66,801.349L1463.83,801.827Z" style="fill:rgb(55,55,55);"/>
            </g>
            <g transform="matrix(1.51282,0,0,1.51282,-1723.15,-283.997)">
                <path d="M1462.66,803L1446.83,818.831" style="fill:url(#_Linear5);"/>
                <path d="M1463.83,801.827L1463.84,801.836L1464.31,803L1463.84,804.164L1463.83,804.169L1463.76,804.229L1462.12,805.71L1459.98,807.656L1457.69,809.782L1456.59,810.841L1455.55,811.86L1454.47,812.967L1453.26,814.245L1450.79,816.919L1448.81,819.099L1448,819.999L1448,820.004L1446.86,820.449L1445.71,819.958L1445.7,819.949L1445.21,818.798L1445.66,817.667L1445.66,817.662L1446.56,816.853L1448.74,814.875L1451.42,812.402L1452.69,811.191L1453.8,810.109L1454.82,809.073L1455.88,807.967L1458.01,805.686L1459.95,803.547L1461.43,801.899L1461.49,801.831L1461.5,801.827L1462.66,801.349L1463.83,801.827Z" style="fill:rgb(55,55,55);"/>
            </g>
            <g transform="matrix(1.51282,0,0,1.51282,-1723.15,-251.472)">
                <path d="M1462.66,803L1446.83,818.831" style="fill:url(#_Linear6);"/>
                <path d="M1463.83,801.827L1463.84,801.836L1464.31,803L1463.84,804.164L1463.83,804.169L1463.76,804.229L1462.12,805.71L1459.98,807.656L1457.69,809.782L1456.59,810.841L1455.55,811.86L1454.47,812.967L1453.26,814.245L1450.79,816.919L1448.81,819.099L1448,819.999L1448,820.004L1446.86,820.449L1445.71,819.958L1445.7,819.949L1445.21,818.798L1445.66,817.667L1445.66,817.662L1446.56,816.853L1448.74,814.875L1451.42,812.402L1452.69,811.191L1453.8,810.109L1454.82,809.073L1455.88,807.967L1458.01,805.686L1459.95,803.547L1461.43,801.899L1461.49,801.831L1461.5,801.827L1462.66,801.349L1463.83,801.827Z" style="fill:rgb(55,55,55);"/>
            </g>
        </g>
    </g>
    <defs>
        <linearGradient id="_Linear1" x1="0" y1="0" x2="1" y2="0" gradientUnits="userSpaceOnUse" gradientTransform="matrix(63.3231,0,0,239,1431,679.5)"><stop offset="0" style="stop-color:rgb(117,120,124);stop-opacity:1"/><stop offset="1" style="stop-color:rgb(172,173,176);stop-opacity:1"/></linearGradient>
        <linearGradient id="_Linear2" x1="0" y1="0" x2="1" y2="0" gradientUnits="userSpaceOnUse" gradientTransform="matrix(15.8308,0,0,15.8308,1446.83,810.915)"><stop offset="0" style="stop-color:rgb(117,120,124);stop-opacity:1"/><stop offset="1" style="stop-color:rgb(172,173,176);stop-opacity:1"/></linearGradient>
        <linearGradient id="_Linear3" x1="0" y1="0" x2="1" y2="0" gradientUnits="userSpaceOnUse" gradientTransform="matrix(15.8308,0,0,15.8308,1446.83,810.915)"><stop offset="0" style="stop-color:rgb(117,120,124);stop-opacity:1"/><stop offset="1" style="stop-color:rgb(172,173,176);stop-opacity:1"/></linearGradient>
        <linearGradient id="_Linear4" x1="0" y1="0" x2="1" y2="0" gradientUnits="userSpaceOnUse" gradientTransform="matrix(15.8308,0,0,15.8308,1446.83,810.915)"><stop offset="0" style="stop-color:rgb(117,120,124);stop-opacity:1"/><stop offset="1" style="stop-color:rgb(172,173,176);stop-opacity:1"/></linearGradient>
        <linearGradient id="_Linear5" x1="0" y1="0" x2="1" y2="0" gradientUnits="userSpaceOnUse" gradientTransform="matrix(15.8308,0,0,15.8308,1446.83,810.915)"><stop offset="0" style="stop-color:rgb(117,120,124);stop-opacity:1"/><stop offset="1" style="stop-color:rgb(172,173,176);stop-opacity:1"/></linearGradient>
        <linearGradient id="_Linear6" x1="0" y1="0" x2="1" y2="0" gradientUnits="userSpaceOnUse" gradientTransform="matrix(15.8308,0,0,15.8308,1446.83,810.915)"><stop offset="0" style="stop-color:rgb(117,120,124);stop-opacity:1"/><stop offset="1" style="stop-color:rgb(172,173,176);stop-opacity:1"/></linearGradient>
    </defs>
</svg>
