<?xml version="1.0" encoding="UTF-8" standalone="no"?>
<!DOCTYPE svg PUBLIC "-//W3C//DTD SVG 1.1//EN" "http://www.w3.org/Graphics/SVG/1.1/DTD/svg11.dtd">
<svg width="100%" height="100%" viewBox="0 0 149 149" version="1.1" xmlns="http://www.w3.org/2000/svg" xmlns:xlink="http://www.w3.org/1999/xlink" xml:space="preserve" xmlns:serif="http://www.serif.com/" style="fill-rule:evenodd;clip-rule:evenodd;stroke-linejoin:round;stroke-miterlimit:1.41421;">
    <g transform="matrix(1,0,0,1,-1518,-345)">
        <g>
            <g transform="matrix(1.97995,0,0,1.97995,-1575.23,-426.135)">
                <path d="M1600,391L1611.54,415.465L1636,427L1611.54,438.535L1600,463L1588.47,438.535L1564,427L1588.47,415.465L1600,391Z" style="fill:rgb(189,189,189);"/>
                <path d="M1600.33,389.78L1600.53,389.855L1600.72,389.964L1600.89,390.105L1601.03,390.272L1601.14,390.462L1601.5,391.236L1610.4,410.32L1610.39,410.332L1612.4,414.601L1612.4,414.602L1634.2,424.973L1636.45,426.043L1636.61,426.136L1636.75,426.255L1636.87,426.396L1636.96,426.556L1637.02,426.728L1637.05,426.908L1637.05,427.091L1637.02,427.271L1636.95,427.443L1636.86,427.601L1636.75,427.741L1636.61,427.858L1636.45,427.949L1613.08,438.892L1613.08,438.891L1612.27,439.27L1612.27,439.27L1606.03,452.454L1600.86,463.404L1600.77,463.546L1600.67,463.672L1600.54,463.777L1600.4,463.859L1600.24,463.915L1600.08,463.943L1599.92,463.943L1599.76,463.914L1599.6,463.858L1599.46,463.776L1599.4,463.723L1599.33,463.671L1599.23,463.546L1599.14,463.404L1592.72,449.803L1592.7,449.817L1587.73,439.273L1587.73,439.274L1582.17,436.666L1563.55,427.955L1563.39,427.864L1563.25,427.746L1563.13,427.605L1563.04,427.446L1562.98,427.273L1562.94,427.092L1562.94,426.908L1562.97,426.726L1563.04,426.552L1563.13,426.392L1563.25,426.25L1563.39,426.13L1563.55,426.036L1575.3,420.45L1575.28,420.409L1587.6,414.598L1587.6,414.597L1594,400.883L1598.86,390.462L1598.97,390.272L1599.11,390.105L1599.28,389.964L1599.47,389.855L1599.67,389.78L1599.89,389.742L1600.11,389.742L1600.33,389.78ZM1596.03,402.265L1589.51,415.958L1589.41,416.13L1589.28,416.282L1589.13,416.41L1589.13,416.409L1588.96,416.508L1576.62,422.27L1566.5,427.009L1583.63,435.088L1583.61,435.143L1588.88,437.644L1589.03,437.73L1589.16,437.839L1589.27,437.969L1589.27,437.969L1589.35,438.116L1594.26,448.578L1600,460.777L1604.47,451.291L1604.47,451.287L1610.65,438.117L1610.73,437.971L1610.84,437.842L1610.97,437.734L1610.97,437.733L1611.12,437.648L1611.54,437.45L1633.54,427.008L1633.2,426.848L1633.19,426.854L1611.04,416.505L1610.87,416.406L1610.72,416.279L1610.59,416.128L1610.49,415.957L1608.59,411.967L1600,393.935L1596.03,402.265Z" style="fill:rgb(55,55,55);"/>
            </g>
            <g transform="matrix(1.40004,1.40004,-1.40004,1.40004,-49.5481,-2418.57)">
                <path d="M1600,391C1600,391 1605.54,409.465 1611.54,415.465C1617.54,421.465 1636,427 1636,427C1636,427 1617.54,432.535 1611.54,438.535C1605.54,444.535 1600,463 1600,463C1600,463 1594.47,444.535 1588.47,438.535C1582.47,432.535 1564,427 1564,427C1564,427 1582.47,421.465 1588.47,415.465C1594.47,409.465 1600,391 1600,391Z" style="fill:url(#_Linear1);"/>
                <path d="M1601.27,390.838L1601.35,391.087L1601.39,391.245L1601.45,391.426L1601.51,391.628L1601.58,391.851L1601.66,392.094L1601.74,392.356L1601.83,392.636L1601.93,392.934L1602.03,393.25L1602.14,393.581L1602.26,393.929L1602.38,394.291L1602.51,394.667L1602.64,395.057L1602.78,395.46L1602.92,395.875L1603.07,396.302L1603.15,396.519L1603.23,396.739L1603.31,396.961L1603.39,397.186L1603.47,397.412L1603.56,397.642L1603.64,397.873L1603.73,398.106L1603.81,398.342L1603.9,398.579L1603.99,398.818L1604.08,399.058L1604.17,399.301L1604.27,399.544L1604.36,399.79L1604.46,400.036L1604.55,400.284L1604.65,400.533L1604.75,400.783L1604.85,401.033L1604.95,401.285L1605.05,401.538L1605.15,401.791L1605.26,402.045L1605.36,402.299L1605.47,402.554L1605.57,402.809L1605.68,403.064L1605.79,403.32L1605.9,403.575L1606.01,403.831L1606.12,404.086L1606.23,404.342L1606.34,404.596L1606.46,404.851L1606.57,405.105L1606.68,405.358L1606.8,405.611L1606.92,405.863L1607.04,406.114L1607.15,406.365L1607.27,406.614L1607.39,406.862L1607.51,407.109L1607.63,407.354L1607.75,407.598L1607.88,407.841L1608,408.082L1608.12,408.322L1608.25,408.559L1608.37,408.795L1608.49,409.029L1608.62,409.26L1608.75,409.491L1608.81,409.604L1608.87,409.717L1608.93,409.83L1609,409.942L1609.06,410.054L1609.12,410.165L1609.19,410.275L1609.25,410.385L1609.32,410.494L1609.38,410.602L1609.44,410.71L1609.51,410.817L1609.57,410.923L1609.64,411.029L1609.7,411.134L1609.77,411.238L1609.83,411.341L1609.89,411.444L1609.96,411.545L1610.02,411.646L1610.09,411.747L1610.15,411.846L1610.22,411.944L1610.28,412.042L1610.35,412.139L1610.41,412.235L1610.48,412.33L1610.54,412.424L1610.61,412.518L1610.67,412.61L1610.74,412.702L1610.8,412.792L1610.87,412.882L1610.93,412.97L1611,413.058L1611.06,413.145L1611.13,413.23L1611.19,413.315L1611.26,413.399L1611.32,413.481L1611.39,413.563L1611.45,413.643L1611.52,413.723L1611.58,413.801L1611.64,413.878L1611.71,413.954L1611.77,414.029L1611.84,414.103L1611.9,414.176L1611.97,414.247L1612.03,414.318L1612.09,414.387L1612.16,414.455L1612.22,414.522L1612.29,414.587L1612.35,414.652L1612.41,414.716L1612.48,414.78L1612.54,414.844L1612.61,414.908L1612.68,414.972L1612.75,415.037L1612.82,415.102L1612.89,415.167L1612.97,415.231L1613.04,415.296L1613.12,415.362L1613.19,415.427L1613.27,415.492L1613.35,415.557L1613.43,415.623L1613.51,415.688L1613.59,415.754L1613.68,415.82L1613.76,415.885L1613.85,415.951L1613.93,416.017L1614.02,416.082L1614.11,416.148L1614.2,416.214L1614.29,416.28L1614.38,416.345L1614.47,416.411L1614.56,416.477L1614.66,416.543L1614.75,416.608L1614.85,416.674L1614.94,416.74L1615.04,416.805L1615.14,416.871L1615.24,416.937L1615.34,417.002L1615.44,417.068L1615.54,417.133L1615.64,417.198L1615.74,417.264L1615.85,417.329L1615.95,417.394L1616.06,417.459L1616.16,417.525L1616.27,417.59L1616.38,417.655L1616.49,417.719L1616.59,417.784L1616.7,417.849L1616.81,417.913L1616.92,417.978L1617.04,418.042L1617.15,418.107L1617.26,418.171L1617.37,418.235L1617.49,418.299L1617.72,418.427L1617.94,418.554L1618.18,418.681L1618.41,418.807L1618.65,418.933L1618.89,419.058L1619.13,419.183L1619.37,419.307L1619.62,419.43L1619.86,419.553L1620.11,419.675L1620.35,419.797L1620.6,419.918L1620.85,420.038L1621.1,420.157L1621.35,420.276L1621.61,420.394L1621.86,420.511L1622.11,420.627L1622.37,420.743L1622.62,420.858L1622.87,420.972L1623.13,421.085L1623.38,421.197L1623.64,421.309L1623.89,421.419L1624.15,421.529L1624.4,421.637L1624.66,421.745L1624.91,421.852L1625.16,421.957L1625.42,422.062L1625.67,422.166L1625.92,422.268L1626.17,422.37L1626.42,422.471L1626.67,422.57L1626.91,422.668L1627.16,422.766L1627.41,422.862L1627.65,422.957L1627.89,423.051L1628.13,423.143L1628.37,423.235L1628.61,423.325L1628.84,423.414L1629.07,423.502L1629.31,423.589L1629.53,423.674L1629.76,423.758L1629.99,423.841L1630.21,423.922L1630.43,424.003L1630.64,424.081L1631.07,424.235L1631.48,424.383L1631.88,424.525L1632.27,424.662L1632.59,424.772L1632.65,424.792L1633.01,424.916L1633.36,425.034L1633.69,425.146L1634.01,425.251L1634.3,425.35L1634.58,425.443L1634.85,425.528L1635.09,425.607L1635.31,425.679L1635.51,425.743L1635.69,425.801L1635.85,425.851L1636.1,425.929L1636.25,425.976L1636.31,425.991L1636.47,426.058L1636.62,426.151L1636.76,426.269L1636.87,426.408L1636.96,426.565L1637.02,426.734L1637.05,426.91L1637.05,427.09L1637.02,427.266L1636.96,427.435L1636.87,427.592L1636.76,427.731L1636.62,427.849L1636.47,427.942L1636.31,428.009L1636.25,428.024L1636.1,428.07L1635.85,428.147L1635.69,428.196L1635.51,428.252L1635.31,428.316L1635.09,428.386L1634.84,428.464L1634.58,428.548L1634.3,428.638L1634,428.736L1633.69,428.839L1633.35,428.949L1633.01,429.065L1632.64,429.188L1632.27,429.316L1631.88,429.45L1631.47,429.589L1631.06,429.735L1630.63,429.886L1630.41,429.963L1630.19,430.041L1629.97,430.122L1629.75,430.203L1629.52,430.285L1629.29,430.369L1629.06,430.454L1628.82,430.541L1628.59,430.628L1628.35,430.717L1628.11,430.807L1627.87,430.898L1627.63,430.991L1627.38,431.084L1627.14,431.179L1626.89,431.274L1626.64,431.371L1626.4,431.469L1626.15,431.568L1625.89,431.668L1625.64,431.769L1625.39,431.871L1625.14,431.975L1624.88,432.079L1624.63,432.184L1624.37,432.29L1624.12,432.397L1623.86,432.505L1623.61,432.614L1623.35,432.724L1623.09,432.834L1622.84,432.946L1622.58,433.058L1622.33,433.171L1622.07,433.286L1621.82,433.4L1621.56,433.516L1621.31,433.633L1621.06,433.75L1620.81,433.868L1620.56,433.986L1620.31,434.106L1620.06,434.226L1619.81,434.347L1619.56,434.468L1619.32,434.59L1619.08,434.713L1618.83,434.836L1618.59,434.96L1618.36,435.085L1618.12,435.21L1617.88,435.335L1617.65,435.461L1617.42,435.588L1617.31,435.651L1617.19,435.715L1617.08,435.778L1616.97,435.842L1616.86,435.906L1616.75,435.97L1616.63,436.034L1616.53,436.098L1616.41,436.163L1616.31,436.227L1616.2,436.291L1616.09,436.356L1615.98,436.421L1615.88,436.485L1615.77,436.55L1615.67,436.615L1615.57,436.68L1615.46,436.745L1615.36,436.81L1615.26,436.875L1615.16,436.94L1615.06,437.006L1614.96,437.071L1614.86,437.136L1614.76,437.202L1614.67,437.267L1614.57,437.333L1614.48,437.398L1614.38,437.464L1614.29,437.529L1614.2,437.595L1614.11,437.66L1614.02,437.726L1613.92,437.792L1613.84,437.857L1613.75,437.923L1613.66,437.988L1613.58,438.054L1613.49,438.12L1613.41,438.185L1613.33,438.251L1613.25,438.316L1613.17,438.382L1613.09,438.447L1613.01,438.512L1612.93,438.578L1612.86,438.643L1612.81,438.685L1612.78,438.708L1612.71,438.773L1612.64,438.838L1612.57,438.903L1612.5,438.968L1612.43,439.033L1612.36,439.098L1612.29,439.162L1612.23,439.227L1612.16,439.292L1612.1,439.358L1612.03,439.425L1611.97,439.494L1611.9,439.564L1611.84,439.635L1611.77,439.707L1611.71,439.78L1611.64,439.855L1611.58,439.93L1611.51,440.007L1611.44,440.084L1611.38,440.163L1611.31,440.243L1611.25,440.324L1611.18,440.406L1611.11,440.489L1611.05,440.573L1610.98,440.658L1610.92,440.745L1610.85,440.832L1610.78,440.92L1610.72,441.009L1610.65,441.099L1610.59,441.19L1610.52,441.281L1610.45,441.374L1610.39,441.468L1610.32,441.562L1610.26,441.658L1610.19,441.754L1610.12,441.851L1610.06,441.949L1609.99,442.048L1609.93,442.148L1609.86,442.248L1609.8,442.35L1609.73,442.452L1609.66,442.554L1609.6,442.658L1609.53,442.762L1609.47,442.867L1609.4,442.973L1609.34,443.08L1609.27,443.187L1609.21,443.295L1609.14,443.403L1609.08,443.512L1609.01,443.622L1608.95,443.733L1608.88,443.844L1608.82,443.956L1608.76,444.068L1608.69,444.181L1608.63,444.295L1608.56,444.408L1608.43,444.638L1608.31,444.87L1608.18,445.104L1608.06,445.34L1607.93,445.578L1607.8,445.818L1607.68,446.059L1607.56,446.302L1607.43,446.546L1607.31,446.792L1607.19,447.039L1607.07,447.287L1606.95,447.536L1606.83,447.786L1606.71,448.038L1606.59,448.29L1606.47,448.543L1606.35,448.796L1606.24,449.05L1606.12,449.305L1606.01,449.56L1605.89,449.815L1605.78,450.07L1605.67,450.326L1605.56,450.582L1605.45,450.837L1605.39,450.982L1605.34,451.092L1605.23,451.348L1605.12,451.602L1605.02,451.857L1604.91,452.111L1604.81,452.364L1604.71,452.617L1604.6,452.869L1604.5,453.12L1604.4,453.37L1604.3,453.618L1604.21,453.866L1604.11,454.113L1604.02,454.358L1603.92,454.602L1603.83,454.844L1603.74,455.085L1603.64,455.324L1603.55,455.561L1603.47,455.796L1603.38,456.03L1603.29,456.261L1603.21,456.491L1603.13,456.718L1603.04,456.942L1602.96,457.165L1602.88,457.384L1602.8,457.601L1602.65,458.028L1602.51,458.443L1602.36,458.846L1602.23,459.236L1602.1,459.613L1601.98,459.975L1601.86,460.323L1601.75,460.655L1601.64,460.97L1601.54,461.269L1601.45,461.549L1601.37,461.812L1601.29,462.054L1601.22,462.278L1601.15,462.48L1601.1,462.661L1601.05,462.82L1600.97,463.069L1600.92,463.222L1600.91,463.274L1600.85,463.423L1600.76,463.561L1600.66,463.682L1600.53,463.783L1600.39,463.862L1600.24,463.916L1600.08,463.943L1599.92,463.943L1599.76,463.916L1599.61,463.862L1599.47,463.783L1599.34,463.682L1599.24,463.561L1599.15,463.423L1599.09,463.274L1599.08,463.222L1599.03,463.069L1598.95,462.82L1598.9,462.661L1598.85,462.48L1598.82,462.38L1598.78,462.277L1598.71,462.054L1598.63,461.811L1598.55,461.549L1598.46,461.268L1598.36,460.97L1598.25,460.655L1598.14,460.323L1598.03,459.975L1597.9,459.613L1597.77,459.236L1597.64,458.846L1597.5,458.443L1597.35,458.028L1597.2,457.601L1597.12,457.384L1597.04,457.165L1596.96,456.942L1596.88,456.718L1596.79,456.491L1596.71,456.261L1596.62,456.03L1596.53,455.797L1596.44,455.561L1596.36,455.324L1596.26,455.085L1596.17,454.844L1596.08,454.602L1595.99,454.358L1595.89,454.113L1595.79,453.867L1595.69,453.619L1595.6,453.37L1595.5,453.12L1595.39,452.869L1595.29,452.617L1595.19,452.365L1595.09,452.111L1594.98,451.858L1594.87,451.603L1594.77,451.348L1594.66,451.093L1594.55,450.838L1594.44,450.582L1594.33,450.326L1594.22,450.071L1594.11,449.815L1593.99,449.56L1593.88,449.305L1593.76,449.05L1593.65,448.796L1593.53,448.543L1593.48,448.432L1593.41,448.29L1593.29,448.038L1593.17,447.786L1593.05,447.536L1592.93,447.287L1592.81,447.039L1592.69,446.792L1592.57,446.546L1592.44,446.302L1592.32,446.059L1592.19,445.818L1592.07,445.579L1591.94,445.341L1591.82,445.105L1591.69,444.871L1591.56,444.639L1591.44,444.409L1591.37,444.295L1591.31,444.182L1591.24,444.069L1591.18,443.956L1591.12,443.845L1591.05,443.734L1590.99,443.623L1590.92,443.513L1590.86,443.404L1590.79,443.296L1590.73,443.188L1590.66,443.081L1590.6,442.974L1590.53,442.868L1590.47,442.763L1590.4,442.659L1590.33,442.556L1590.27,442.453L1590.2,442.351L1590.14,442.25L1590.07,442.149L1590.01,442.05L1589.94,441.951L1589.87,441.853L1589.81,441.756L1589.74,441.659L1589.68,441.564L1589.61,441.469L1589.54,441.376L1589.48,441.283L1589.41,441.191L1589.35,441.1L1589.28,441.01L1589.21,440.921L1589.15,440.833L1589.08,440.746L1589.02,440.66L1588.95,440.575L1588.88,440.491L1588.82,440.408L1588.75,440.326L1588.69,440.245L1588.62,440.165L1588.55,440.087L1588.49,440.009L1588.42,439.932L1588.36,439.857L1588.29,439.783L1588.23,439.709L1588.16,439.637L1588.1,439.566L1588.03,439.497L1587.97,439.428L1587.9,439.361L1587.84,439.295L1587.77,439.23L1587.7,439.165L1587.64,439.101L1587.57,439.036L1587.5,438.971L1587.43,438.907L1587.36,438.842L1587.29,438.776L1587.22,438.711L1587.14,438.646L1587.07,438.581L1586.99,438.516L1586.91,438.45L1586.83,438.385L1586.75,438.319L1586.67,438.254L1586.59,438.188L1586.5,438.122L1586.42,438.057L1586.33,437.991L1586.25,437.925L1586.16,437.86L1586.07,437.794L1585.98,437.728L1585.89,437.663L1585.8,437.597L1585.71,437.532L1585.62,437.466L1585.52,437.4L1585.43,437.335L1585.33,437.269L1585.24,437.204L1585.14,437.138L1585.04,437.073L1584.94,437.007L1584.84,436.942L1584.74,436.877L1584.64,436.812L1584.54,436.747L1584.43,436.681L1584.33,436.616L1584.23,436.551L1584.12,436.487L1584.02,436.422L1583.91,436.357L1583.8,436.292L1583.69,436.228L1583.58,436.163L1583.48,436.099L1583.37,436.035L1583.25,435.971L1583.2,435.938L1583.14,435.907L1583.03,435.843L1582.92,435.779L1582.81,435.715L1582.69,435.652L1582.58,435.589L1582.35,435.462L1582.11,435.336L1581.88,435.211L1581.64,435.086L1581.4,434.961L1581.16,434.838L1580.92,434.714L1580.68,434.592L1580.43,434.47L1580.19,434.348L1579.94,434.228L1579.69,434.108L1579.44,433.988L1579.19,433.87L1578.94,433.752L1578.69,433.635L1578.43,433.518L1578.18,433.403L1577.93,433.288L1577.67,433.174L1577.42,433.061L1577.16,432.948L1576.9,432.837L1576.65,432.726L1576.39,432.617L1576.14,432.508L1575.88,432.4L1575.63,432.293L1575.37,432.187L1575.12,432.082L1574.86,431.978L1574.61,431.875L1574.36,431.773L1574.1,431.672L1573.85,431.572L1573.6,431.473L1573.35,431.375L1573.11,431.278L1572.86,431.183L1572.61,431.088L1572.37,430.995L1572.13,430.903L1571.89,430.811L1571.65,430.722L1571.41,430.633L1571.17,430.545L1570.94,430.459L1570.71,430.374L1570.48,430.29L1570.25,430.208L1570.03,430.126L1569.81,430.046L1569.59,429.968L1569.37,429.891L1568.94,429.74L1568.53,429.595L1568.12,429.455L1567.73,429.321L1567.36,429.193L1566.99,429.071L1566.64,428.955L1566.31,428.845L1566,428.742L1565.7,428.645L1565.42,428.554L1565.15,428.47L1564.91,428.393L1564.69,428.322L1564.49,428.259L1564.31,428.202L1564.15,428.153L1563.9,428.077L1563.75,428.031L1563.69,428.016L1563.53,427.949L1563.37,427.855L1563.24,427.736L1563.12,427.596L1563.03,427.438L1562.97,427.268L1562.94,427.09L1562.94,426.91L1562.97,426.732L1563.03,426.562L1563.12,426.404L1563.24,426.264L1563.37,426.145L1563.53,426.051L1563.69,425.984L1563.75,425.969L1563.9,425.922L1564.15,425.844L1564.3,425.794L1564.49,425.736L1564.69,425.672L1564.91,425.6L1565.15,425.521L1565.41,425.435L1565.69,425.343L1565.99,425.244L1566.31,425.138L1566.64,425.027L1566.99,424.908L1567.35,424.784L1567.72,424.654L1568.11,424.518L1568.52,424.376L1568.93,424.228L1569.36,424.074L1569.57,423.996L1569.79,423.916L1570.01,423.835L1570.24,423.752L1570.46,423.668L1570.69,423.583L1570.92,423.497L1571.16,423.409L1571.39,423.32L1571.63,423.23L1571.87,423.138L1572.11,423.046L1572.35,422.952L1572.59,422.857L1572.84,422.761L1573.08,422.664L1573.33,422.566L1573.58,422.467L1573.83,422.366L1574.08,422.265L1574.33,422.162L1574.58,422.059L1574.84,421.954L1575.09,421.849L1575.34,421.742L1575.6,421.635L1575.85,421.526L1576.11,421.417L1576.36,421.306L1576.62,421.195L1576.78,421.125L1576.87,421.083L1577.13,420.97L1577.38,420.856L1577.63,420.741L1577.89,420.625L1578.14,420.509L1578.39,420.392L1578.65,420.274L1578.9,420.155L1579.15,420.036L1579.4,419.915L1579.65,419.794L1579.89,419.673L1580.14,419.551L1580.38,419.428L1580.63,419.304L1580.87,419.18L1581.11,419.056L1581.35,418.93L1581.59,418.805L1581.82,418.678L1582.05,418.552L1582.28,418.424L1582.51,418.296L1582.63,418.233L1582.74,418.169L1582.85,418.104L1582.96,418.04L1583.08,417.976L1583.18,417.911L1583.3,417.846L1583.4,417.782L1583.51,417.717L1583.62,417.652L1583.73,417.587L1583.84,417.522L1583.94,417.457L1584.05,417.392L1584.15,417.327L1584.25,417.261L1584.36,417.196L1584.46,417.13L1584.56,417.065L1584.66,416.999L1584.76,416.934L1584.86,416.868L1584.96,416.803L1585.06,416.737L1585.15,416.671L1585.25,416.606L1585.34,416.54L1585.43,416.474L1585.53,416.408L1585.62,416.343L1585.71,416.277L1585.8,416.211L1585.89,416.145L1585.98,416.08L1586.07,416.014L1586.15,415.948L1586.24,415.883L1586.32,415.817L1586.4,415.751L1586.49,415.686L1586.57,415.62L1586.65,415.555L1586.73,415.49L1586.81,415.424L1586.88,415.359L1586.96,415.294L1587.03,415.229L1587.11,415.164L1587.18,415.099L1587.25,415.034L1587.32,414.97L1587.39,414.905L1587.45,414.841L1587.52,414.777L1587.59,414.713L1587.65,414.649L1587.71,414.585L1587.78,414.519L1587.84,414.453L1587.9,414.385L1587.97,414.315L1588.03,414.245L1588.1,414.173L1588.16,414.101L1588.22,414.027L1588.29,413.952L1588.35,413.876L1588.42,413.799L1588.48,413.72L1588.55,413.641L1588.61,413.56L1588.68,413.479L1588.74,413.396L1588.81,413.313L1588.87,413.228L1588.93,413.142L1589,413.056L1589.07,412.968L1589.13,412.879L1589.19,412.79L1589.26,412.699L1589.33,412.608L1589.39,412.515L1589.45,412.422L1589.52,412.328L1589.59,412.233L1589.65,412.137L1589.72,412.04L1589.78,411.942L1589.84,411.844L1589.91,411.744L1589.97,411.644L1590.04,411.543L1590.1,411.441L1590.17,411.339L1590.23,411.236L1590.3,411.132L1590.36,411.027L1590.42,410.921L1590.49,410.815L1590.55,410.708L1590.62,410.6L1590.68,410.492L1590.75,410.383L1590.81,410.273L1590.87,410.163L1590.94,410.052L1591,409.941L1591.06,409.828L1591.13,409.716L1591.19,409.602L1591.25,409.489L1591.38,409.259L1591.5,409.027L1591.63,408.793L1591.75,408.558L1591.88,408.32L1592,408.081L1592.12,407.84L1592.24,407.597L1592.37,407.353L1592.49,407.108L1592.61,406.861L1592.73,406.613L1592.85,406.364L1592.96,406.114L1593.08,405.862L1593.2,405.611L1593.31,405.358L1593.43,405.104L1593.54,404.85L1593.66,404.596L1593.77,404.341L1593.88,404.086L1593.99,403.831L1594.1,403.575L1594.21,403.32L1594.32,403.064L1594.43,402.809L1594.53,402.554L1594.64,402.299L1594.74,402.045L1594.85,401.791L1594.92,401.617L1594.95,401.538L1595.05,401.285L1595.15,401.033L1595.25,400.783L1595.35,400.533L1595.45,400.284L1595.55,400.036L1595.64,399.79L1595.73,399.544L1595.83,399.301L1595.92,399.059L1596.01,398.818L1596.1,398.579L1596.19,398.342L1596.27,398.106L1596.36,397.873L1596.44,397.642L1596.53,397.413L1596.61,397.186L1596.69,396.961L1596.77,396.739L1596.85,396.519L1596.93,396.302L1597.08,395.875L1597.22,395.46L1597.36,395.057L1597.49,394.667L1597.62,394.291L1597.74,393.929L1597.86,393.581L1597.97,393.25L1598.07,392.934L1598.17,392.636L1598.26,392.356L1598.34,392.094L1598.42,391.851L1598.49,391.628L1598.55,391.426L1598.61,391.245L1598.65,391.087L1598.73,390.838L1598.78,390.686L1598.79,390.635L1598.87,390.435L1598.98,390.252L1599.12,390.09L1599.29,389.955L1599.48,389.85L1599.68,389.778L1599.89,389.742L1600.11,389.742L1600.32,389.778L1600.52,389.85L1600.71,389.955L1600.88,390.09L1601.02,390.252L1601.13,390.435L1601.21,390.635L1601.22,390.686L1601.27,390.838ZM1567.67,427.082L1568.03,427.208L1568.41,427.34L1568.81,427.478L1569.22,427.622L1569.64,427.772L1570.07,427.928L1570.29,428.008L1570.51,428.089L1570.74,428.171L1570.97,428.255L1571.2,428.34L1571.43,428.427L1571.66,428.515L1571.9,428.604L1572.14,428.694L1572.38,428.786L1572.62,428.878L1572.87,428.972L1573.11,429.068L1573.36,429.164L1573.61,429.262L1573.86,429.361L1574.11,429.461L1574.36,429.562L1574.62,429.664L1574.87,429.767L1575.13,429.872L1575.38,429.977L1575.64,430.084L1575.9,430.191L1576.16,430.3L1576.42,430.41L1576.68,430.52L1576.94,430.632L1577.2,430.745L1577.46,430.858L1577.72,430.973L1577.98,431.089L1578.24,431.205L1578.5,431.322L1578.76,431.441L1579.02,431.56L1579.28,431.68L1579.54,431.801L1579.8,431.923L1580.06,432.046L1580.32,432.169L1580.57,432.293L1580.83,432.419L1581.08,432.545L1581.33,432.671L1581.59,432.799L1581.84,432.927L1582.09,433.056L1582.33,433.186L1582.58,433.316L1582.82,433.447L1583.07,433.579L1583.31,433.712L1583.55,433.845L1583.67,433.912L1583.79,433.979L1583.9,434.047L1584.02,434.114L1584.14,434.181L1584.19,434.215L1584.25,434.249L1584.37,434.317L1584.49,434.385L1584.6,434.453L1584.71,434.521L1584.83,434.59L1584.94,434.658L1585.05,434.727L1585.16,434.796L1585.28,434.865L1585.38,434.935L1585.5,435.004L1585.6,435.073L1585.71,435.143L1585.82,435.213L1585.93,435.283L1586.03,435.353L1586.14,435.424L1586.24,435.494L1586.35,435.565L1586.45,435.636L1586.56,435.707L1586.66,435.778L1586.76,435.849L1586.86,435.921L1586.96,435.992L1587.06,436.064L1587.15,436.136L1587.25,436.208L1587.35,436.281L1587.44,436.353L1587.54,436.426L1587.63,436.498L1587.73,436.571L1587.82,436.644L1587.91,436.718L1588,436.791L1588.09,436.865L1588.18,436.939L1588.26,437.013L1588.35,437.087L1588.43,437.161L1588.52,437.236L1588.6,437.31L1588.69,437.385L1588.77,437.461L1588.85,437.536L1588.93,437.611L1589.01,437.687L1589.08,437.763L1589.16,437.839L1589.24,437.916L1589.31,437.994L1589.39,438.073L1589.46,438.153L1589.54,438.234L1589.61,438.316L1589.69,438.399L1589.76,438.483L1589.84,438.568L1589.91,438.653L1589.98,438.74L1590.06,438.828L1590.13,438.916L1590.2,439.006L1590.28,439.097L1590.35,439.188L1590.42,439.28L1590.5,439.373L1590.57,439.467L1590.64,439.562L1590.71,439.658L1590.78,439.754L1590.86,439.852L1590.93,439.95L1591,440.049L1591.07,440.149L1591.14,440.25L1591.21,440.351L1591.28,440.453L1591.35,440.556L1591.42,440.66L1591.49,440.764L1591.56,440.869L1591.63,440.975L1591.7,441.082L1591.77,441.189L1591.84,441.297L1591.91,441.406L1591.98,441.515L1592.05,441.625L1592.12,441.736L1592.19,441.847L1592.26,441.959L1592.32,442.071L1592.39,442.184L1592.46,442.298L1592.53,442.412L1592.6,442.527L1592.66,442.643L1592.73,442.759L1592.8,442.875L1592.86,442.993L1592.93,443.11L1593,443.228L1593.06,443.347L1593.13,443.467L1593.26,443.706L1593.39,443.948L1593.52,444.191L1593.65,444.436L1593.78,444.683L1593.91,444.931L1594.04,445.181L1594.17,445.432L1594.29,445.684L1594.42,445.938L1594.54,446.193L1594.66,446.448L1594.79,446.705L1594.91,446.962L1595.03,447.221L1595.15,447.479L1595.22,447.625L1595.27,447.739L1595.39,447.999L1595.51,448.259L1595.63,448.52L1595.74,448.78L1595.86,449.042L1595.97,449.303L1596.09,449.564L1596.2,449.825L1596.31,450.086L1596.42,450.346L1596.53,450.606L1596.64,450.866L1596.75,451.125L1596.85,451.384L1596.96,451.642L1597.06,451.899L1597.17,452.155L1597.27,452.41L1597.37,452.665L1597.47,452.918L1597.57,453.169L1597.67,453.42L1597.76,453.669L1597.86,453.917L1597.95,454.163L1598.05,454.407L1598.14,454.65L1598.23,454.891L1598.32,455.13L1598.41,455.366L1598.49,455.601L1598.58,455.834L1598.66,456.064L1598.75,456.292L1598.83,456.517L1598.91,456.74L1598.99,456.961L1599.14,457.393L1599.29,457.814L1599.43,458.222L1599.57,458.618L1599.7,459L1599.82,459.367L1599.94,459.719L1600,459.898L1600.06,459.719L1600.18,459.367L1600.3,458.999L1600.43,458.618L1600.57,458.222L1600.71,457.814L1600.86,457.393L1601.01,456.961L1601.09,456.74L1601.17,456.517L1601.26,456.292L1601.34,456.064L1601.42,455.834L1601.51,455.601L1601.6,455.367L1601.68,455.13L1601.77,454.891L1601.86,454.65L1601.95,454.407L1602.05,454.163L1602.14,453.917L1602.24,453.669L1602.33,453.42L1602.43,453.17L1602.53,452.918L1602.63,452.665L1602.73,452.411L1602.84,452.156L1602.94,451.899L1603.04,451.642L1603.15,451.384L1603.26,451.126L1603.36,450.867L1603.47,450.607L1603.58,450.347L1603.63,450.234L1603.69,450.086L1603.8,449.825L1603.91,449.564L1604.03,449.303L1604.14,449.042L1604.26,448.781L1604.37,448.52L1604.49,448.259L1604.61,447.999L1604.73,447.739L1604.85,447.479L1604.97,447.22L1605.09,446.962L1605.21,446.705L1605.34,446.448L1605.46,446.193L1605.58,445.938L1605.71,445.685L1605.84,445.432L1605.96,445.181L1606.09,444.932L1606.22,444.683L1606.35,444.437L1606.48,444.192L1606.61,443.948L1606.74,443.707L1606.87,443.467L1606.94,443.348L1607,443.229L1607.07,443.111L1607.14,442.993L1607.2,442.876L1607.27,442.76L1607.34,442.644L1607.41,442.528L1607.47,442.413L1607.54,442.299L1607.61,442.185L1607.68,442.072L1607.75,441.96L1607.82,441.848L1607.88,441.737L1607.95,441.626L1608.02,441.516L1608.09,441.407L1608.16,441.298L1608.23,441.19L1608.3,441.083L1608.37,440.976L1608.44,440.871L1608.51,440.765L1608.58,440.661L1608.65,440.557L1608.72,440.455L1608.79,440.352L1608.86,440.251L1608.93,440.151L1609,440.051L1609.08,439.952L1609.15,439.854L1609.22,439.756L1609.29,439.66L1609.36,439.564L1609.43,439.469L1609.51,439.375L1609.58,439.282L1609.65,439.19L1609.73,439.099L1609.8,439.008L1609.87,438.919L1609.94,438.83L1610.02,438.742L1610.09,438.656L1610.17,438.57L1610.24,438.485L1610.32,438.401L1610.39,438.318L1610.47,438.236L1610.54,438.156L1610.62,438.076L1610.69,437.997L1610.77,437.919L1610.84,437.842L1610.92,437.766L1611,437.69L1611.08,437.614L1611.15,437.539L1611.24,437.464L1611.32,437.389L1611.4,437.314L1611.48,437.239L1611.51,437.213L1611.57,437.164L1611.65,437.09L1611.74,437.016L1611.83,436.942L1611.91,436.868L1612.01,436.794L1612.1,436.721L1612.19,436.647L1612.28,436.574L1612.37,436.501L1612.46,436.428L1612.56,436.356L1612.65,436.283L1612.75,436.211L1612.85,436.139L1612.94,436.067L1613.04,435.995L1613.14,435.923L1613.24,435.852L1613.35,435.78L1613.45,435.709L1613.55,435.638L1613.65,435.567L1613.76,435.496L1613.86,435.426L1613.97,435.355L1614.07,435.285L1614.18,435.215L1614.29,435.145L1614.4,435.075L1614.51,435.005L1614.62,434.936L1614.73,434.867L1614.84,434.797L1614.95,434.728L1615.06,434.66L1615.17,434.591L1615.29,434.522L1615.4,434.454L1615.52,434.386L1615.63,434.318L1615.75,434.25L1615.86,434.182L1615.98,434.115L1616.1,434.047L1616.22,433.98L1616.33,433.913L1616.45,433.846L1616.69,433.713L1616.93,433.58L1617.18,433.449L1617.42,433.317L1617.67,433.187L1617.91,433.057L1618.16,432.928L1618.41,432.8L1618.67,432.673L1618.92,432.546L1619.17,432.42L1619.43,432.295L1619.68,432.171L1619.94,432.048L1620.2,431.925L1620.46,431.803L1620.72,431.682L1620.98,431.562L1621.24,431.443L1621.5,431.325L1621.76,431.208L1622.02,431.091L1622.28,430.976L1622.54,430.861L1622.8,430.748L1623.06,430.635L1623.32,430.523L1623.58,430.413L1623.84,430.303L1624.1,430.195L1624.36,430.087L1624.62,429.98L1624.87,429.875L1625.13,429.771L1625.38,429.667L1625.64,429.565L1625.89,429.464L1626.14,429.364L1626.39,429.266L1626.64,429.168L1626.89,429.072L1627.14,428.977L1627.38,428.883L1627.62,428.79L1627.86,428.698L1628.1,428.608L1628.34,428.519L1628.57,428.431L1628.81,428.345L1629.04,428.26L1629.26,428.176L1629.49,428.094L1629.71,428.013L1629.93,427.933L1630.36,427.777L1630.78,427.628L1631.19,427.484L1631.59,427.346L1631.97,427.214L1632.34,427.088L1632.57,427.01L1632.33,426.931L1631.96,426.807L1631.9,426.787L1631.58,426.677L1631.18,426.541L1630.77,426.4L1630.35,426.253L1629.92,426.101L1629.7,426.022L1629.48,425.942L1629.25,425.861L1629.02,425.779L1628.79,425.695L1628.56,425.61L1628.32,425.524L1628.09,425.437L1627.85,425.348L1627.6,425.258L1627.36,425.167L1627.12,425.074L1626.87,424.981L1626.62,424.886L1626.37,424.79L1626.12,424.693L1625.87,424.594L1625.62,424.495L1625.36,424.394L1625.1,424.293L1624.85,424.19L1624.59,424.086L1624.33,423.981L1624.07,423.875L1623.81,423.768L1623.55,423.66L1623.29,423.551L1623.03,423.441L1622.77,423.33L1622.51,423.218L1622.25,423.105L1621.98,422.991L1621.72,422.876L1621.46,422.761L1621.2,422.644L1620.94,422.526L1620.68,422.408L1620.42,422.288L1620.16,422.168L1619.9,422.047L1619.64,421.925L1619.38,421.802L1619.13,421.679L1618.87,421.554L1618.62,421.429L1618.36,421.303L1618.11,421.176L1617.86,421.048L1617.61,420.92L1617.36,420.791L1617.12,420.661L1616.87,420.53L1616.63,420.399L1616.39,420.267L1616.27,420.201L1616.15,420.134L1616.03,420.068L1615.91,420.001L1615.8,419.934L1615.68,419.867L1615.56,419.799L1615.45,419.732L1615.33,419.664L1615.22,419.596L1615.1,419.528L1614.99,419.46L1614.88,419.392L1614.76,419.323L1614.65,419.254L1614.54,419.185L1614.43,419.116L1614.32,419.047L1614.21,418.978L1614.1,418.908L1613.99,418.838L1613.89,418.768L1613.78,418.698L1613.67,418.628L1613.57,418.557L1613.46,418.487L1613.36,418.416L1613.26,418.345L1613.16,418.274L1613.05,418.202L1612.95,418.131L1612.85,418.059L1612.76,417.987L1612.66,417.915L1612.56,417.843L1612.46,417.771L1612.37,417.698L1612.27,417.625L1612.18,417.552L1612.09,417.479L1611.99,417.406L1611.9,417.332L1611.81,417.258L1611.72,417.184L1611.63,417.11L1611.55,417.036L1611.46,416.961L1611.37,416.886L1611.29,416.811L1611.2,416.736L1611.12,416.66L1611.04,416.585L1610.96,416.509L1610.88,416.432L1610.8,416.356L1610.72,416.279L1610.64,416.202L1610.57,416.123L1610.49,416.044L1610.41,415.963L1610.34,415.882L1610.26,415.799L1610.18,415.716L1610.11,415.632L1610.03,415.546L1609.96,415.46L1609.88,415.373L1609.81,415.284L1609.73,415.195L1609.66,415.105L1609.59,415.014L1609.51,414.923L1609.44,414.83L1609.36,414.736L1609.29,414.642L1609.22,414.547L1609.14,414.451L1609.07,414.354L1609,414.256L1608.92,414.157L1608.85,414.058L1608.78,413.958L1608.71,413.857L1608.64,413.755L1608.57,413.653L1608.49,413.55L1608.42,413.446L1608.35,413.341L1608.28,413.236L1608.21,413.129L1608.14,413.023L1608.07,412.915L1608,412.807L1607.93,412.698L1607.86,412.588L1607.79,412.478L1607.72,412.367L1607.65,412.256L1607.64,412.239L1607.58,412.144L1607.51,412.031L1607.44,411.918L1607.37,411.804L1607.3,411.689L1607.23,411.574L1607.16,411.459L1607.1,411.343L1607.03,411.226L1606.96,411.109L1606.89,410.991L1606.82,410.873L1606.76,410.754L1606.69,410.634L1606.56,410.395L1606.42,410.153L1606.29,409.909L1606.16,409.664L1606.03,409.417L1605.9,409.169L1605.77,408.919L1605.64,408.667L1605.51,408.415L1605.38,408.161L1605.26,407.907L1605.13,407.651L1605.01,407.394L1604.88,407.137L1604.76,406.879L1604.63,406.62L1604.51,406.36L1604.39,406.1L1604.27,405.84L1604.15,405.579L1604.04,405.318L1603.92,405.057L1603.8,404.796L1603.69,404.534L1603.57,404.273L1603.46,404.012L1603.35,403.752L1603.24,403.492L1603.13,403.232L1603.02,402.972L1602.91,402.714L1602.8,402.456L1602.7,402.199L1602.59,401.942L1602.49,401.687L1602.38,401.433L1602.28,401.18L1602.18,400.928L1602.08,400.677L1601.99,400.428L1601.89,400.18L1601.79,399.934L1601.7,399.69L1601.61,399.447L1601.51,399.206L1601.42,398.967L1601.33,398.731L1601.25,398.496L1601.16,398.263L1601.07,398.033L1600.99,397.805L1600.91,397.579L1600.82,397.356L1600.74,397.136L1600.59,396.704L1600.44,396.283L1600.29,395.874L1600.15,395.479L1600.02,395.097L1600,395.035L1599.98,395.097L1599.85,395.479L1599.71,395.874L1599.56,396.283L1599.41,396.704L1599.26,397.136L1599.18,397.356L1599.09,397.579L1599.01,397.805L1598.93,398.033L1598.84,398.263L1598.75,398.496L1598.67,398.731L1598.58,398.967L1598.49,399.206L1598.39,399.447L1598.3,399.69L1598.21,399.934L1598.11,400.18L1598.01,400.428L1597.92,400.677L1597.82,400.928L1597.72,401.18L1597.62,401.433L1597.51,401.687L1597.41,401.942L1597.3,402.199L1597.2,402.456L1597.16,402.536L1597.09,402.714L1596.98,402.973L1596.87,403.232L1596.76,403.492L1596.65,403.752L1596.54,404.013L1596.43,404.274L1596.31,404.535L1596.2,404.796L1596.08,405.057L1595.97,405.318L1595.85,405.579L1595.73,405.84L1595.61,406.101L1595.49,406.361L1595.37,406.62L1595.24,406.879L1595.12,407.138L1595,407.395L1594.87,407.652L1594.75,407.908L1594.62,408.162L1594.49,408.416L1594.37,408.669L1594.24,408.92L1594.11,409.17L1593.98,409.418L1593.85,409.665L1593.71,409.911L1593.58,410.154L1593.45,410.396L1593.31,410.635L1593.25,410.755L1593.18,410.874L1593.11,410.993L1593.04,411.11L1592.98,411.228L1592.91,411.344L1592.84,411.461L1592.77,411.576L1592.7,411.691L1592.63,411.806L1592.56,411.92L1592.5,412.033L1592.43,412.146L1592.36,412.258L1592.29,412.369L1592.22,412.48L1592.15,412.591L1592.08,412.7L1592.01,412.809L1591.94,412.917L1591.87,413.025L1591.8,413.132L1591.72,413.238L1591.65,413.343L1591.58,413.448L1591.51,413.552L1591.44,413.655L1591.37,413.758L1591.3,413.859L1591.22,413.96L1591.15,414.06L1591.08,414.16L1591.01,414.258L1590.93,414.356L1590.86,414.453L1590.79,414.549L1590.71,414.644L1590.64,414.739L1590.57,414.832L1590.49,414.925L1590.42,415.017L1590.34,415.108L1590.27,415.198L1590.19,415.287L1590.12,415.375L1590.04,415.462L1589.97,415.549L1589.89,415.634L1589.82,415.718L1589.74,415.802L1589.67,415.884L1589.59,415.966L1589.51,416.046L1589.44,416.126L1589.36,416.204L1589.28,416.282L1589.2,416.358L1589.13,416.435L1589.05,416.511L1588.96,416.587L1588.88,416.663L1588.8,416.739L1588.72,416.814L1588.63,416.889L1588.54,416.964L1588.46,417.038L1588.37,417.113L1588.28,417.187L1588.19,417.261L1588.1,417.335L1588.01,417.408L1587.92,417.482L1587.82,417.555L1587.73,417.628L1587.63,417.701L1587.54,417.773L1587.44,417.846L1587.35,417.918L1587.25,417.99L1587.15,418.062L1587.05,418.134L1586.95,418.205L1586.85,418.276L1586.74,418.348L1586.64,418.419L1586.54,418.489L1586.43,418.56L1586.33,418.63L1586.22,418.701L1586.12,418.771L1586.01,418.841L1585.9,418.911L1585.79,418.98L1585.68,419.05L1585.57,419.119L1585.46,419.188L1585.35,419.257L1585.24,419.325L1585.13,419.394L1585.01,419.462L1584.9,419.531L1584.79,419.599L1584.67,419.667L1584.56,419.734L1584.44,419.802L1584.32,419.869L1584.2,419.936L1584.09,420.003L1583.97,420.07L1583.85,420.137L1583.73,420.203L1583.61,420.27L1583.37,420.402L1583.13,420.533L1582.88,420.663L1582.64,420.793L1582.39,420.922L1582.14,421.051L1581.89,421.178L1581.64,421.305L1581.38,421.431L1581.13,421.556L1580.88,421.681L1580.62,421.804L1580.36,421.927L1580.1,422.049L1579.84,422.17L1579.59,422.29L1579.33,422.41L1579.06,422.528L1578.8,422.646L1578.54,422.763L1578.28,422.878L1578.02,422.993L1577.76,423.107L1577.66,423.149L1577.49,423.22L1577.23,423.332L1576.97,423.443L1576.71,423.554L1576.45,423.663L1576.19,423.771L1575.93,423.878L1575.67,423.984L1575.41,424.089L1575.15,424.193L1574.9,424.296L1574.64,424.398L1574.39,424.499L1574.13,424.598L1573.88,424.697L1573.63,424.794L1573.38,424.89L1573.13,424.985L1572.89,425.079L1572.64,425.172L1572.4,425.263L1572.16,425.353L1571.92,425.442L1571.68,425.53L1571.44,425.616L1571.21,425.701L1570.98,425.785L1570.75,425.868L1570.53,425.949L1570.3,426.029L1570.08,426.107L1569.65,426.26L1569.23,426.407L1568.82,426.549L1568.42,426.685L1568.04,426.815L1567.67,426.939L1567.46,427.011L1567.67,427.082Z" style="fill:rgb(55,55,55);"/>
            </g>
        </g>
    </g>
    <defs>
        <linearGradient id="_Linear1" x1="0" y1="0" x2="1" y2="0" gradientUnits="userSpaceOnUse" gradientTransform="matrix(72,0,0,72,1564,427)"><stop offset="0" style="stop-color:rgb(117,120,124);stop-opacity:1"/><stop offset="1" style="stop-color:rgb(172,173,176);stop-opacity:1"/></linearGradient>
    </defs>
</svg>
