<?xml version="1.0" encoding="UTF-8" standalone="no"?>
<!DOCTYPE svg PUBLIC "-//W3C//DTD SVG 1.1//EN" "http://www.w3.org/Graphics/SVG/1.1/DTD/svg11.dtd">
<svg width="100%" height="100%" viewBox="0 0 204 476" version="1.1" xmlns="http://www.w3.org/2000/svg" xmlns:xlink="http://www.w3.org/1999/xlink" xml:space="preserve" xmlns:serif="http://www.serif.com/" style="fill-rule:evenodd;clip-rule:evenodd;stroke-linejoin:round;stroke-miterlimit:1.41421;">
    <g transform="matrix(1,0,0,1,-820,-68)">
        <g>
            <g transform="matrix(-1,1.11022e-16,-1.11022e-16,-1,1985.19,840.804)">
                <path d="M1063.5,300L1101,609L1026,609L1063.5,300Z" style="fill:rgb(189,189,189);"/>
                <path d="M1074.5,371.447L1085.22,461.453L1096.83,558.528L1102.57,606.221L1102.88,608.772L1102.89,609.091L1102.85,609.408L1102.75,609.713L1102.61,609.997L1102.41,610.253L1102.18,610.473L1101.92,610.651L1101.63,610.782L1101.32,610.862L1101,610.888L1060.31,610.873L1026,610.891L1025.68,610.864L1025.37,610.784L1025.08,610.653L1024.82,610.475L1024.58,610.255L1024.39,609.999L1024.25,609.714L1024.15,609.409L1024.11,609.092L1024.12,608.772L1025.52,597.187L1032.1,542.362L1045.65,428.971L1056.55,337.372L1061.02,299.699L1061.11,299.282L1061.26,298.886L1061.48,298.522L1061.76,298.201L1062.09,297.933L1062.47,297.724L1062.87,297.581L1063.29,297.509L1063.71,297.509L1064.13,297.581L1064.53,297.724L1064.91,297.933L1065.24,298.201L1065.52,298.522L1065.74,298.886L1065.89,299.282L1065.98,299.699L1066.31,302.499L1074.5,371.447ZM1098.87,607.112L1098.81,606.677L1092.98,558.996L1081.03,461.961L1069.91,372.005L1063.5,320.319L1061.31,337.951L1049.99,429.498L1036.02,542.836L1029.29,597.645L1028.14,607.11L1060.31,607.127L1098.87,607.112Z" style="fill:rgb(55,55,55);"/>
            </g>
            <g transform="matrix(-1,1.11022e-16,-1.11022e-16,-1,1985.19,840.804)">
                <path d="M1101,609L1063.5,609L1063.5,300L1101,609Z" style="fill:url(#_Linear1);"/>
                <path d="M1101,611.5L1098.18,611.493L1063.5,611.403L1063.08,611.365L1062.68,611.255L1062.3,611.077L1061.96,610.836L1061.66,610.54L1061.43,610.197L1061.25,609.818L1061.14,609.415L1061.11,609L1061.19,580.748L1061.39,494.104L1061.56,400.648L1061.61,354.73L1061.63,311.147L1061.62,311.147L1061.62,300L1061.65,299.686L1061.72,299.381L1061.85,299.093L1062.03,298.83L1062.24,298.601L1062.5,298.41L1062.77,298.264L1063.07,298.167L1063.39,298.122L1063.7,298.129L1064.01,298.189L1064.31,298.299L1064.58,298.458L1064.82,298.66L1065.03,298.899L1065.19,299.17L1065.31,299.464L1065.37,299.773L1068.66,326.779L1075.04,378.745L1088.3,486.204L1099.05,573.002L1103.48,608.699L1103.5,609.121L1103.44,609.54L1103.32,609.943L1103.12,610.319L1102.87,610.658L1102.57,610.949L1102.21,611.185L1101.89,611.331L1101.83,611.358L1101.42,611.464L1101,611.5ZM1065.9,606.603L1098.2,606.603L1094.28,573.581L1083.96,486.731L1071.13,379.219L1065.38,331.321L1065.39,353.928L1065.44,399.182L1065.61,491.201L1065.81,576.378L1065.89,606.61L1065.9,606.603Z" style="fill:rgb(55,55,55);"/>
            </g>
            <g transform="matrix(-1,1.11022e-16,-4.16334e-17,-0.38835,1985.19,468.308)">
                <path d="M1063.5,300L1101,609L1026,609L1063.5,300Z" style="fill:url(#_Linear2);"/>
                <path d="M1075.93,382.42L1088.55,488.205L1102.22,602.264L1102.85,607.512L1102.92,608.341L1102.93,609.188L1102.89,610.029L1102.8,610.839L1102.65,611.595L1102.45,612.275L1102.21,612.86L1101.94,613.332L1101.64,613.678L1101.33,613.889L1101,613.959L1084.68,613.87L1062.02,613.823L1037.89,613.892L1026,613.971L1025.67,613.903L1025.35,613.692L1025.05,613.345L1024.78,612.871L1024.54,612.285L1024.35,611.603L1024.2,610.845L1024.1,610.032L1024.06,609.189L1024.07,608.339L1024.14,607.507L1027.06,583.268L1043,450.026L1055.84,342.365L1061.11,298.08L1061.27,297.073L1061.5,296.15L1061.78,295.337L1062.11,294.657L1062.47,294.129L1062.87,293.768L1063.29,293.585L1063.71,293.585L1064.13,293.768L1064.53,294.129L1064.89,294.657L1065.22,295.337L1065.5,296.15L1065.73,297.073L1065.89,298.08L1066.28,301.371L1075.93,382.42ZM1084.68,604.13L1098.36,604.056L1084.53,491.444L1071.51,385.975L1063.5,321.212L1060.43,346.055L1047.18,453.385L1030.82,586.296L1028.65,604.046L1037.89,604.108L1062.02,604.177L1084.68,604.13Z" style="fill:rgb(55,55,55);"/>
            </g>
            <g transform="matrix(-1,1.11022e-16,-1.11022e-16,-1,1985.19,840.804)">
                <path d="M1047,667.174C1047,655.074 1039.98,644.072 1029.01,638.973C1020.65,635.09 1010.4,630.328 1000.56,625.753C996.817,624.016 994.789,619.914 995.678,615.89C996.567,611.865 1000.13,609 1004.26,609C1038.71,609 1088.29,609 1122.74,609C1126.87,609 1130.43,611.865 1131.32,615.89C1132.21,619.914 1130.18,624.016 1126.44,625.753C1116.6,630.328 1106.35,635.09 1097.99,638.973C1087.02,644.072 1080,655.074 1080,667.174C1080,701.891 1080,770 1080,770L1047,770C1047,770 1047,701.891 1047,667.174Z" style="fill:rgb(114,96,92);"/>
                <path d="M1046.62,772.142L1046.26,772.045L1045.91,771.886L1045.6,771.669L1045.33,771.401L1045.11,771.091L1044.95,770.746L1044.85,770.379L1044.82,770L1044.81,769.319L1044.6,696.942L1044.5,667.181L1044.5,666.914L1044.5,666.653L1044.49,666.393L1044.49,666.134L1044.47,665.875L1044.46,665.616L1044.45,665.358L1044.44,665.189L1044.43,665.1L1044.41,664.842L1044.39,664.585L1044.37,664.329L1044.34,664.073L1044.32,663.818L1044.29,663.563L1044.25,663.309L1044.22,663.055L1044.18,662.802L1044.14,662.549L1044.1,662.297L1044.06,662.045L1044.01,661.794L1043.96,661.544L1043.91,661.295L1043.86,661.046L1043.81,660.797L1043.75,660.55L1043.69,660.303L1043.63,660.056L1043.57,659.811L1043.5,659.566L1043.43,659.322L1043.36,659.079L1043.29,658.836L1043.22,658.594L1043.14,658.353L1043.06,658.113L1042.98,657.873L1042.9,657.635L1042.82,657.397L1042.73,657.16L1042.64,656.924L1042.55,656.689L1042.46,656.454L1042.36,656.221L1042.27,655.989L1042.17,655.757L1042.07,655.526L1041.97,655.297L1041.86,655.068L1041.76,654.84L1041.65,654.613L1041.54,654.387L1041.42,654.163L1041.31,653.939L1041.19,653.716L1041.08,653.495L1040.95,653.274L1040.83,653.054L1040.71,652.836L1040.58,652.619L1040.46,652.402L1040.33,652.187L1040.19,651.973L1040.06,651.761L1039.93,651.549L1039.79,651.339L1039.65,651.129L1039.51,650.921L1039.37,650.714L1039.22,650.509L1039.08,650.305L1038.93,650.101L1038.78,649.9L1038.63,649.699L1038.47,649.5L1038.32,649.302L1038.16,649.105L1038,648.91L1037.84,648.716L1037.68,648.524L1037.52,648.332L1037.35,648.143L1037.18,647.954L1037.01,647.767L1036.84,647.582L1036.67,647.398L1036.5,647.215L1036.32,647.034L1036.14,646.854L1035.96,646.676L1035.78,646.499L1035.6,646.324L1035.42,646.15L1035.23,645.978L1035.04,645.808L1034.86,645.639L1034.66,645.471L1034.47,645.305L1034.28,645.141L1034.08,644.978L1033.89,644.817L1033.69,644.658L1033.49,644.5L1033.29,644.344L1033.08,644.19L1032.88,644.037L1032.67,643.886L1032.46,643.737L1032.26,643.59L1032.05,643.444L1031.83,643.3L1031.62,643.158L1031.4,643.017L1031.19,642.878L1030.97,642.741L1030.75,642.606L1030.53,642.473L1030.31,642.342L1030.08,642.212L1029.86,642.085L1029.63,641.959L1029.4,641.835L1029.17,641.713L1028.94,641.593L1028.71,641.475L1028.47,641.359L1028.24,641.244L1028,641.13L1009.87,632.631L999.588,627.818L999.484,627.769L999.375,627.716L999.267,627.661L999.16,627.606L999.054,627.55L998.948,627.493L998.843,627.434L998.739,627.375L998.636,627.314L998.533,627.253L998.431,627.19L998.331,627.127L998.231,627.063L998.132,626.997L998.033,626.931L997.936,626.863L997.839,626.795L997.743,626.726L997.649,626.656L997.555,626.584L997.461,626.512L997.369,626.44L997.278,626.366L997.187,626.291L997.098,626.215L997.009,626.139L996.921,626.062L996.835,625.983L996.749,625.904L996.664,625.825L996.58,625.744L996.496,625.663L996.414,625.58L996.333,625.497L996.253,625.413L996.173,625.329L996.095,625.243L996.017,625.157L995.941,625.07L995.865,624.983L995.791,624.894L995.717,624.805L995.645,624.716L995.573,624.625L995.502,624.534L995.433,624.442L995.364,624.35L995.296,624.256L995.23,624.163L995.164,624.068L995.099,623.973L995.036,623.877L994.973,623.781L994.912,623.684L994.851,623.586L994.791,623.488L994.733,623.389L994.676,623.29L994.619,623.19L994.564,623.089L994.509,622.988L994.456,622.887L994.404,622.785L994.353,622.682L994.303,622.579L994.254,622.475L994.206,622.371L994.159,622.266L994.113,622.161L994.069,622.055L994.025,621.949L993.983,621.842L993.941,621.735L993.901,621.628L993.862,621.52L993.824,621.411L993.787,621.303L993.751,621.193L993.716,621.084L993.683,620.974L993.65,620.863L993.619,620.753L993.589,620.641L993.56,620.53L993.532,620.418L993.505,620.306L993.48,620.193L993.456,620.08L993.432,619.967L993.41,619.854L993.389,619.74L993.37,619.626L993.351,619.511L993.334,619.397L993.318,619.282L993.303,619.167L993.289,619.051L993.277,618.936L993.266,618.82L993.256,618.704L993.247,618.588L993.239,618.471L993.233,618.354L993.228,618.237L993.224,618.12L993.221,618.003L993.22,617.886L993.22,617.768L993.221,617.651L993.223,617.533L993.227,617.415L993.232,617.297L993.238,617.179L993.245,617.061L993.254,616.943L993.264,616.825L993.275,616.707L993.288,616.588L993.302,616.47L993.317,616.352L993.334,616.233L993.351,616.115L993.371,615.996L993.391,615.878L993.413,615.76L993.436,615.642L993.46,615.523L993.486,615.405L993.513,615.287L993.541,615.17L993.571,615.053L993.601,614.937L993.633,614.821L993.666,614.706L993.701,614.591L993.736,614.477L993.773,614.364L993.81,614.251L993.849,614.139L993.889,614.027L993.931,613.916L993.973,613.805L994.016,613.695L994.061,613.586L994.107,613.477L994.154,613.369L994.201,613.261L994.25,613.155L994.301,613.049L994.352,612.943L994.404,612.838L994.457,612.734L994.511,612.631L994.567,612.528L994.623,612.426L994.681,612.325L994.739,612.224L994.798,612.124L994.859,612.025L994.92,611.926L994.983,611.829L995.046,611.732L995.11,611.636L995.176,611.54L995.242,611.445L995.309,611.352L995.377,611.258L995.446,611.166L995.516,611.074L995.587,610.984L995.659,610.894L995.731,610.805L995.805,610.716L995.879,610.629L995.955,610.542L996.031,610.456L996.108,610.371L996.186,610.287L996.264,610.203L996.344,610.121L996.424,610.039L996.505,609.958L996.587,609.878L996.67,609.799L996.754,609.721L996.838,609.644L996.923,609.567L997.009,609.492L997.096,609.417L997.183,609.344L997.271,609.271L997.36,609.199L997.45,609.128L997.541,609.058L997.632,608.989L997.724,608.921L997.816,608.854L997.909,608.788L998.003,608.722L998.098,608.658L998.193,608.595L998.289,608.532L998.386,608.471L998.483,608.411L998.581,608.351L998.68,608.293L998.779,608.236L998.879,608.179L998.979,608.124L999.08,608.07L999.182,608.017L999.284,607.964L999.387,607.913L999.491,607.863L999.595,607.814L999.7,607.766L999.805,607.719L999.91,607.673L1000.02,607.629L1000.12,607.585L1000.23,607.542L1000.34,607.501L1000.45,607.46L1000.56,607.421L1000.67,607.383L1000.77,607.346L1000.89,607.31L1001,607.275L1001.11,607.242L1001.22,607.209L1001.33,607.178L1001.44,607.148L1001.56,607.119L1001.67,607.091L1001.78,607.065L1001.9,607.039L1002.01,607.015L1002.13,606.992L1002.24,606.97L1002.36,606.95L1002.48,606.93L1002.59,606.912L1002.71,606.895L1002.83,606.88L1002.95,606.865L1003.06,606.852L1003.18,606.84L1003.3,606.829L1003.42,606.82L1003.54,606.812L1003.66,606.805L1003.78,606.8L1003.9,606.795L1004.02,606.792L1004.14,606.791L1004.25,606.79L1038.56,606.892L1113.45,607.058L1122.75,607.071L1122.86,607.072L1122.98,607.074L1123.1,607.077L1123.21,607.082L1123.33,607.088L1123.44,607.095L1123.56,607.103L1123.68,607.113L1123.79,607.123L1123.91,607.135L1124.02,607.149L1124.14,607.163L1124.25,607.179L1124.36,607.196L1124.48,607.214L1124.59,607.233L1124.7,607.253L1124.82,607.275L1124.93,607.298L1125.04,607.322L1125.15,607.347L1125.26,607.373L1125.37,607.401L1125.48,607.429L1125.59,607.459L1125.7,607.49L1125.81,607.522L1125.92,607.555L1126.03,607.589L1126.13,607.624L1126.24,607.661L1126.35,607.698L1126.45,607.737L1126.56,607.776L1126.66,607.817L1126.77,607.859L1126.87,607.902L1126.97,607.946L1127.08,607.991L1127.18,608.037L1127.28,608.084L1127.38,608.132L1127.48,608.181L1127.58,608.231L1127.68,608.282L1127.78,608.334L1127.88,608.387L1127.97,608.441L1128.07,608.497L1128.17,608.553L1128.26,608.61L1128.36,608.668L1128.45,608.727L1128.55,608.787L1128.64,608.848L1128.73,608.91L1128.82,608.972L1128.91,609.036L1129.01,609.101L1129.1,609.167L1129.18,609.233L1129.27,609.301L1129.36,609.369L1129.45,609.438L1129.53,609.508L1129.62,609.579L1129.7,609.651L1129.79,609.724L1129.87,609.798L1129.95,609.872L1130.04,609.948L1130.12,610.024L1130.2,610.101L1130.28,610.179L1130.36,610.258L1130.43,610.337L1130.51,610.418L1130.59,610.499L1130.66,610.581L1130.74,610.664L1130.81,610.748L1130.88,610.832L1130.95,610.918L1131.03,611.004L1131.1,611.091L1131.16,611.178L1131.23,611.267L1131.3,611.356L1131.37,611.446L1131.43,611.537L1131.5,611.628L1131.56,611.72L1131.63,611.813L1131.69,611.907L1131.75,612.001L1131.81,612.096L1131.87,612.192L1131.93,612.289L1131.98,612.386L1132.04,612.484L1132.1,612.582L1132.15,612.681L1132.2,612.781L1132.26,612.882L1132.31,612.983L1132.36,613.085L1132.41,613.188L1132.45,613.291L1132.5,613.395L1132.55,613.499L1132.59,613.604L1132.64,613.71L1132.68,613.816L1132.72,613.923L1132.76,614.03L1132.8,614.138L1132.84,614.247L1132.88,614.356L1132.91,614.466L1132.95,614.576L1132.98,614.687L1133.02,614.798L1133.05,614.91L1133.08,615.022L1133.11,615.135L1133.14,615.249L1133.16,615.363L1133.19,615.477L1133.21,615.592L1133.24,615.706L1133.26,615.821L1133.28,615.936L1133.3,616.051L1133.32,616.166L1133.33,616.28L1133.35,616.395L1133.36,616.51L1133.38,616.625L1133.39,616.74L1133.4,616.854L1133.41,616.969L1133.42,617.084L1133.42,617.198L1133.43,617.312L1133.43,617.427L1133.44,617.541L1133.44,617.655L1133.44,617.769L1133.44,617.883L1133.44,617.997L1133.43,618.11L1133.43,618.224L1133.42,618.337L1133.42,618.45L1133.41,618.563L1133.4,618.675L1133.39,618.788L1133.38,618.9L1133.37,619.012L1133.35,619.123L1133.34,619.235L1133.32,619.346L1133.31,619.457L1133.29,619.568L1133.27,619.678L1133.25,619.788L1133.23,619.898L1133.2,620.008L1133.18,620.117L1133.15,620.226L1133.13,620.334L1133.1,620.443L1133.07,620.551L1133.04,620.658L1133.01,620.765L1132.98,620.872L1132.95,620.978L1132.91,621.084L1132.88,621.19L1132.84,621.295L1132.81,621.4L1132.77,621.504L1132.73,621.608L1132.69,621.712L1132.65,621.815L1132.6,621.918L1132.56,622.02L1132.52,622.121L1132.47,622.223L1132.42,622.323L1132.38,622.423L1132.33,622.523L1132.28,622.622L1132.23,622.721L1132.17,622.819L1132.12,622.917L1132.07,623.014L1132.01,623.11L1131.96,623.206L1131.9,623.302L1131.84,623.396L1131.78,623.491L1131.72,623.584L1131.66,623.677L1131.6,623.77L1131.54,623.862L1131.47,623.953L1131.41,624.043L1131.34,624.133L1131.28,624.222L1131.21,624.311L1131.14,624.399L1131.07,624.486L1131,624.573L1130.93,624.658L1130.86,624.744L1130.78,624.828L1130.71,624.912L1130.63,624.995L1130.56,625.077L1130.48,625.158L1130.4,625.239L1130.32,625.319L1130.24,625.398L1130.16,625.477L1130.08,625.555L1130,625.631L1129.92,625.707L1129.83,625.783L1129.75,625.857L1129.66,625.931L1129.57,626.003L1129.49,626.075L1129.4,626.146L1129.31,626.216L1129.22,626.286L1129.13,626.354L1129.04,626.421L1128.94,626.488L1128.85,626.554L1128.75,626.618L1128.66,626.682L1128.56,626.745L1128.47,626.807L1128.37,626.868L1128.27,626.928L1128.17,626.987L1128.07,627.045L1127.97,627.102L1127.87,627.158L1127.77,627.213L1127.66,627.267L1127.56,627.32L1127.46,627.372L1127.35,627.423L1127.25,627.47L1123.87,629.033L1098.79,640.673L1098.54,640.788L1098.3,640.903L1098.07,641.02L1097.83,641.14L1097.59,641.261L1097.36,641.384L1097.13,641.509L1096.89,641.636L1096.66,641.765L1096.44,641.896L1096.21,642.029L1095.98,642.163L1095.76,642.3L1095.54,642.438L1095.32,642.579L1095.1,642.721L1094.88,642.865L1094.66,643.01L1094.45,643.158L1094.23,643.307L1094.02,643.458L1093.81,643.611L1093.6,643.766L1093.39,643.922L1093.19,644.08L1092.98,644.24L1092.98,644.245L1092.78,644.402L1092.58,644.565L1092.38,644.73L1092.18,644.897L1091.99,645.065L1091.79,645.235L1091.6,645.407L1091.41,645.58L1091.22,645.755L1091.03,645.932L1090.84,646.11L1090.66,646.289L1090.47,646.47L1090.29,646.653L1090.11,646.837L1089.93,647.022L1089.76,647.21L1089.59,647.398L1089.41,647.588L1089.24,647.78L1089.07,647.973L1088.9,648.167L1088.74,648.363L1088.57,648.56L1088.41,648.758L1088.25,648.958L1088.09,649.16L1087.93,649.362L1087.78,649.566L1087.63,649.771L1087.47,649.978L1087.33,650.186L1087.18,650.395L1087.03,650.605L1086.89,650.817L1086.75,651.03L1086.61,651.244L1086.47,651.459L1086.33,651.676L1086.2,651.894L1086.06,652.113L1085.93,652.333L1085.8,652.554L1085.68,652.776L1085.55,653L1085.43,653.224L1085.31,653.45L1085.19,653.677L1085.07,653.905L1084.95,654.134L1084.84,654.363L1084.73,654.594L1084.62,654.826L1084.51,655.059L1084.41,655.293L1084.31,655.528L1084.2,655.764L1084.11,656.001L1084.01,656.239L1083.91,656.478L1083.82,656.718L1083.73,656.958L1083.64,657.2L1083.55,657.442L1083.47,657.685L1083.39,657.929L1083.31,658.174L1083.23,658.42L1083.15,658.666L1083.08,658.914L1083.01,659.162L1082.94,659.411L1082.87,659.66L1082.8,659.911L1082.74,660.162L1082.68,660.414L1082.62,660.666L1082.57,660.92L1082.51,661.174L1082.46,661.428L1082.41,661.683L1082.36,661.939L1082.32,662.196L1082.27,662.453L1082.23,662.711L1082.19,662.969L1082.16,663.228L1082.12,663.488L1082.09,663.748L1082.06,664.009L1082.04,664.27L1082.01,664.531L1081.99,664.794L1081.97,665.056L1081.95,665.32L1081.93,665.583L1081.92,665.847L1081.91,666.112L1081.9,666.377L1081.9,666.642L1081.89,666.908L1081.89,667.179L1081.9,676.56L1081.97,719.884L1082.09,770L1082.06,770.363L1081.97,770.716L1081.82,771.048L1081.61,771.348L1081.35,771.607L1081.05,771.818L1080.72,771.974L1080.37,772.07L1080,772.103L1047,772.173L1046.62,772.142ZM1049.19,764.774L1049.18,767.815L1049.18,767.821L1077.82,767.821L1077.9,767.903L1077.9,717.579L1078.03,717.643L1078.1,676.16L1078.11,667.17L1078.11,666.874L1078.11,666.574L1078.12,666.274L1078.13,665.975L1078.14,665.676L1078.16,665.378L1078.17,665.08L1078.19,664.783L1078.22,664.486L1078.24,664.19L1078.27,663.895L1078.3,663.6L1078.34,663.305L1078.37,663.011L1078.41,662.718L1078.45,662.426L1078.5,662.134L1078.54,661.843L1078.59,661.552L1078.64,661.263L1078.7,660.974L1078.76,660.685L1078.81,660.398L1078.88,660.111L1078.94,659.825L1079.01,659.54L1079.08,659.256L1079.15,658.972L1079.22,658.689L1079.3,658.407L1079.38,658.126L1079.46,657.846L1079.54,657.567L1079.63,657.289L1079.72,657.011L1079.81,656.735L1079.9,656.459L1080,656.185L1080.1,655.911L1080.2,655.639L1080.3,655.367L1080.4,655.097L1080.51,654.827L1080.62,654.559L1080.74,654.292L1080.85,654.026L1080.97,653.761L1081.09,653.497L1081.21,653.234L1081.33,652.972L1081.46,652.711L1081.59,652.452L1081.72,652.194L1081.85,651.937L1081.98,651.681L1082.12,651.427L1082.26,651.173L1082.4,650.921L1082.55,650.671L1082.69,650.421L1082.84,650.173L1082.99,649.926L1083.14,649.681L1083.3,649.436L1083.45,649.194L1083.61,648.952L1083.77,648.712L1083.94,648.474L1084.1,648.236L1084.27,648.001L1084.44,647.766L1084.61,647.534L1084.78,647.302L1084.96,647.072L1085.13,646.844L1085.31,646.617L1085.5,646.392L1085.68,646.168L1085.86,645.946L1086.05,645.725L1086.24,645.506L1086.43,645.289L1086.63,645.073L1086.82,644.859L1087.02,644.646L1087.22,644.435L1087.42,644.226L1087.62,644.019L1087.83,643.813L1088.03,643.609L1088.24,643.407L1088.45,643.206L1088.67,643.007L1088.88,642.81L1089.1,642.615L1089.31,642.422L1089.53,642.23L1089.76,642.041L1089.98,641.853L1090.2,641.667L1090.43,641.483L1090.65,641.306L1090.66,641.301L1090.89,641.12L1091.12,640.941L1091.36,640.765L1091.59,640.59L1091.83,640.417L1092.07,640.246L1092.31,640.078L1092.55,639.911L1092.8,639.746L1093.04,639.583L1093.29,639.423L1093.54,639.264L1093.79,639.108L1094.05,638.953L1094.3,638.801L1094.56,638.651L1094.81,638.503L1095.07,638.357L1095.33,638.214L1095.6,638.072L1095.86,637.933L1096.13,637.796L1096.39,637.661L1096.66,637.529L1096.93,637.399L1097.2,637.272L1122.27,625.607L1125.64,624.035L1125.71,624L1125.78,623.967L1125.85,623.933L1125.92,623.899L1125.98,623.864L1126.05,623.828L1126.12,623.792L1126.18,623.755L1126.25,623.717L1126.31,623.679L1126.37,623.64L1126.43,623.601L1126.5,623.561L1126.56,623.52L1126.62,623.479L1126.68,623.437L1126.74,623.394L1126.8,623.351L1126.86,623.308L1126.92,623.264L1126.98,623.219L1127.03,623.174L1127.09,623.128L1127.15,623.081L1127.2,623.034L1127.26,622.987L1127.31,622.939L1127.37,622.89L1127.42,622.841L1127.47,622.792L1127.52,622.742L1127.58,622.691L1127.63,622.64L1127.68,622.588L1127.73,622.536L1127.78,622.484L1127.83,622.431L1127.87,622.377L1127.92,622.323L1127.97,622.269L1128.02,622.214L1128.06,622.158L1128.11,622.102L1128.15,622.046L1128.19,621.989L1128.24,621.932L1128.28,621.875L1128.32,621.816L1128.36,621.758L1128.4,621.699L1128.45,621.64L1128.49,621.58L1128.52,621.52L1128.56,621.46L1128.6,621.399L1128.64,621.338L1128.67,621.276L1128.71,621.214L1128.75,621.152L1128.78,621.089L1128.81,621.026L1128.85,620.963L1128.88,620.899L1128.91,620.835L1128.94,620.771L1128.97,620.706L1129,620.641L1129.03,620.576L1129.06,620.51L1129.09,620.444L1129.12,620.378L1129.14,620.311L1129.17,620.245L1129.19,620.178L1129.22,620.11L1129.24,620.043L1129.27,619.975L1129.29,619.907L1129.31,619.839L1129.33,619.77L1129.35,619.701L1129.37,619.632L1129.39,619.563L1129.41,619.494L1129.42,619.424L1129.44,619.354L1129.46,619.284L1129.47,619.214L1129.49,619.143L1129.5,619.073L1129.51,619.002L1129.53,618.931L1129.54,618.86L1129.55,618.788L1129.56,618.717L1129.57,618.645L1129.58,618.573L1129.58,618.502L1129.59,618.43L1129.6,618.357L1129.6,618.285L1129.61,618.213L1129.61,618.14L1129.61,618.068L1129.62,617.995L1129.62,617.922L1129.62,617.849L1129.62,617.776L1129.62,617.703L1129.62,617.63L1129.62,617.556L1129.61,617.483L1129.61,617.41L1129.6,617.336L1129.6,617.262L1129.59,617.189L1129.59,617.115L1129.58,617.041L1129.57,616.968L1129.56,616.894L1129.55,616.82L1129.54,616.746L1129.53,616.672L1129.51,616.598L1129.5,616.524L1129.49,616.45L1129.47,616.376L1129.45,616.302L1129.44,616.229L1129.42,616.155L1129.4,616.082L1129.38,616.009L1129.36,615.937L1129.34,615.865L1129.32,615.793L1129.3,615.722L1129.28,615.651L1129.25,615.581L1129.23,615.511L1129.2,615.441L1129.18,615.372L1129.15,615.303L1129.12,615.235L1129.1,615.167L1129.07,615.099L1129.04,615.032L1129.01,614.965L1128.98,614.899L1128.95,614.833L1128.92,614.767L1128.88,614.702L1128.85,614.637L1128.82,614.573L1128.78,614.509L1128.75,614.445L1128.71,614.382L1128.67,614.32L1128.64,614.257L1128.6,614.196L1128.56,614.134L1128.52,614.074L1128.48,614.013L1128.44,613.953L1128.4,613.894L1128.36,613.835L1128.32,613.776L1128.28,613.718L1128.24,613.661L1128.19,613.604L1128.15,613.547L1128.1,613.491L1128.06,613.436L1128.01,613.38L1127.97,613.326L1127.92,613.272L1127.87,613.218L1127.82,613.165L1127.78,613.112L1127.73,613.06L1127.68,613.009L1127.63,612.958L1127.58,612.907L1127.52,612.858L1127.47,612.808L1127.42,612.759L1127.37,612.711L1127.32,612.663L1127.26,612.616L1127.21,612.57L1127.15,612.524L1127.1,612.478L1127.04,612.433L1126.99,612.389L1126.93,612.345L1126.87,612.302L1126.82,612.259L1126.76,612.217L1126.7,612.176L1126.64,612.135L1126.58,612.095L1126.52,612.056L1126.46,612.017L1126.4,611.978L1126.34,611.941L1126.28,611.904L1126.22,611.867L1126.16,611.831L1126.1,611.796L1126.03,611.762L1125.97,611.728L1125.91,611.695L1125.84,611.662L1125.78,611.63L1125.71,611.599L1125.65,611.568L1125.58,611.538L1125.52,611.509L1125.45,611.48L1125.39,611.452L1125.32,611.425L1125.25,611.399L1125.18,611.373L1125.12,611.348L1125.05,611.323L1124.98,611.299L1124.91,611.276L1124.85,611.254L1124.78,611.232L1124.71,611.211L1124.64,611.191L1124.57,611.172L1124.5,611.153L1124.43,611.135L1124.36,611.117L1124.29,611.101L1124.21,611.085L1124.14,611.07L1124.07,611.056L1124,611.042L1123.93,611.029L1123.86,611.017L1123.78,611.006L1123.71,610.995L1123.64,610.985L1123.56,610.976L1123.49,610.968L1123.42,610.96L1123.34,610.954L1123.27,610.948L1123.19,610.943L1123.12,610.938L1123.05,610.935L1122.97,610.932L1122.89,610.93L1122.82,610.929L1122.74,610.929L1113.44,610.942L1038.56,611.108L1004.26,611.21L1004.18,611.21L1004.11,611.212L1004.04,611.214L1003.97,611.217L1003.9,611.221L1003.83,611.225L1003.75,611.231L1003.68,611.237L1003.61,611.244L1003.54,611.251L1003.47,611.26L1003.4,611.269L1003.33,611.278L1003.26,611.289L1003.19,611.3L1003.12,611.312L1003.05,611.325L1002.98,611.338L1002.92,611.353L1002.85,611.367L1002.78,611.383L1002.71,611.399L1002.64,611.416L1002.58,611.434L1002.51,611.452L1002.44,611.471L1002.38,611.491L1002.31,611.511L1002.25,611.533L1002.18,611.554L1002.11,611.577L1002.05,611.6L1001.98,611.624L1001.92,611.648L1001.86,611.673L1001.79,611.699L1001.73,611.725L1001.67,611.753L1001.6,611.78L1001.54,611.809L1001.48,611.838L1001.42,611.867L1001.35,611.898L1001.29,611.928L1001.23,611.96L1001.17,611.992L1001.11,612.025L1001.05,612.058L1000.99,612.092L1000.93,612.127L1000.88,612.162L1000.82,612.198L1000.76,612.234L1000.7,612.271L1000.64,612.309L1000.59,612.347L1000.53,612.385L1000.48,612.425L1000.42,612.465L1000.37,612.505L1000.31,612.546L1000.26,612.588L1000.2,612.63L1000.15,612.672L1000.1,612.715L1000.05,612.759L999.993,612.804L999.942,612.848L999.891,612.894L999.84,612.94L999.79,612.986L999.741,613.033L999.691,613.08L999.643,613.128L999.595,613.177L999.547,613.226L999.5,613.275L999.454,613.325L999.408,613.375L999.362,613.426L999.317,613.478L999.273,613.53L999.229,613.582L999.185,613.635L999.142,613.688L999.1,613.742L999.058,613.796L999.017,613.851L998.977,613.906L998.936,613.962L998.897,614.018L998.858,614.074L998.82,614.131L998.782,614.188L998.745,614.246L998.708,614.304L998.672,614.363L998.636,614.422L998.602,614.481L998.567,614.541L998.534,614.601L998.501,614.662L998.468,614.723L998.436,614.785L998.405,614.847L998.375,614.909L998.345,614.972L998.316,615.035L998.287,615.098L998.259,615.162L998.232,615.226L998.205,615.291L998.179,615.356L998.154,615.421L998.129,615.487L998.105,615.553L998.081,615.619L998.059,615.686L998.037,615.753L998.015,615.821L997.995,615.889L997.975,615.957L997.956,616.026L997.937,616.095L997.919,616.164L997.902,616.234L997.886,616.304L997.87,616.374L997.855,616.445L997.841,616.515L997.828,616.586L997.815,616.656L997.804,616.727L997.793,616.797L997.783,616.867L997.773,616.938L997.765,617.008L997.757,617.078L997.75,617.148L997.744,617.218L997.738,617.288L997.733,617.358L997.729,617.428L997.726,617.498L997.724,617.568L997.722,617.637L997.721,617.707L997.721,617.777L997.721,617.846L997.723,617.915L997.725,617.984L997.727,618.054L997.731,618.123L997.735,618.191L997.74,618.26L997.746,618.329L997.752,618.397L997.759,618.466L997.767,618.534L997.775,618.602L997.785,618.67L997.795,618.738L997.805,618.805L997.817,618.873L997.829,618.94L997.841,619.007L997.855,619.074L997.869,619.141L997.884,619.208L997.899,619.274L997.915,619.34L997.932,619.406L997.95,619.472L997.968,619.538L997.987,619.603L998.007,619.668L998.027,619.733L998.048,619.798L998.069,619.862L998.092,619.927L998.115,619.991L998.138,620.054L998.162,620.118L998.187,620.181L998.213,620.244L998.239,620.307L998.266,620.369L998.293,620.431L998.321,620.493L998.35,620.554L998.379,620.615L998.409,620.676L998.44,620.737L998.471,620.797L998.503,620.857L998.536,620.916L998.569,620.976L998.602,621.035L998.637,621.093L998.672,621.151L998.707,621.209L998.743,621.267L998.78,621.324L998.818,621.38L998.855,621.437L998.894,621.493L998.933,621.548L998.973,621.603L999.013,621.658L999.054,621.712L999.095,621.766L999.137,621.82L999.18,621.873L999.223,621.925L999.267,621.978L999.311,622.029L999.356,622.081L999.401,622.132L999.447,622.182L999.494,622.232L999.541,622.281L999.588,622.33L999.636,622.379L999.685,622.427L999.734,622.475L999.784,622.522L999.834,622.568L999.885,622.614L999.936,622.66L999.988,622.705L1000.04,622.75L1000.09,622.794L1000.15,622.837L1000.2,622.88L1000.25,622.923L1000.31,622.965L1000.37,623.006L1000.42,623.047L1000.48,623.087L1000.53,623.127L1000.59,623.166L1000.65,623.205L1000.71,623.243L1000.77,623.281L1000.83,623.318L1000.89,623.354L1000.95,623.39L1001.01,623.425L1001.07,623.459L1001.13,623.493L1001.2,623.527L1001.26,623.56L1001.32,623.592L1001.39,623.623L1001.45,623.654L1001.52,623.687L1011.83,628.439L1030.02,636.816L1030.29,636.942L1030.56,637.073L1030.83,637.207L1031.11,637.343L1031.38,637.481L1031.64,637.621L1031.91,637.764L1032.18,637.909L1032.44,638.056L1032.7,638.205L1032.96,638.357L1033.22,638.51L1033.48,638.666L1033.74,638.824L1033.99,638.984L1034.24,639.147L1034.49,639.311L1034.74,639.478L1034.99,639.646L1035.23,639.817L1035.48,639.989L1035.72,640.164L1035.96,640.341L1036.2,640.519L1036.43,640.7L1036.67,640.883L1036.9,641.067L1037.13,641.254L1037.36,641.442L1037.59,641.632L1037.82,641.825L1038.04,642.019L1038.26,642.215L1038.48,642.413L1038.7,642.612L1038.92,642.814L1039.13,643.017L1039.35,643.222L1039.56,643.429L1039.77,643.638L1039.97,643.848L1040.18,644.06L1040.38,644.274L1040.58,644.49L1040.78,644.707L1040.98,644.926L1041.17,645.146L1041.37,645.368L1041.56,645.592L1041.75,645.818L1041.93,646.045L1042.12,646.273L1042.3,646.504L1042.48,646.735L1042.66,646.969L1042.84,647.203L1043.01,647.44L1043.18,647.678L1043.36,647.917L1043.52,648.158L1043.69,648.4L1043.85,648.644L1044.02,648.889L1044.18,649.135L1044.33,649.383L1044.49,649.632L1044.64,649.883L1044.79,650.135L1044.94,650.388L1045.09,650.643L1045.23,650.899L1045.38,651.156L1045.52,651.415L1045.65,651.675L1045.79,651.936L1045.92,652.198L1046.06,652.462L1046.18,652.726L1046.31,652.992L1046.43,653.259L1046.56,653.528L1046.68,653.797L1046.79,654.068L1046.91,654.339L1047.02,654.612L1047.13,654.886L1047.24,655.161L1047.34,655.437L1047.45,655.714L1047.55,655.992L1047.65,656.271L1047.74,656.551L1047.84,656.832L1047.93,657.114L1048.02,657.397L1048.1,657.681L1048.18,657.966L1048.27,658.252L1048.34,658.539L1048.42,658.826L1048.49,659.115L1048.57,659.404L1048.63,659.694L1048.7,659.985L1048.76,660.277L1048.82,660.569L1048.88,660.863L1048.94,661.157L1048.99,661.452L1049.04,661.747L1049.09,662.043L1049.14,662.34L1049.18,662.638L1049.22,662.936L1049.26,663.235L1049.29,663.535L1049.32,663.835L1049.35,664.136L1049.38,664.438L1049.4,664.74L1049.43,665.042L1049.44,665.345L1049.46,665.649L1049.47,665.953L1049.49,666.258L1049.49,666.563L1049.5,666.868L1049.5,667.169L1049.4,695.556L1049.19,764.774Z" style="fill:rgb(55,55,55);"/>
            </g>
        </g>
    </g>
    <defs>
        <linearGradient id="_Linear1" x1="0" y1="0" x2="1" y2="0" gradientUnits="userSpaceOnUse" gradientTransform="matrix(37.5,0,0,309,1063.5,454.5)"><stop offset="0" style="stop-color:rgb(117,120,124);stop-opacity:1"/><stop offset="1" style="stop-color:rgb(172,173,176);stop-opacity:1"/></linearGradient>
        <linearGradient id="_Linear2" x1="0" y1="0" x2="1" y2="0" gradientUnits="userSpaceOnUse" gradientTransform="matrix(75,0,0,309,1026,454.5)"><stop offset="0" style="stop-color:rgb(117,120,124);stop-opacity:1"/><stop offset="1" style="stop-color:rgb(172,173,176);stop-opacity:1"/></linearGradient>
    </defs>
</svg>
