<?xml version="1.0" encoding="UTF-8" standalone="no"?>
<!DOCTYPE svg PUBLIC "-//W3C//DTD SVG 1.1//EN" "http://www.w3.org/Graphics/SVG/1.1/DTD/svg11.dtd">
<svg width="100%" height="100%" viewBox="0 0 134 366" version="1.1" xmlns="http://www.w3.org/2000/svg" xmlns:xlink="http://www.w3.org/1999/xlink" xml:space="preserve" xmlns:serif="http://www.serif.com/" style="fill-rule:evenodd;clip-rule:evenodd;stroke-linejoin:round;stroke-miterlimit:1.41421;">
    <g transform="matrix(1,0,0,1,-240,-651)">
        <g>
            <g transform="matrix(1.12521,0,0,0.766996,-916.493,343.17)">
                <path d="M1075,656L1064.33,693L1070.33,868.971L1030.33,875L1036,727.854L1036,620L1048,563L1045,419L1074,424L1075,656Z" style="fill:rgb(114,96,92);"/>
                <path d="M1075.99,660.927L1075.93,660.897L1066.51,693.566L1066.51,693.565L1068.61,757.95L1072.23,868.831L1072.22,869.301L1072.16,869.761L1072.04,870.198L1071.87,870.6L1071.66,870.955L1071.42,871.254L1071.14,871.487L1070.84,871.649L1070.53,871.735L1059.5,873.366L1059.5,873.307L1030.52,877.675L1030.2,877.681L1029.89,877.608L1029.59,877.456L1029.32,877.232L1029.07,876.941L1028.86,876.593L1028.7,876.197L1028.58,875.766L1028.52,875.312L1028.51,874.849L1032.38,776.923L1034.31,727.784L1034.32,706.966L1034.34,641.21L1034.33,620L1034.35,619.634L1034.4,619.276L1043.99,573.657L1043.98,573.655L1046.3,562.661L1046.29,562.661L1044.8,493.67L1043.16,419.082L1043.18,418.62L1043.25,418.169L1043.37,417.742L1043.54,417.352L1043.76,417.01L1044.01,416.726L1044.29,416.51L1044.59,416.366L1044.9,416.3L1045.21,416.314L1074.22,421.25L1074.52,421.336L1074.8,421.491L1075.07,421.711L1075.3,421.99L1075.51,422.322L1075.67,422.697L1075.79,423.106L1075.87,423.538L1075.89,423.982L1076.13,466.645L1076.9,600.803L1077.22,655.979L1077.2,656.42L1077.14,656.853L1077.05,657.27L1075.99,660.927ZM1072.26,471.034L1072.12,426.473L1072.12,426.469L1046.9,422.121L1048.4,494.024L1048.32,494.028L1049.7,562.924L1049.68,563.334L1049.62,563.735L1047.4,574.222L1037.67,620.37L1037.67,620.37L1037.67,641.927L1037.66,641.925L1037.68,707.245L1037.69,727.924L1035.83,777.114L1032.28,871.999L1056.36,868.314L1068.35,866.476L1068.35,866.47L1064.56,755.261L1064.39,755.194L1062.18,693.158L1062.19,692.684L1062.24,692.217L1062.24,692.216L1062.35,691.766L1071.86,658.534L1072.78,655.349L1072.63,602.17L1072.26,471.034Z" style="fill:rgb(55,55,55);"/>
            </g>
            <g transform="matrix(0.766996,0,0,0.766996,-547.418,343.17)">
                <path d="M1181,405C1134.42,446.918 1086.04,461.091 1036,450L1036,540C1102.28,534.61 1149.52,551.197 1181,586C1202.52,507.564 1201.69,447.928 1181,405Z" style="fill:url(#_Linear1);"/>
                <path d="M1181.36,401.761L1181.9,401.868L1182.41,402.064L1182.89,402.343L1183.31,402.698L1183.66,403.118L1183.94,403.591L1184.18,404.102L1184.42,404.62L1184.67,405.14L1184.91,405.662L1185.14,406.185L1185.38,406.709L1185.61,407.235L1185.85,407.763L1186.08,408.292L1186.3,408.822L1186.53,409.354L1186.76,409.888L1186.98,410.423L1187.2,410.96L1187.42,411.498L1187.63,412.038L1187.85,412.579L1188.06,413.122L1188.27,413.666L1188.48,414.212L1188.69,414.759L1188.89,415.308L1189.1,415.858L1189.3,416.41L1189.5,416.963L1189.7,417.518L1189.89,418.074L1190.09,418.632L1190.28,419.192L1190.47,419.753L1190.66,420.315L1190.85,420.879L1191.03,421.445L1191.21,422.012L1191.39,422.581L1191.57,423.151L1191.75,423.722L1191.92,424.295L1192.1,424.87L1192.27,425.446L1192.44,426.024L1192.6,426.603L1192.77,427.184L1192.93,427.766L1193.09,428.35L1193.25,428.936L1193.41,429.522L1193.57,430.111L1193.72,430.701L1193.87,431.292L1194.02,431.885L1194.17,432.48L1194.32,433.076L1194.46,433.673L1194.6,434.272L1194.61,434.317L1194.74,434.873L1194.88,435.475L1195.02,436.079L1195.15,436.684L1195.29,437.291L1195.42,437.899L1195.55,438.509L1195.67,439.12L1195.8,439.733L1195.92,440.347L1196.05,440.963L1196.16,441.581L1196.28,442.2L1196.4,442.82L1196.51,443.442L1196.62,444.066L1196.73,444.691L1196.84,445.318L1196.95,445.946L1197.05,446.576L1197.15,447.207L1197.25,447.84L1197.35,448.474L1197.45,449.11L1197.54,449.748L1197.63,450.387L1197.72,451.027L1197.81,451.669L1197.9,452.313L1197.98,452.958L1198.07,453.605L1198.15,454.253L1198.23,454.903L1198.3,455.554L1198.38,456.207L1198.45,456.862L1198.52,457.518L1198.59,458.176L1198.66,458.835L1198.72,459.495L1198.79,460.158L1198.85,460.821L1198.91,461.487L1198.97,462.154L1199.02,462.822L1199.08,463.492L1199.13,464.164L1199.18,464.837L1199.22,465.512L1199.27,466.188L1199.31,466.866L1199.36,467.545L1199.39,468.226L1199.43,468.909L1199.47,469.593L1199.5,470.278L1199.54,470.966L1199.57,471.654L1199.59,472.345L1199.62,473.037L1199.64,473.73L1199.67,474.425L1199.69,475.122L1199.71,475.82L1199.72,476.52L1199.74,477.221L1199.75,477.924L1199.76,478.628L1199.77,479.334L1199.78,480.042L1199.78,480.751L1199.78,481.462L1199.79,482.174L1199.78,482.888L1199.78,483.604L1199.78,484.321L1199.77,485.039L1199.76,485.76L1199.75,486.481L1199.74,487.205L1199.72,487.93L1199.7,488.656L1199.69,489.384L1199.66,490.114L1199.64,490.846L1199.62,491.578L1199.59,492.313L1199.56,493.049L1199.53,493.787L1199.5,494.526L1199.46,495.267L1199.43,496.009L1199.39,496.753L1199.35,497.499L1199.31,498.246L1199.26,498.995L1199.22,499.746L1199.17,500.498L1199.12,501.251L1199.07,502.006L1199.01,502.763L1198.95,503.522L1198.9,504.282L1198.84,505.043L1198.78,505.807L1198.71,506.572L1198.64,507.338L1198.58,508.106L1198.51,508.876L1198.43,509.647L1198.36,510.42L1198.28,511.194L1198.21,511.971L1198.15,512.473L1198.13,512.748L1198.05,513.528L1197.96,514.309L1197.88,515.091L1197.79,515.876L1197.7,516.661L1197.61,517.449L1197.52,518.238L1197.42,519.029L1197.32,519.821L1197.22,520.615L1197.12,521.411L1197.02,522.208L1196.91,523.007L1196.81,523.807L1196.7,524.609L1196.59,525.413L1196.47,526.218L1196.36,527.025L1196.24,527.834L1196.12,528.644L1196,529.456L1195.88,530.27L1195.75,531.085L1195.62,531.902L1195.49,532.72L1195.36,533.54L1195.23,534.362L1195.09,535.185L1194.96,536.01L1194.82,536.837L1194.68,537.665L1194.53,538.495L1194.39,539.326L1194.24,540.16L1194.09,540.994L1193.94,541.831L1193.79,542.669L1193.63,543.509L1193.47,544.35L1193.31,545.193L1193.15,546.038L1192.99,546.884L1192.82,547.733L1192.66,548.582L1192.49,549.434L1192.32,550.287L1192.14,551.141L1191.97,551.998L1191.79,552.856L1191.61,553.715L1191.43,554.576L1191.24,555.439L1191.06,556.304L1190.87,557.17L1190.68,558.038L1190.49,558.908L1190.3,559.779L1190.1,560.652L1189.9,561.527L1189.7,562.403L1189.5,563.281L1189.3,564.16L1189.09,565.042L1188.88,565.925L1188.67,566.809L1188.46,567.696L1188.25,568.584L1188.03,569.473L1187.81,570.365L1187.59,571.258L1187.37,572.152L1187.14,573.049L1186.92,573.947L1186.69,574.846L1186.46,575.748L1186.23,576.651L1185.99,577.556L1185.76,578.462L1185.52,579.37L1185.28,580.28L1185.04,581.191L1184.79,582.105L1184.54,583.019L1184.3,583.936L1184.04,584.854L1183.79,585.774L1183.54,586.694L1183.39,587.1L1183.18,587.476L1182.91,587.813L1182.58,588.1L1182.22,588.331L1181.82,588.499L1181.4,588.6L1180.97,588.63L1180.54,588.59L1180.12,588.479L1179.73,588.302L1179.37,588.063L1179.05,587.768L1178.69,587.364L1178.33,586.965L1177.96,586.568L1177.6,586.173L1177.23,585.779L1176.86,585.387L1176.49,584.997L1176.12,584.608L1175.75,584.221L1175.37,583.835L1175,583.451L1174.62,583.069L1174.24,582.689L1173.86,582.31L1173.48,581.933L1173.1,581.557L1172.71,581.183L1172.33,580.811L1171.94,580.44L1171.55,580.071L1171.16,579.704L1170.77,579.338L1170.38,578.975L1169.98,578.612L1169.59,578.252L1169.19,577.893L1168.79,577.535L1168.39,577.18L1167.99,576.826L1167.59,576.474L1167.18,576.123L1166.78,575.774L1166.37,575.427L1165.96,575.081L1165.55,574.738L1165.14,574.395L1164.73,574.055L1164.31,573.716L1164.31,573.715L1163.9,573.379L1163.48,573.044L1163.06,572.711L1162.64,572.379L1162.22,572.049L1161.79,571.72L1161.37,571.394L1160.94,571.069L1160.51,570.745L1160.08,570.424L1159.65,570.104L1159.22,569.786L1158.79,569.469L1158.35,569.154L1157.91,568.841L1157.48,568.53L1157.04,568.22L1156.59,567.912L1156.15,567.606L1155.71,567.301L1155.26,566.998L1154.81,566.697L1154.37,566.397L1153.91,566.1L1153.46,565.803L1153.01,565.509L1152.55,565.216L1152.1,564.925L1151.64,564.636L1151.18,564.348L1150.72,564.063L1150.26,563.778L1149.79,563.496L1149.33,563.215L1148.86,562.936L1148.39,562.659L1147.92,562.384L1147.45,562.11L1146.98,561.838L1146.5,561.567L1146.03,561.299L1145.55,561.032L1145.07,560.766L1144.59,560.503L1144.11,560.241L1143.62,559.981L1143.14,559.723L1142.65,559.466L1142.16,559.212L1141.67,558.959L1141.18,558.707L1140.69,558.458L1140.19,558.21L1139.7,557.964L1139.2,557.719L1138.7,557.477L1138.2,557.236L1137.7,556.997L1137.19,556.759L1136.69,556.524L1136.18,556.29L1135.67,556.058L1135.16,555.827L1134.65,555.599L1134.13,555.372L1133.62,555.147L1133.1,554.923L1132.59,554.702L1132.07,554.482L1131.54,554.264L1131.02,554.047L1130.5,553.833L1129.97,553.62L1129.44,553.409L1128.91,553.2L1128.38,552.992L1127.85,552.787L1127.32,552.583L1126.78,552.381L1126.24,552.18L1125.71,551.982L1125.16,551.785L1124.68,551.612L1124.62,551.59L1124.08,551.398L1123.53,551.207L1122.99,551.018L1122.44,550.83L1121.89,550.645L1121.34,550.461L1120.78,550.28L1120.23,550.1L1119.67,549.921L1119.11,549.745L1118.55,549.57L1117.99,549.397L1117.43,549.226L1116.87,549.057L1116.3,548.89L1115.73,548.724L1115.16,548.56L1114.59,548.398L1114.02,548.238L1113.44,548.08L1112.87,547.923L1112.29,547.768L1111.71,547.615L1111.13,547.464L1110.55,547.315L1109.96,547.168L1109.38,547.022L1108.79,546.878L1108.2,546.736L1107.61,546.596L1107.02,546.458L1106.42,546.321L1105.83,546.187L1105.23,546.054L1104.63,545.923L1104.03,545.794L1103.43,545.667L1102.83,545.541L1102.22,545.418L1101.61,545.296L1101,545.176L1100.39,545.058L1099.78,544.942L1099.17,544.828L1098.55,544.715L1097.93,544.605L1097.32,544.496L1096.69,544.389L1096.07,544.284L1095.45,544.181L1094.82,544.079L1094.2,543.98L1093.57,543.882L1092.94,543.787L1092.31,543.693L1091.67,543.601L1091.04,543.511L1090.4,543.423L1089.76,543.336L1089.12,543.252L1088.48,543.169L1087.83,543.089L1087.19,543.01L1086.54,542.933L1085.89,542.858L1085.46,542.81L1085.24,542.785L1084.59,542.715L1083.93,542.647L1083.28,542.58L1082.62,542.515L1081.96,542.453L1081.3,542.392L1080.64,542.333L1079.97,542.276L1079.31,542.221L1078.64,542.168L1077.97,542.117L1077.3,542.067L1076.63,542.02L1075.95,541.974L1075.28,541.931L1074.6,541.889L1073.92,541.849L1073.24,541.812L1072.55,541.776L1071.87,541.742L1071.18,541.71L1070.49,541.679L1069.8,541.651L1069.11,541.625L1068.42,541.601L1067.72,541.578L1067.03,541.558L1066.33,541.539L1065.63,541.523L1064.93,541.508L1064.22,541.495L1063.52,541.484L1062.81,541.476L1062.1,541.469L1061.39,541.464L1060.68,541.461L1059.97,541.46L1059.25,541.46L1058.53,541.463L1057.81,541.468L1057.09,541.475L1056.37,541.484L1055.65,541.494L1054.92,541.507L1054.19,541.522L1053.46,541.538L1052.73,541.557L1052,541.577L1051.26,541.6L1050.53,541.624L1049.79,541.65L1049.05,541.679L1048.31,541.709L1047.56,541.742L1047.54,541.743L1046.82,541.777L1046.07,541.814L1045.32,541.853L1044.57,541.894L1043.82,541.937L1043.07,541.982L1042.31,542.029L1041.55,542.078L1040.79,542.129L1040.03,542.182L1039.27,542.236L1038.51,542.293L1037.74,542.352L1036.97,542.413L1036.2,542.476L1035.79,542.475L1035.79,542.476L1035.38,542.408L1035,542.275L1034.64,542.079L1034.31,541.827L1034.04,541.526L1033.81,541.182L1033.65,540.807L1033.55,540.409L1033.51,540L1033.47,512.404L1033.32,450L1033.35,449.566L1033.45,449.143L1033.63,448.742L1033.86,448.374L1034.15,448.049L1034.49,447.775L1034.87,447.559L1035.28,447.408L1035.71,447.325L1036.14,447.312L1036.58,447.37L1037.16,447.496L1037.74,447.619L1038.31,447.74L1038.89,447.858L1039.46,447.974L1040.04,448.088L1040.62,448.199L1041.19,448.308L1041.77,448.415L1042.34,448.52L1042.92,448.622L1043.49,448.722L1044.07,448.82L1044.64,448.915L1045.21,449.008L1045.79,449.099L1046.36,449.187L1046.94,449.274L1047.51,449.358L1048.08,449.439L1048.66,449.519L1049.23,449.596L1049.8,449.67L1050.37,449.743L1050.95,449.813L1051.52,449.881L1052.09,449.947L1052.66,450.01L1053.23,450.071L1053.8,450.129L1054.38,450.186L1054.95,450.24L1055.52,450.292L1056.09,450.341L1056.66,450.388L1057.15,450.427L1057.23,450.433L1057.8,450.475L1058.37,450.515L1058.94,450.552L1059.51,450.588L1060.08,450.62L1060.64,450.651L1061.21,450.679L1061.78,450.705L1062.35,450.729L1062.92,450.75L1063.49,450.769L1064.06,450.786L1064.62,450.8L1065.19,450.812L1065.76,450.822L1066.33,450.829L1066.89,450.835L1067.46,450.837L1068.03,450.838L1068.59,450.836L1069.16,450.832L1069.72,450.826L1070.29,450.817L1070.86,450.806L1071.42,450.792L1071.99,450.777L1072.55,450.759L1073.12,450.738L1073.68,450.716L1074.25,450.691L1074.81,450.663L1075.38,450.634L1075.94,450.602L1076.5,450.567L1077.07,450.531L1077.63,450.492L1078.19,450.451L1078.76,450.407L1079.32,450.361L1079.88,450.313L1080.45,450.262L1081.01,450.209L1081.57,450.154L1082.13,450.097L1082.7,450.037L1083.26,449.974L1083.82,449.91L1084.38,449.843L1084.94,449.774L1085.51,449.702L1086.07,449.628L1086.63,449.552L1087.19,449.473L1087.75,449.392L1088.31,449.309L1088.87,449.223L1089.43,449.135L1089.99,449.045L1090.55,448.952L1091.11,448.857L1091.67,448.76L1092.23,448.66L1092.79,448.558L1093.35,448.454L1093.9,448.347L1094.46,448.238L1095.02,448.126L1095.58,448.012L1096.14,447.896L1096.7,447.777L1097.26,447.657L1097.81,447.533L1098.37,447.408L1098.93,447.28L1099.49,447.149L1100.04,447.016L1100.6,446.881L1101.16,446.744L1101.71,446.604L1102.27,446.462L1102.83,446.317L1103.38,446.17L1103.94,446.021L1104.49,445.869L1105.05,445.715L1105.61,445.559L1106.16,445.4L1106.72,445.239L1107.27,445.075L1107.83,444.909L1108.38,444.741L1108.94,444.57L1109.49,444.397L1110.05,444.221L1110.6,444.044L1111.15,443.863L1111.71,443.681L1112.26,443.496L1112.82,443.308L1113.37,443.118L1113.92,442.926L1114.48,442.731L1115.03,442.534L1115.58,442.335L1116.14,442.133L1116.69,441.929L1117.24,441.722L1117.79,441.513L1118.35,441.302L1118.9,441.088L1119.45,440.872L1120,440.653L1120.56,440.432L1121.11,440.209L1121.66,439.983L1122.21,439.755L1122.76,439.524L1123.31,439.291L1123.86,439.055L1124.41,438.817L1124.96,438.577L1125.52,438.334L1126.07,438.089L1126.62,437.841L1127.17,437.591L1127.72,437.339L1128.27,437.084L1128.82,436.827L1129.37,436.567L1129.69,436.414L1129.92,436.305L1130.46,436.04L1131.02,435.772L1131.56,435.503L1132.11,435.23L1132.66,434.956L1133.21,434.679L1133.76,434.399L1134.31,434.117L1134.86,433.833L1135.4,433.546L1135.95,433.257L1136.5,432.965L1137.05,432.671L1137.59,432.374L1138.14,432.075L1138.69,431.774L1139.24,431.47L1139.78,431.164L1140.33,430.855L1140.88,430.543L1141.42,430.23L1141.97,429.913L1142.52,429.595L1143.06,429.274L1143.61,428.95L1144.15,428.624L1144.7,428.295L1145.25,427.964L1145.79,427.631L1146.34,427.295L1146.88,426.957L1147.43,426.616L1147.97,426.272L1148.52,425.927L1149.06,425.578L1149.61,425.228L1150.15,424.874L1150.7,424.519L1151.24,424.16L1151.79,423.8L1152.33,423.437L1152.87,423.071L1153.42,422.703L1153.96,422.332L1154.5,421.959L1155.05,421.584L1155.59,421.205L1156.13,420.825L1156.68,420.442L1157.22,420.056L1157.76,419.668L1158.3,419.278L1158.85,418.885L1159.39,418.489L1159.93,418.091L1160.47,417.691L1161.01,417.288L1161.56,416.882L1162.1,416.474L1162.64,416.064L1163.18,415.651L1163.72,415.235L1164.26,414.817L1164.8,414.396L1165.35,413.973L1165.88,413.548L1166.43,413.12L1166.97,412.689L1167.51,412.256L1168.05,411.82L1168.59,411.382L1169.13,410.941L1169.67,410.498L1170.2,410.053L1170.75,409.604L1171.28,409.154L1171.82,408.7L1172.36,408.244L1172.9,407.786L1173.44,407.325L1173.98,406.862L1174.52,406.396L1175.06,405.927L1175.59,405.456L1176.13,404.983L1176.67,404.507L1177.08,404.144L1177.21,404.028L1177.75,403.547L1178.28,403.063L1178.82,402.574L1179.26,402.243L1179.75,401.99L1180.27,401.823L1180.82,401.746L1181.36,401.761ZM1179.85,410.347L1179.3,410.825L1178.74,411.301L1178.18,411.775L1177.63,412.246L1177.07,412.714L1176.51,413.18L1175.96,413.643L1175.4,414.104L1174.84,414.562L1174.29,415.018L1173.73,415.471L1173.17,415.921L1172.61,416.369L1172.05,416.815L1171.5,417.258L1170.94,417.699L1170.38,418.137L1169.82,418.572L1169.26,419.005L1168.7,419.435L1168.14,419.863L1167.58,420.289L1167.02,420.711L1166.46,421.132L1165.9,421.55L1165.34,421.965L1164.78,422.378L1164.22,422.788L1163.66,423.195L1163.1,423.601L1162.54,424.003L1161.97,424.404L1161.41,424.801L1160.85,425.196L1160.29,425.589L1159.73,425.979L1159.16,426.367L1158.6,426.752L1158.04,427.134L1157.47,427.514L1156.91,427.892L1156.35,428.267L1155.78,428.639L1155.22,429.009L1154.66,429.377L1154.09,429.742L1153.53,430.104L1152.96,430.464L1152.4,430.822L1151.83,431.177L1151.27,431.529L1150.7,431.879L1150.14,432.226L1149.57,432.571L1149,432.914L1148.44,433.254L1147.87,433.591L1147.3,433.926L1146.74,434.258L1146.17,434.588L1145.6,434.916L1145.04,435.241L1144.47,435.563L1143.9,435.883L1143.33,436.2L1142.77,436.515L1142.2,436.828L1141.63,437.137L1141.06,437.445L1140.49,437.75L1139.92,438.052L1139.35,438.352L1138.78,438.649L1138.21,438.944L1137.64,439.237L1137.07,439.527L1136.5,439.814L1135.93,440.099L1135.36,440.382L1134.79,440.662L1134.22,440.939L1133.65,441.214L1133.08,441.486L1132.51,441.756L1132.27,441.868L1131.93,442.024L1131.36,442.289L1130.79,442.552L1130.22,442.813L1129.64,443.07L1129.07,443.326L1128.5,443.579L1127.93,443.829L1127.35,444.077L1126.78,444.322L1126.21,444.565L1125.63,444.805L1125.06,445.043L1124.49,445.279L1123.91,445.512L1123.34,445.742L1122.76,445.97L1122.19,446.196L1121.61,446.419L1121.04,446.64L1120.46,446.858L1119.89,447.073L1119.31,447.286L1118.74,447.497L1118.16,447.705L1117.58,447.911L1117.01,448.114L1116.43,448.315L1115.85,448.513L1115.28,448.709L1114.7,448.902L1114.12,449.093L1113.55,449.282L1112.97,449.467L1112.39,449.651L1111.81,449.832L1111.23,450.01L1110.65,450.186L1110.08,450.36L1109.5,450.531L1108.92,450.7L1108.34,450.866L1107.76,451.03L1107.18,451.191L1106.6,451.35L1106.02,451.506L1105.44,451.66L1104.86,451.811L1104.28,451.96L1103.7,452.106L1103.12,452.25L1102.54,452.392L1101.96,452.531L1101.38,452.668L1100.8,452.802L1100.22,452.933L1099.63,453.063L1099.05,453.189L1098.47,453.314L1097.89,453.436L1097.31,453.555L1096.73,453.672L1096.14,453.786L1095.56,453.898L1094.98,454.008L1094.39,454.115L1093.81,454.22L1093.23,454.322L1092.64,454.422L1092.06,454.519L1091.48,454.614L1090.89,454.707L1090.31,454.797L1089.73,454.884L1089.14,454.969L1088.56,455.052L1087.97,455.132L1087.39,455.21L1086.8,455.285L1086.22,455.358L1085.63,455.429L1085.05,455.497L1084.46,455.562L1083.88,455.625L1083.29,455.686L1082.7,455.744L1082.12,455.8L1081.53,455.854L1080.95,455.905L1080.36,455.953L1079.77,455.999L1079.19,456.043L1078.6,456.084L1078.01,456.123L1077.42,456.16L1076.84,456.194L1076.25,456.225L1075.66,456.254L1075.08,456.281L1074.49,456.305L1073.9,456.327L1073.31,456.347L1072.72,456.364L1072.13,456.378L1071.55,456.39L1070.96,456.4L1070.37,456.408L1069.78,456.413L1069.19,456.415L1068.6,456.415L1068.01,456.413L1067.42,456.408L1066.83,456.401L1066.24,456.392L1065.65,456.38L1065.06,456.366L1064.47,456.349L1063.88,456.33L1063.29,456.308L1062.7,456.284L1062.11,456.258L1061.52,456.229L1060.93,456.198L1060.34,456.165L1059.75,456.129L1059.16,456.09L1058.57,456.05L1057.98,456.007L1057.38,455.961L1056.79,455.913L1056.72,455.907L1056.2,455.864L1055.61,455.812L1055.02,455.757L1054.42,455.7L1053.83,455.641L1053.24,455.579L1052.65,455.515L1052.06,455.449L1051.46,455.38L1050.87,455.309L1050.28,455.235L1049.68,455.159L1049.09,455.081L1048.5,455L1047.9,454.917L1047.31,454.832L1046.72,454.744L1046.12,454.654L1045.53,454.562L1044.93,454.467L1044.34,454.37L1043.75,454.27L1043.15,454.168L1042.56,454.064L1041.96,453.957L1041.37,453.848L1040.78,453.737L1040.18,453.623L1039.59,453.507L1038.99,453.389L1038.68,453.325L1038.53,510.048L1038.49,510.048L1038.48,537.321L1038.92,537.29L1039.69,537.237L1040.46,537.186L1041.24,537.137L1042.01,537.089L1042.77,537.044L1043.54,537.001L1044.3,536.96L1045.07,536.92L1045.83,536.883L1046.59,536.848L1047.32,536.816L1047.35,536.815L1048.1,536.783L1048.86,536.753L1049.61,536.725L1050.36,536.699L1051.11,536.675L1051.86,536.653L1052.6,536.633L1053.35,536.615L1054.09,536.599L1054.83,536.585L1055.57,536.573L1056.31,536.563L1057.04,536.556L1057.78,536.55L1058.51,536.546L1059.24,536.544L1059.97,536.544L1060.7,536.546L1061.42,536.55L1062.15,536.555L1062.87,536.563L1063.59,536.573L1064.31,536.585L1065.03,536.599L1065.74,536.615L1066.46,536.633L1067.17,536.653L1067.88,536.674L1068.59,536.698L1069.3,536.724L1070,536.752L1070.7,536.781L1071.41,536.813L1072.11,536.846L1072.81,536.882L1073.5,536.92L1074.2,536.959L1074.89,537.001L1075.59,537.044L1076.28,537.089L1076.97,537.137L1077.65,537.186L1078.34,537.237L1079.02,537.291L1079.7,537.346L1080.39,537.403L1081.07,537.462L1081.74,537.523L1082.42,537.586L1083.09,537.651L1083.77,537.718L1084.44,537.787L1085.11,537.858L1085.77,537.93L1086,537.956L1086.44,538.004L1087.1,538.08L1087.77,538.158L1088.43,538.237L1089.09,538.319L1089.75,538.402L1090.4,538.488L1091.06,538.575L1091.71,538.664L1092.36,538.755L1093.01,538.848L1093.66,538.943L1094.31,539.041L1094.95,539.139L1095.59,539.24L1096.24,539.343L1096.88,539.448L1097.52,539.555L1098.15,539.663L1098.79,539.774L1099.42,539.886L1100.05,540L1100.68,540.117L1101.31,540.235L1101.94,540.355L1102.57,540.477L1103.19,540.601L1103.81,540.727L1104.43,540.855L1105.05,540.985L1105.67,541.116L1106.29,541.25L1106.9,541.385L1107.51,541.523L1108.12,541.662L1108.73,541.803L1109.34,541.946L1109.95,542.091L1110.55,542.238L1111.16,542.387L1111.76,542.538L1112.36,542.691L1112.96,542.845L1113.55,543.002L1114.15,543.16L1114.74,543.32L1115.33,543.482L1115.92,543.646L1116.51,543.812L1117.1,543.98L1117.69,544.15L1118.27,544.321L1118.85,544.495L1119.43,544.67L1120.01,544.848L1120.59,545.027L1121.17,545.208L1121.74,545.391L1122.32,545.576L1122.89,545.762L1123.46,545.951L1124.03,546.142L1124.59,546.334L1125.16,546.528L1125.72,546.724L1126.28,546.922L1126.35,546.945L1126.84,547.122L1127.4,547.323L1127.96,547.526L1128.52,547.73L1129.07,547.937L1129.62,548.146L1130.17,548.356L1130.72,548.569L1131.27,548.783L1131.82,548.999L1132.36,549.217L1132.91,549.437L1133.45,549.658L1133.99,549.882L1134.53,550.107L1135.07,550.334L1135.6,550.564L1136.13,550.795L1136.67,551.027L1137.2,551.262L1137.73,551.499L1138.26,551.737L1138.78,551.977L1139.31,552.219L1139.83,552.463L1140.35,552.709L1140.87,552.956L1141.39,553.206L1141.91,553.457L1142.42,553.71L1142.94,553.965L1143.45,554.222L1143.96,554.481L1144.47,554.741L1144.98,555.003L1145.48,555.268L1145.99,555.534L1146.49,555.801L1146.99,556.071L1147.49,556.342L1147.99,556.616L1148.49,556.891L1148.99,557.168L1149.48,557.446L1149.97,557.727L1150.46,558.009L1150.95,558.294L1151.44,558.58L1151.92,558.867L1152.41,559.157L1152.89,559.448L1153.37,559.742L1153.86,560.037L1154.33,560.334L1154.81,560.632L1155.29,560.933L1155.76,561.235L1156.23,561.539L1156.7,561.845L1157.17,562.153L1157.64,562.462L1158.11,562.773L1158.57,563.086L1159.03,563.401L1159.5,563.718L1159.96,564.036L1160.41,564.356L1160.87,564.678L1161.33,565.002L1161.78,565.328L1162.23,565.655L1162.68,565.984L1163.13,566.315L1163.58,566.647L1164.03,566.982L1164.47,567.318L1164.92,567.656L1165.36,567.996L1165.8,568.337L1166.24,568.68L1166.68,569.025L1167.11,569.372L1167.55,569.72L1167.98,570.07L1168.41,570.422L1168.84,570.775L1169.27,571.13L1169.7,571.487L1170.12,571.846L1170.55,572.206L1170.97,572.568L1171.39,572.932L1171.81,573.298L1172.23,573.665L1172.64,574.034L1173.06,574.405L1173.47,574.778L1173.88,575.152L1174.3,575.528L1174.7,575.906L1175.11,576.285L1175.52,576.667L1175.92,577.05L1176.33,577.434L1176.73,577.821L1177.13,578.209L1177.53,578.599L1177.92,578.99L1178.32,579.383L1178.71,579.778L1179.11,580.175L1179.5,580.573L1179.68,580.758L1179.68,580.747L1179.92,579.84L1180.15,578.936L1180.38,578.033L1180.62,577.132L1180.85,576.233L1181.07,575.335L1181.3,574.44L1181.52,573.545L1181.74,572.653L1181.96,571.763L1182.18,570.874L1182.39,569.987L1182.6,569.101L1182.81,568.218L1183.02,567.336L1183.23,566.456L1183.43,565.577L1183.64,564.701L1183.84,563.826L1184.04,562.953L1184.23,562.081L1184.43,561.211L1184.62,560.343L1184.81,559.477L1185,558.613L1185.19,557.75L1185.37,556.889L1185.55,556.03L1185.73,555.172L1185.91,554.316L1186.09,553.462L1186.26,552.61L1186.44,551.759L1186.61,550.91L1186.78,550.063L1186.94,549.217L1187.11,548.373L1187.27,547.531L1187.43,546.691L1187.59,545.852L1187.74,545.016L1187.9,544.18L1188.05,543.347L1188.2,542.515L1188.35,541.685L1188.5,540.857L1188.64,540.03L1188.78,539.206L1188.92,538.382L1189.06,537.561L1189.2,536.741L1189.33,535.923L1189.47,535.107L1189.6,534.293L1189.73,533.48L1189.85,532.669L1189.98,531.859L1190.1,531.052L1190.22,530.246L1190.34,529.441L1190.46,528.639L1190.57,527.838L1190.68,527.039L1190.8,526.241L1190.9,525.446L1191.01,524.652L1191.12,523.859L1191.22,523.069L1191.32,522.28L1191.42,521.493L1191.52,520.707L1191.61,519.923L1191.7,519.141L1191.8,518.361L1191.88,517.582L1191.97,516.805L1192.06,516.03L1192.14,515.256L1192.22,514.484L1192.3,513.714L1192.38,512.946L1192.45,512.179L1192.48,511.908L1192.53,511.414L1192.6,510.65L1192.67,509.889L1192.74,509.129L1192.8,508.37L1192.87,507.614L1192.93,506.859L1192.99,506.105L1193.04,505.354L1193.1,504.604L1193.15,503.856L1193.2,503.109L1193.25,502.364L1193.3,501.621L1193.35,500.88L1193.39,500.14L1193.43,499.402L1193.47,498.666L1193.51,497.931L1193.55,497.198L1193.58,496.467L1193.62,495.737L1193.64,495.009L1193.67,494.283L1193.7,493.559L1193.73,492.836L1193.75,492.115L1193.77,491.395L1193.79,490.677L1193.81,489.961L1193.82,489.247L1193.83,488.534L1193.84,487.823L1193.85,487.114L1193.86,486.406L1193.87,485.7L1193.87,484.995L1193.87,484.293L1193.87,483.592L1193.87,482.892L1193.87,482.195L1193.86,481.499L1193.85,480.804L1193.84,480.112L1193.83,479.421L1193.82,478.731L1193.8,478.044L1193.78,477.358L1193.77,476.673L1193.74,475.991L1193.72,475.31L1193.7,474.63L1193.67,473.953L1193.64,473.277L1193.61,472.602L1193.58,471.93L1193.54,471.259L1193.51,470.589L1193.47,469.922L1193.43,469.256L1193.39,468.591L1193.34,467.929L1193.3,467.268L1193.25,466.608L1193.2,465.95L1193.15,465.294L1193.1,464.64L1193.04,463.987L1192.99,463.336L1192.93,462.687L1192.87,462.039L1192.8,461.393L1192.74,460.748L1192.67,460.105L1192.61,459.464L1192.54,458.825L1192.46,458.187L1192.39,457.55L1192.31,456.916L1192.24,456.283L1192.16,455.651L1192.08,455.022L1191.99,454.394L1191.91,453.767L1191.82,453.142L1191.73,452.519L1191.64,451.898L1191.55,451.278L1191.46,450.66L1191.36,450.043L1191.26,449.428L1191.16,448.815L1191.06,448.203L1190.96,447.593L1190.86,446.985L1190.75,446.378L1190.64,445.773L1190.53,445.169L1190.42,444.567L1190.3,443.967L1190.19,443.368L1190.07,442.771L1189.95,442.176L1189.83,441.582L1189.7,440.99L1189.58,440.399L1189.45,439.81L1189.32,439.223L1189.19,438.637L1189.06,438.053L1188.93,437.471L1188.79,436.89L1188.65,436.311L1188.52,435.776L1188.51,435.733L1188.37,435.157L1188.23,434.583L1188.08,434.01L1187.93,433.439L1187.79,432.869L1187.63,432.301L1187.48,431.735L1187.33,431.17L1187.17,430.607L1187.01,430.046L1186.86,429.486L1186.69,428.928L1186.53,428.371L1186.37,427.816L1186.2,427.262L1186.03,426.71L1185.86,426.16L1185.69,425.611L1185.51,425.064L1185.34,424.518L1185.16,423.974L1184.98,423.432L1184.8,422.891L1184.62,422.352L1184.43,421.814L1184.24,421.278L1184.06,420.744L1183.87,420.211L1183.67,419.68L1183.48,419.15L1183.28,418.622L1183.09,418.095L1182.89,417.57L1182.69,417.047L1182.48,416.525L1182.28,416.004L1182.07,415.486L1181.87,414.969L1181.66,414.453L1181.44,413.939L1181.23,413.426L1181.02,412.916L1180.8,412.406L1180.58,411.898L1180.36,411.392L1180.14,410.887L1179.92,410.384L1179.89,410.316L1179.85,410.347Z" style="fill:rgb(55,55,55);"/>
            </g>
            <path d="M349.417,661.42C352.423,659.029 355.418,656.491 358.405,653.804C374.27,686.729 374.906,732.469 358.405,792.63C357.614,791.755 356.81,790.896 355.993,790.052C362.692,736.996 360.248,694.408 349.417,661.42Z" style="fill:rgb(189,189,189);"/>
            <path d="M358.676,651.393L359.077,651.473L359.458,651.619L359.81,651.827L360.121,652.091L360.384,652.403L360.591,652.755L360.777,653.147L360.962,653.545L361.147,653.944L361.329,654.344L361.511,654.745L361.69,655.148L361.869,655.551L362.046,655.956L362.221,656.362L362.395,656.769L362.568,657.177L362.739,657.586L362.909,657.997L363.077,658.408L363.244,658.821L363.409,659.235L363.573,659.65L363.735,660.067L363.896,660.484L364.055,660.903L364.213,661.323L364.37,661.743L364.525,662.166L364.679,662.589L364.831,663.013L364.981,663.439L365.13,663.865L365.278,664.293L365.424,664.722L365.569,665.153L365.713,665.584L365.854,666.017L365.995,666.45L366.134,666.885L366.271,667.321L366.407,667.758L366.542,668.197L366.675,668.636L366.806,669.077L366.937,669.519L366.979,669.666L367.065,669.962L367.193,670.406L367.319,670.851L367.443,671.297L367.567,671.745L367.688,672.194L367.808,672.643L367.927,673.095L368.044,673.547L368.16,674L368.274,674.455L368.387,674.91L368.498,675.367L368.608,675.825L368.716,676.285L368.823,676.745L368.929,677.207L369.033,677.669L369.135,678.133L369.236,678.598L369.335,679.065L369.434,679.532L369.53,680.001L369.625,680.471L369.719,680.942L369.811,681.414L369.901,681.887L369.991,682.361L370.078,682.837L370.164,683.314L370.249,683.792L370.332,684.271L370.414,684.751L370.494,685.233L370.573,685.716L370.65,686.2L370.726,686.685L370.8,687.171L370.873,687.658L370.945,688.147L371.014,688.637L371.083,689.128L371.15,689.62L371.215,690.113L371.279,690.608L371.342,691.103L371.402,691.6L371.462,692.098L371.52,692.597L371.576,693.098L371.631,693.599L371.685,694.102L371.737,694.606L371.787,695.111L371.836,695.618L371.884,696.125L371.93,696.634L371.975,697.144L372.018,697.655L372.059,698.167L372.099,698.681L372.138,699.195L372.175,699.711L372.211,700.228L372.245,700.747L372.277,701.266L372.309,701.787L372.338,702.308L372.366,702.831L372.393,703.356L372.418,703.881L372.442,704.408L372.464,704.935L372.484,705.464L372.504,705.995L372.521,706.526L372.527,706.729L372.538,707.059L372.553,707.592L372.567,708.127L372.58,708.664L372.59,709.201L372.6,709.74L372.608,710.279L372.614,710.82L372.619,711.363L372.622,711.906L372.624,712.451L372.625,712.996L372.623,713.544L372.621,714.092L372.617,714.641L372.611,715.192L372.604,715.744L372.595,716.297L372.585,716.851L372.573,717.407L372.56,717.964L372.546,718.522L372.529,719.081L372.512,719.641L372.493,720.203L372.472,720.766L372.45,721.33L372.426,721.895L372.401,722.462L372.374,723.029L372.346,723.598L372.316,724.169L372.285,724.74L372.252,725.313L372.218,725.886L372.182,726.461L372.144,727.038L372.106,727.615L372.065,728.194L372.023,728.774L371.98,729.355L371.935,729.938L371.889,730.521L371.841,731.106L371.791,731.692L371.74,732.28L371.688,732.868L371.634,733.458L371.578,734.049L371.521,734.642L371.463,735.235L371.402,735.83L371.341,736.426L371.278,737.023L371.213,737.622L371.147,738.221L371.079,738.822L371.01,739.425L370.939,740.028L370.867,740.633L370.793,741.239L370.718,741.846L370.641,742.454L370.562,743.064L370.482,743.675L370.401,744.287L370.318,744.9L370.233,745.515L370.147,746.131L370.06,746.748L370.041,746.879L369.971,747.367L369.882,747.986L369.791,748.608L369.698,749.23L369.604,749.853L369.508,750.478L369.41,751.104L369.312,751.732L369.211,752.36L369.109,752.99L369.006,753.621L368.901,754.254L368.794,754.887L368.686,755.522L368.577,756.158L368.465,756.796L368.353,757.434L368.238,758.074L368.123,758.715L368.005,759.358L367.886,760.002L367.766,760.647L367.644,761.293L367.521,761.941L367.396,762.589L367.269,763.239L367.141,763.891L367.011,764.543L366.88,765.197L366.747,765.853L366.652,766.317L366.613,766.509L366.478,767.167L366.342,767.826L366.204,768.487L366.065,769.149L365.924,769.812L365.781,770.476L365.637,771.142L365.491,771.809L365.344,772.477L365.195,773.146L365.045,773.817L364.893,774.489L364.739,775.162L364.584,775.837L364.428,776.513L364.27,777.19L364.11,777.869L363.949,778.548L363.786,779.229L363.622,779.912L363.456,780.595L363.288,781.28L363.119,781.967L362.949,782.654L362.777,783.343L362.603,784.033L362.472,784.551L362.428,784.725L362.253,785.418L362.076,786.112L361.898,786.808L361.718,787.505L361.536,788.203L361.353,788.903L361.169,789.604L360.983,790.306L360.795,791.01L360.606,791.715L360.415,792.421L360.222,793.127L360.117,793.418L359.965,793.687L359.77,793.929L359.54,794.135L359.278,794.3L358.993,794.421L358.692,794.493L358.383,794.515L358.075,794.486L357.776,794.407L357.493,794.28L357.235,794.109L357.009,793.897L356.714,793.573L356.421,793.254L356.126,792.935L355.83,792.619L355.533,792.303L355.235,791.989L354.935,791.677L354.632,791.363L354.453,791.147L354.308,790.907L354.199,790.648L354.131,790.376L354.103,790.097L354.117,789.817L354.271,788.577L354.421,787.344L354.567,786.114L354.71,784.888L354.85,783.666L354.987,782.448L354.99,782.418L355.118,781.233L355.245,780.022L355.37,778.816L355.491,777.613L355.608,776.413L355.723,775.218L355.834,774.027L355.942,772.839L356.046,771.655L356.147,770.475L356.245,769.299L356.34,768.127L356.431,766.959L356.519,765.794L356.562,765.213L356.604,764.634L356.645,764.055L356.686,763.477L356.725,762.9L356.764,762.324L356.802,761.749L356.839,761.175L356.875,760.601L356.909,760.044L356.91,760.029L356.944,759.458L356.977,758.888L357.009,758.318L357.041,757.75L357.071,757.182L357.101,756.616L357.13,756.05L357.158,755.486L357.185,754.922L357.211,754.359L357.237,753.797L357.262,753.237L357.286,752.677L357.309,752.118L357.331,751.56L357.353,751.003L357.374,750.447L357.393,749.892L357.413,749.338L357.431,748.785L357.448,748.233L357.465,747.681L357.481,747.131L357.496,746.582L357.51,746.033L357.524,745.486L357.536,744.939L357.548,744.394L357.559,743.849L357.569,743.306L357.579,742.763L357.587,742.221L357.595,741.681L357.602,741.141L357.608,740.602L357.614,740.064L357.618,739.527L357.622,738.991L357.625,738.456L357.627,737.922L357.629,737.389L357.629,736.856L357.629,736.325L357.628,735.795L357.626,735.265L357.623,734.737L357.62,734.209L357.616,733.683L357.611,733.157L357.605,732.632L357.598,732.109L357.591,731.586L357.582,731.064L357.573,730.543L357.563,730.023L357.553,729.504L357.541,728.986L357.529,728.469L357.516,727.953L357.502,727.438L357.487,726.923L357.472,726.41L357.456,725.898L357.439,725.386L357.421,724.876L357.402,724.366L357.383,723.858L357.363,723.35L357.342,722.843L357.32,722.337L357.297,721.832L357.274,721.328L357.249,720.825L357.224,720.323L357.199,719.822L357.172,719.322L357.145,718.823L357.117,718.325L357.088,717.827L357.058,717.331L357.027,716.835L356.996,716.341L356.964,715.847L356.931,715.354L356.897,714.863L356.863,714.372L356.828,713.882L356.816,713.722L356.791,713.393L356.754,712.905L356.716,712.418L356.677,711.932L356.637,711.447L356.596,710.962L356.555,710.479L356.513,709.997L356.47,709.515L356.427,709.035L356.382,708.555L356.337,708.077L356.291,707.599L356.244,707.122L356.196,706.646L356.148,706.172L356.099,705.698L356.049,705.225L355.998,704.752L355.947,704.281L355.895,703.811L355.842,703.342L355.788,702.873L355.733,702.406L355.678,701.939L355.622,701.474L355.565,701.009L355.507,700.546L355.449,700.083L355.389,699.621L355.329,699.16L355.268,698.7L355.207,698.241L355.144,697.783L355.081,697.325L355.017,696.869L354.953,696.414L354.887,695.959L354.821,695.506L354.754,695.053L354.686,694.602L354.618,694.151L354.548,693.701L354.478,693.252L354.407,692.804L354.336,692.357L354.263,691.911L354.19,691.466L354.116,691.022L354.041,690.578L353.966,690.136L353.89,689.694L353.813,689.254L353.735,688.814L353.656,688.375L353.577,687.937L353.497,687.501L353.416,687.065L353.334,686.629L353.252,686.195L353.169,685.762L353.085,685.33L353,684.898L352.915,684.468L352.829,684.038L352.742,683.61L352.654,683.182L352.566,682.755L352.476,682.329L352.386,681.904L352.295,681.48L352.204,681.057L352.112,680.635L352.019,680.214L351.925,679.793L351.83,679.374L351.735,678.955L351.639,678.538L351.542,678.121L351.444,677.705L351.346,677.29L351.249,676.884L351.247,676.876L351.147,676.463L351.046,676.051L350.944,675.64L350.842,675.23L350.739,674.82L350.635,674.412L350.53,674.004L350.425,673.598L350.318,673.192L350.211,672.787L350.104,672.383L349.995,671.98L349.886,671.578L349.776,671.177L349.666,670.777L349.554,670.377L349.442,669.979L349.329,669.581L349.215,669.185L349.101,668.789L348.986,668.394L348.87,668L348.753,667.607L348.636,667.215L348.518,666.824L348.399,666.434L348.279,666.044L348.159,665.656L348.038,665.268L347.916,664.882L347.793,664.496L347.67,664.111L347.546,663.727L347.421,663.344L347.295,662.962L347.169,662.58L347.041,662.197L346.943,661.776L346.918,661.344L346.969,660.914L347.093,660.5L347.286,660.113L347.544,659.765L347.857,659.467L349.417,661.42L347.857,659.467L348.419,659.024L348.752,658.76L348.978,658.58L349.536,658.133L350.094,657.682L350.652,657.228L351.21,656.77L351.768,656.309L352.326,655.844L352.883,655.376L353.441,654.904L353.998,654.429L354.555,653.95L355.112,653.468L355.669,652.982L356.225,652.493L356.785,651.997L357.111,651.751L357.474,651.563L357.863,651.439L358.268,651.381L358.676,651.393ZM357.207,658.13L356.642,658.624L356.076,659.115L355.511,659.602L354.945,660.086L354.378,660.566L353.812,661.043L353.245,661.517L352.677,661.987L352.312,662.287L352.415,662.617L352.537,663.015L352.658,663.414L352.778,663.814L352.898,664.214L353.017,664.616L353.135,665.018L353.252,665.421L353.368,665.825L353.484,666.23L353.599,666.636L353.713,667.042L353.826,667.45L353.939,667.858L354.05,668.267L354.161,668.677L354.271,669.088L354.381,669.5L354.489,669.912L354.597,670.326L354.704,670.74L354.81,671.155L354.915,671.571L355.02,671.988L355.123,672.406L355.226,672.825L355.328,673.244L355.43,673.665L355.53,674.086L355.63,674.508L355.729,674.931L355.827,675.355L355.924,675.779L355.926,675.787L356.021,676.205L356.117,676.631L356.212,677.059L356.306,677.487L356.4,677.916L356.493,678.346L356.584,678.776L356.676,679.208L356.766,679.64L356.856,680.074L356.944,680.508L357.032,680.943L357.119,681.379L357.206,681.816L357.291,682.254L357.376,682.692L357.46,683.132L357.543,683.572L357.625,684.013L357.707,684.455L357.788,684.898L357.868,685.342L357.947,685.787L358.025,686.232L358.103,686.679L358.179,687.126L358.255,687.574L358.33,688.023L358.405,688.473L358.478,688.924L358.551,689.376L358.623,689.829L358.694,690.282L358.764,690.736L358.834,691.192L358.902,691.648L358.97,692.105L359.037,692.563L359.104,693.021L359.169,693.481L359.234,693.941L359.297,694.403L359.361,694.865L359.423,695.328L359.484,695.792L359.545,696.257L359.605,696.723L359.664,697.19L359.722,697.657L359.779,698.126L359.836,698.595L359.892,699.065L359.947,699.536L360.001,700.008L360.054,700.481L360.107,700.955L360.158,701.43L360.209,701.905L360.259,702.381L360.309,702.859L360.357,703.337L360.405,703.816L360.452,704.296L360.498,704.777L360.543,705.259L360.588,705.741L360.631,706.225L360.674,706.709L360.716,707.194L360.757,707.681L360.798,708.168L360.837,708.656L360.876,709.145L360.914,709.634L360.951,710.125L360.988,710.617L361.023,711.109L361.058,711.602L361.092,712.097L361.125,712.592L361.157,713.088L361.179,713.423L361.189,713.585L361.22,714.082L361.251,714.581L361.28,715.081L361.309,715.581L361.337,716.082L361.364,716.585L361.39,717.088L361.416,717.592L361.441,718.097L361.464,718.603L361.488,719.109L361.51,719.617L361.531,720.126L361.552,720.635L361.572,721.145L361.591,721.657L361.609,722.169L361.626,722.682L361.643,723.196L361.659,723.711L361.674,724.226L361.688,724.743L361.701,725.261L361.713,725.779L361.725,726.298L361.736,726.819L361.746,727.34L361.755,727.862L361.764,728.385L361.771,728.909L361.778,729.434L361.784,729.96L361.789,730.486L361.793,731.014L361.797,731.542L361.799,732.072L361.801,732.602L361.802,733.133L361.802,733.665L361.802,734.198L361.8,734.732L361.798,735.267L361.795,735.803L361.791,736.339L361.787,736.877L361.781,737.415L361.775,737.955L361.767,738.495L361.759,739.036L361.751,739.578L361.741,740.121L361.73,740.665L361.719,741.21L361.707,741.756L361.694,742.303L361.68,742.85L361.666,743.399L361.65,743.948L361.634,744.499L361.617,745.05L361.599,745.602L361.581,746.155L361.561,746.709L361.541,747.264L361.519,747.82L361.497,748.377L361.475,748.935L361.451,749.493L361.426,750.053L361.401,750.613L361.375,751.175L361.348,751.737L361.32,752.3L361.292,752.864L361.262,753.429L361.232,753.995L361.201,754.562L361.169,755.13L361.136,755.699L361.103,756.269L361.068,756.839L361.033,757.411L360.997,757.983L360.96,758.557L360.922,759.131L360.884,759.706L360.844,760.283L360.843,760.298L360.805,760.86L360.765,761.438L360.724,762.017L360.682,762.597L360.639,763.178L360.595,763.76L360.551,764.342L360.506,764.926L360.46,765.511L360.413,766.097L360.317,767.27L360.217,768.448L360.114,769.629L360.008,770.814L359.899,772.003L359.786,773.196L359.67,774.392L359.55,775.592L359.427,776.796L359.301,778.003L359.171,779.215L359.038,780.43L358.902,781.649L358.766,782.841L358.762,782.871L358.622,784.098L358.538,784.814L358.621,784.491L358.797,783.805L358.84,783.633L358.969,783.119L359.14,782.435L359.309,781.752L359.477,781.07L359.643,780.39L359.808,779.711L359.971,779.033L360.132,778.357L360.292,777.682L360.451,777.008L360.608,776.335L360.763,775.664L360.917,774.995L361.069,774.326L361.219,773.659L361.368,772.993L361.516,772.329L361.662,771.666L361.806,771.004L361.949,770.343L362.091,769.684L362.231,769.026L362.369,768.37L362.506,767.715L362.641,767.061L362.774,766.408L362.907,765.757L362.945,765.566L363.036,765.107L363.164,764.458L363.291,763.81L363.416,763.164L363.539,762.519L363.661,761.876L363.782,761.234L363.9,760.593L364.018,759.953L364.133,759.315L364.248,758.678L364.36,758.042L364.472,757.408L364.581,756.775L364.689,756.143L364.796,755.513L364.901,754.884L365.005,754.256L365.107,753.629L365.207,753.004L365.306,752.38L365.404,751.758L365.5,751.137L365.594,750.517L365.687,749.898L365.778,749.281L365.868,748.665L365.957,748.05L366.044,747.437L366.129,746.825L366.195,746.344L366.212,746.214L366.294,745.605L366.374,744.996L366.452,744.389L366.529,743.784L366.604,743.179L366.678,742.576L366.75,741.975L366.821,741.374L366.89,740.775L366.958,740.177L367.024,739.581L367.089,738.986L367.152,738.392L367.214,737.799L367.274,737.208L367.333,736.618L367.39,736.029L367.446,735.442L367.5,734.856L367.553,734.271L367.605,733.688L367.654,733.106L367.703,732.525L367.749,731.945L367.795,731.367L367.839,730.79L367.881,730.214L367.922,729.64L367.961,729.067L367.999,728.495L368.036,727.925L368.07,727.356L368.104,726.788L368.136,726.221L368.166,725.656L368.195,725.092L368.223,724.529L368.249,723.968L368.273,723.408L368.296,722.849L368.318,722.291L368.338,721.735L368.357,721.18L368.374,720.627L368.39,720.074L368.404,719.523L368.417,718.973L368.428,718.425L368.438,717.878L368.446,717.332L368.453,716.787L368.458,716.244L368.462,715.702L368.465,715.161L368.466,714.622L368.465,714.083L368.464,713.546L368.46,713.011L368.455,712.476L368.449,711.943L368.441,711.412L368.432,710.881L368.421,710.352L368.409,709.824L368.396,709.297L368.381,708.772L368.364,708.248L368.346,707.725L368.327,707.203L368.314,706.881L368.306,706.683L368.283,706.164L368.258,705.646L368.232,705.13L368.205,704.615L368.176,704.101L368.146,703.588L368.114,703.077L368.081,702.567L368.047,702.058L368.011,701.551L367.973,701.045L367.934,700.54L367.894,700.036L367.852,699.534L367.809,699.033L367.764,698.533L367.718,698.034L367.671,697.537L367.622,697.041L367.572,696.546L367.52,696.053L367.467,695.561L367.412,695.07L367.356,694.58L367.299,694.092L367.24,693.604L367.179,693.118L367.118,692.634L367.054,692.151L366.99,691.668L366.924,691.188L366.856,690.708L366.788,690.23L366.717,689.753L366.646,689.277L366.573,688.802L366.498,688.329L366.422,687.857L366.345,687.386L366.266,686.917L366.186,686.449L366.104,685.982L366.022,685.516L365.937,685.051L365.851,684.588L365.764,684.126L365.676,683.665L365.586,683.206L365.494,682.748L365.402,682.291L365.307,681.835L365.212,681.381L365.115,680.927L365.016,680.475L364.917,680.025L364.816,679.575L364.713,679.127L364.609,678.68L364.504,678.234L364.397,677.79L364.289,677.346L364.179,676.904L364.069,676.464L363.956,676.024L363.843,675.586L363.728,675.149L363.611,674.713L363.493,674.278L363.374,673.845L363.254,673.413L363.132,672.982L363.008,672.552L362.884,672.124L362.758,671.696L362.63,671.27L362.544,670.986L362.501,670.846L362.371,670.422L362.239,670L362.106,669.579L361.971,669.159L361.835,668.741L361.697,668.323L361.559,667.907L361.419,667.492L361.277,667.079L361.134,666.666L360.99,666.255L360.845,665.845L360.698,665.436L360.549,665.029L360.4,664.622L360.249,664.217L360.096,663.813L359.943,663.411L359.788,663.009L359.631,662.609L359.473,662.21L359.314,661.812L359.154,661.415L358.992,661.02L358.829,660.626L358.664,660.233L358.498,659.841L358.331,659.45L358.163,659.061L357.993,658.673L357.821,658.286L357.649,657.9L357.597,657.786L357.207,658.13Z" style="fill:rgb(55,55,55);"/>
        </g>
    </g>
    <defs>
        <linearGradient id="_Linear1" x1="0" y1="0" x2="1" y2="0" gradientUnits="userSpaceOnUse" gradientTransform="matrix(160.827,0,0,181,1036,495.5)"><stop offset="0" style="stop-color:rgb(117,120,124);stop-opacity:1"/><stop offset="1" style="stop-color:rgb(172,173,176);stop-opacity:1"/></linearGradient>
    </defs>
</svg>
