<?xml version="1.0" encoding="UTF-8" standalone="no"?>
<!DOCTYPE svg PUBLIC "-//W3C//DTD SVG 1.1//EN" "http://www.w3.org/Graphics/SVG/1.1/DTD/svg11.dtd">
<svg width="100%" height="100%" viewBox="0 0 111 953" version="1.1" xmlns="http://www.w3.org/2000/svg" xmlns:xlink="http://www.w3.org/1999/xlink" xml:space="preserve" xmlns:serif="http://www.serif.com/" style="fill-rule:evenodd;clip-rule:evenodd;stroke-linejoin:round;stroke-miterlimit:1.41421;">
    <g transform="matrix(1,0,0,1,-43,-64)">
        <g>
            <g transform="matrix(2.13045,0,0,1.43895,-758.176,-401.6)">
                <path d="M409,515L395.5,515L396.817,760.104L395.5,983L411.634,983.975L409,944.03L409,515Z" style="fill:rgb(114,96,92);"/>
                <path d="M409.204,513.289L409.401,513.367L409.587,513.495L409.754,513.669L409.899,513.883L410.016,514.131L410.103,514.406L410.156,514.698L410.173,515L410.127,567.975L410.026,696.784L409.925,856.251L409.892,933.362L409.89,943.966L412.513,983.848L412.514,984.071L412.49,984.291L412.442,984.502L412.369,984.698L412.275,984.872L412.163,985.021L412.035,985.138L411.896,985.222L411.749,985.27L411.598,985.28L399.491,984.548L399.491,984.544L395.464,984.302L395.315,984.274L395.171,984.209L395.037,984.108L394.917,983.976L394.813,983.814L394.813,983.814L394.729,983.629L394.668,983.426L394.631,983.21L394.62,982.989L394.941,927.376L395.317,859.786L395.849,760.103L395.624,722.239L394.842,594.754L394.345,515.014L394.358,514.745L394.399,514.482L394.468,514.232L394.562,514.001L394.679,513.795L394.817,513.618L394.817,513.618L394.972,513.476L395.141,513.372L395.318,513.308L395.5,513.286L406.107,513.268L409,513.263L409.204,513.289ZM406.57,516.712L396.665,516.712L396.664,516.709L397.027,596.996L397.606,722.731L397.785,760.104L397.147,858.471L396.729,925.192L396.722,925.2L396.387,981.75L396.387,981.75L401.021,982.031L410.657,982.609L408.11,944.095L408.108,933.488L408.075,856.358L407.974,696.847L407.873,567.995L407.828,516.735L406.573,516.732L406.57,516.712Z" style="fill:rgb(55,55,55);"/>
            </g>
            <g transform="matrix(1.40298,0,0,1.40298,-456.082,-384.476)">
                <path d="M432.977,503.5L395.5,322.023L358.023,503.5L395.5,540.977L432.977,503.5Z" style="fill:rgb(189,189,189);"/>
                <path d="M395.734,320.668L395.961,320.728L396.175,320.825L396.369,320.956L396.538,321.12L396.677,321.309L396.782,321.52L396.849,321.745L398.046,327.511L411.772,393.391L424.534,454.462L434.324,501.24L434.722,503.14L432.977,503.5L434.722,503.14L434.757,503.431L434.744,503.724L434.684,504.011L434.577,504.284L434.426,504.536L434.237,504.76L415.374,523.524L396.666,542.143L396.446,542.327L396.196,542.47L395.926,542.567L395.643,542.616L395.357,542.616L395.357,542.615L395.075,542.564L394.806,542.466L394.558,542.322L394.34,542.137L369.37,517.051L356.945,504.579L356.783,504.387L356.655,504.171L356.564,503.937L356.512,503.691L356.513,503.691L356.502,503.441L356.533,503.192L368.788,444.429L376.564,407.023L383.38,374.113L389.747,343.217L394.157,321.746L394.223,321.521L394.327,321.311L394.465,321.122L394.633,320.959L394.826,320.826L395.04,320.729L395.266,320.669L395.5,320.649L395.734,320.668ZM392.427,343.567L386.092,374.181L379.376,406.796L371.773,443.865L371.897,443.847L359.681,503.004L359.683,503.003L371.651,514.923L371.713,514.864L395.5,538.65L395.5,538.644L414.153,519.903L431.04,502.92L430.844,501.959L421.304,455.129L408.829,393.999L395.489,328.821L392.427,343.567Z" style="fill:rgb(55,55,55);"/>
            </g>
            <g transform="matrix(1.40298,0,0,1.40298,-456.082,-384.476)">
                <path d="M431.981,504.496L395.5,540.977L359.019,504.496L395.5,444.023L431.981,504.496Z" style="fill:url(#_Linear1);"/>
                <path d="M414.755,524.054L396.585,542.062L396.379,542.232L396.147,542.364L395.896,542.453L395.633,542.498L395.367,542.496L395.106,542.448L394.857,542.356L394.628,542.222L394.426,542.05L391.908,539.509L366.433,513.867L358.058,505.458L357.913,505.285L357.798,505.091L357.717,504.881L357.672,504.66L357.665,504.435L357.694,504.213L357.76,503.998L357.86,503.797L359.418,501.226L368.029,486.977L377.174,471.78L387.546,454.489L387.505,454.464L394.256,443.273L394.401,443.071L394.579,442.896L394.784,442.755L395.01,442.65L395.251,442.585L395.5,442.563L395.749,442.583L395.992,442.645L396.22,442.748L396.428,442.889L396.609,443.063L396.757,443.265L409.236,463.777L426.429,491.98L433.506,503.576L433.637,503.841L433.723,504.123L433.761,504.416L433.749,504.712L433.689,505.001L433.582,505.277L433.431,505.531L433.241,505.756L432.519,506.47L414.755,524.054ZM390.206,455.519L380.099,472.175L371.227,486.844L362.935,500.615L360.727,504.288L360.73,504.288L369.143,512.7L369.168,512.688L392.088,535.44L395.5,538.83L395.5,538.818L413.649,520.667L413.605,520.539L429.744,504.224L423.497,493.749L406.567,465.387L395.48,446.851L390.206,455.519Z" style="fill:rgb(55,55,55);"/>
            </g>
            <g transform="matrix(1.33614,0,0,1.33614,-428.961,-347.012)">
                <path d="M385.25,540L405.75,560.5" style="fill:url(#_Linear2);"/>
                <path d="M386.568,538.672L386.573,538.677L386.651,538.763L388.583,540.884L391.119,543.638L393.884,546.579L395.26,548.008L396.58,549.348L398.012,550.751L399.661,552.325L403.108,555.544L405.914,558.122L407.073,559.177L407.078,559.182L407.582,560.463L407.026,561.766L407.016,561.776L405.713,562.332L404.432,561.828L404.427,561.823L403.372,560.664L400.794,557.858L397.575,554.411L396.001,552.762L394.598,551.33L393.258,550.01L391.829,548.634L388.888,545.869L386.134,543.333L384.013,541.401L383.927,541.323L383.922,541.318L383.381,540L383.922,538.682L383.932,538.672L385.25,538.131L386.568,538.672Z" style="fill:rgb(55,55,55);"/>
            </g>
            <g transform="matrix(1.33614,0,0,1.33614,-428.961,-322.881)">
                <path d="M385.25,540L405.75,560.5" style="fill:url(#_Linear3);"/>
                <path d="M386.568,538.672L386.573,538.677L386.651,538.763L388.583,540.884L391.119,543.638L393.884,546.579L395.26,548.008L396.58,549.348L398.012,550.751L399.661,552.325L403.108,555.544L405.914,558.122L407.073,559.177L407.078,559.182L407.582,560.463L407.026,561.766L407.016,561.776L405.713,562.332L404.432,561.828L404.427,561.823L403.372,560.664L400.794,557.858L397.575,554.411L396.001,552.762L394.598,551.33L393.258,550.01L391.829,548.634L388.888,545.869L386.134,543.333L384.013,541.401L383.927,541.323L383.922,541.318L383.381,540L383.922,538.682L383.932,538.672L385.25,538.131L386.568,538.672Z" style="fill:rgb(55,55,55);"/>
            </g>
            <g transform="matrix(-1.33614,0,0,1.33614,627.923,-347.012)">
                <path d="M385.25,540L405.75,560.5" style="fill:url(#_Linear4);"/>
                <path d="M383.932,538.672L383.922,538.682L383.381,540L383.922,541.318L383.927,541.323L384.013,541.401L386.134,543.333L388.888,545.869L391.829,548.634L393.258,550.01L394.598,551.33L396.001,552.762L397.575,554.411L400.794,557.858L403.372,560.664L404.427,561.823L404.432,561.828L405.713,562.332L407.016,561.776L407.026,561.766L407.582,560.463L407.078,559.182L407.073,559.177L405.914,558.122L403.108,555.544L399.661,552.325L398.012,550.751L396.58,549.348L395.26,548.008L393.884,546.579L391.119,543.638L388.583,540.884L386.651,538.763L386.573,538.677L386.568,538.672L385.25,538.131L383.932,538.672Z" style="fill:rgb(55,55,55);"/>
            </g>
            <g transform="matrix(-1.33614,0,0,1.33614,627.923,-322.881)">
                <path d="M385.25,540L405.75,560.5" style="fill:url(#_Linear5);"/>
                <path d="M383.932,538.672L383.922,538.682L383.381,540L383.922,541.318L383.927,541.323L384.013,541.401L386.134,543.333L388.888,545.869L391.829,548.634L393.258,550.01L394.598,551.33L396.001,552.762L397.575,554.411L400.794,557.858L403.372,560.664L404.427,561.823L404.432,561.828L405.713,562.332L407.016,561.776L407.026,561.766L407.582,560.463L407.078,559.182L407.073,559.177L405.914,558.122L403.108,555.544L399.661,552.325L398.012,550.751L396.58,549.348L395.26,548.008L393.884,546.579L391.119,543.638L388.583,540.884L386.651,538.763L386.573,538.677L386.568,538.672L385.25,538.131L383.932,538.672Z" style="fill:rgb(55,55,55);"/>
            </g>
        </g>
    </g>
    <defs>
        <linearGradient id="_Linear1" x1="0" y1="0" x2="1" y2="0" gradientUnits="userSpaceOnUse" gradientTransform="matrix(72.961,0,0,96.9533,359.019,492.5)"><stop offset="0" style="stop-color:rgb(117,120,124);stop-opacity:1"/><stop offset="1" style="stop-color:rgb(172,173,176);stop-opacity:1"/></linearGradient>
        <linearGradient id="_Linear2" x1="0" y1="0" x2="1" y2="0" gradientUnits="userSpaceOnUse" gradientTransform="matrix(20.5,0,0,20.5,385.25,550.25)"><stop offset="0" style="stop-color:rgb(117,120,124);stop-opacity:1"/><stop offset="1" style="stop-color:rgb(172,173,176);stop-opacity:1"/></linearGradient>
        <linearGradient id="_Linear3" x1="0" y1="0" x2="1" y2="0" gradientUnits="userSpaceOnUse" gradientTransform="matrix(20.5,0,0,20.5,385.25,550.25)"><stop offset="0" style="stop-color:rgb(117,120,124);stop-opacity:1"/><stop offset="1" style="stop-color:rgb(172,173,176);stop-opacity:1"/></linearGradient>
        <linearGradient id="_Linear4" x1="0" y1="0" x2="1" y2="0" gradientUnits="userSpaceOnUse" gradientTransform="matrix(20.5,0,0,20.5,385.25,550.25)"><stop offset="0" style="stop-color:rgb(117,120,124);stop-opacity:1"/><stop offset="1" style="stop-color:rgb(172,173,176);stop-opacity:1"/></linearGradient>
        <linearGradient id="_Linear5" x1="0" y1="0" x2="1" y2="0" gradientUnits="userSpaceOnUse" gradientTransform="matrix(20.5,0,0,20.5,385.25,550.25)"><stop offset="0" style="stop-color:rgb(117,120,124);stop-opacity:1"/><stop offset="1" style="stop-color:rgb(172,173,176);stop-opacity:1"/></linearGradient>
    </defs>
</svg>
