<?xml version="1.0" encoding="UTF-8" standalone="no"?>
<!DOCTYPE svg PUBLIC "-//W3C//DTD SVG 1.1//EN" "http://www.w3.org/Graphics/SVG/1.1/DTD/svg11.dtd">
<svg width="100%" height="100%" viewBox="0 0 213 558" version="1.1" xmlns="http://www.w3.org/2000/svg" xmlns:xlink="http://www.w3.org/1999/xlink" xml:space="preserve" xmlns:serif="http://www.serif.com/" style="fill-rule:evenodd;clip-rule:evenodd;stroke-linejoin:round;stroke-miterlimit:1.41421;">
    <g transform="matrix(1,0,0,1,-200,-64)">
        <g>
            <g transform="matrix(-1.22222,1.49679e-16,-1.465e-16,-1.19626,1064.47,1159.29)">
                <rect x="602" y="781" width="36" height="107" style="fill:rgb(114,96,92);"/>
                <path d="M638.7,779.036L639.023,779.19L639.315,779.399L639.567,779.657L639.771,779.955L639.922,780.285L640.014,780.637L640.045,781L639.965,796.834L639.789,835.333L639.613,882.993L639.6,888L639.575,888.284L639.501,888.558L639.383,888.816L639.222,889.048L639.025,889.248L639.025,889.248L638.797,889.41L638.545,889.529L638.276,889.601L638,889.624L622.944,889.588L602,889.566L601.734,889.542L601.57,889.497L601.476,889.471L601.234,889.356L601.014,889.2L600.825,889.007L600.825,889.007L600.672,888.784L600.558,888.536L600.489,888.272L600.465,888L600.453,871.991L600.411,851.551L600.275,809.95L600.149,781L600.175,780.671L600.257,780.352L600.392,780.051L600.576,779.779L600.804,779.544L600.804,779.543L601.068,779.351L601.362,779.209L601.676,779.121L602,779.09L607.406,779.066L636.806,778.916L638,778.91L638.355,778.942L638.7,779.036ZM604.655,886.434L622.456,886.412L622.45,886.371L636.405,886.371L636.4,886.365L636.387,879.499L636.211,833.381L636.035,796.239L635.965,783.078L610.573,782.934L610.548,782.902L603.86,782.901L603.851,782.891L603.725,811.679L603.589,850.425L603.547,869.521L603.534,869.531L603.533,886.433L603.533,886.434L604.654,886.434L604.655,886.434Z" style="fill:rgb(55,55,55);"/>
            </g>
            <g transform="matrix(-1,1.22465e-16,-1.22465e-16,-1,893.694,1000.01)">
                <path d="M646,419L587,381L587,777L662,725L628.685,687.093L627.676,540L646,419Z" style="fill:url(#_Linear1);"/>
                <path d="M647.959,417.447L648.186,417.788L648.355,418.161L648.461,418.557L648.5,418.965L648.472,419.374L641.291,466.138L629.939,540.163L630.138,580.106L630.706,686.324L630.704,686.324L654.963,713.926L654.919,713.958L663.471,723.707L663.666,723.973L663.815,724.267L663.911,724.582L663.954,724.909L663.941,725.238L663.874,725.56L663.753,725.866L663.582,726.147L663.367,726.396L663.113,726.605L617.68,758.04L588.074,778.549L587.801,778.706L587.505,778.815L587.195,778.874L586.88,778.88L586.569,778.834L586.269,778.736L585.99,778.59L585.739,778.399L585.524,778.169L585.35,777.907L585.222,777.619L585.144,777.314L585.118,777L585.127,756.051L585.109,698.221L585.058,637.294L584.892,513.291L584.686,398.326L584.651,381L584.682,380.614L584.776,380.239L584.93,379.884L585.14,379.559L585.402,379.272L585.706,379.033L586.046,378.846L586.412,378.718L586.795,378.652L587.183,378.649L587.567,378.71L587.935,378.833L588.279,379.015L644.261,414.915L647.354,416.898L647.679,417.148L647.959,417.447ZM615.515,754.918L659.082,724.649L651.671,716.233L627.165,688.429L626.99,688.2L626.849,687.947L626.746,687.677L626.682,687.395L626.658,687.107L625.766,580.364L625.413,539.837L636.519,465.563L643.29,420.224L641.562,419.106L589.34,385.326L589.314,398.326L589.108,513.291L588.942,637.294L588.891,698.221L588.873,756.051L588.881,773.401L615.515,754.918Z" style="fill:rgb(55,55,55);"/>
            </g>
            <g transform="matrix(1,-1.22465e-16,-1.22465e-16,-1,-280.306,1000.01)">
                <path d="M646,419L587,381L587,777L662,725L628.685,687.093L627.676,540L646,419Z" style="fill:rgb(189,189,189);"/>
                <path d="M587.505,778.815L587.801,778.706L588.074,778.549L617.68,758.04L663.113,726.605L663.367,726.396L663.582,726.147L663.753,725.866L663.874,725.56L663.941,725.238L663.954,724.909L663.911,724.582L663.815,724.267L663.666,723.973L663.471,723.707L654.919,713.958L654.963,713.926L630.704,686.324L630.706,686.324L630.138,580.106L629.939,540.163L641.291,466.138L648.472,419.374L648.5,418.965L648.461,418.557L648.355,418.161L648.186,417.788L647.959,417.447L647.679,417.148L647.354,416.898L644.261,414.915L588.279,379.015L587.935,378.833L587.567,378.71L587.183,378.649L586.795,378.652L586.412,378.718L586.046,378.846L585.706,379.033L585.402,379.272L585.14,379.559L584.93,379.884L584.776,380.239L584.682,380.614L584.651,381L584.686,398.326L584.892,513.291L585.058,637.294L585.109,698.221L585.127,756.051L585.118,777L585.144,777.314L585.222,777.619L585.35,777.907L585.524,778.169L585.739,778.399L585.99,778.59L586.269,778.736L586.569,778.834L586.88,778.88L587.195,778.874L587.505,778.815ZM625.413,539.837L625.766,580.364L626.658,687.107L626.682,687.395L626.746,687.677L626.849,687.947L626.849,687.947L626.99,688.2L627.165,688.429L651.671,716.233L659.082,724.649L615.515,754.918L588.881,773.401L588.873,756.051L588.891,698.221L588.942,637.294L589.108,513.291L589.314,398.326L589.34,385.326L641.562,419.106L643.29,420.224L636.519,465.563L625.413,539.837Z" style="fill:rgb(55,55,55);"/>
            </g>
            <g transform="matrix(1,-2.44929e-16,2.44929e-16,1,-294.806,-608.042)">
                <path d="M601.5,818.055L705,862L498,862L601.5,818.055Z" style="fill:url(#_Linear2);"/>
                <path d="M580.249,829.688L526.211,852.397L508.264,859.955L533.424,860.029L568.622,860.1L599.584,860.127L628.647,860.109L659.266,860.058L694.798,859.964L642.856,838.128L602.175,821.05L601.5,820.766L580.249,829.688ZM602.477,815.754L604.123,816.461L644.664,833.868L697.6,856.568L705.815,860.082L706.129,860.25L706.41,860.468L706.649,860.732L706.84,861.032L706.977,861.36L707.056,861.707L707.074,862.061L707.032,862.414L706.931,862.753L706.773,863.071L706.564,863.356L706.309,863.602L706.016,863.801L705.694,863.946L705.352,864.035L705,864.064L659.266,863.942L628.647,863.891L599.584,863.873L568.622,863.9L533.424,863.971L498,864.076L497.646,864.047L497.302,863.958L496.978,863.811L496.683,863.612L496.427,863.365L496.216,863.077L496.057,862.758L495.955,862.416L495.913,862.062L495.931,861.705L496.01,861.356L496.148,861.026L496.34,860.724L496.581,860.458L496.864,860.238L497.18,860.069L524.502,848.372L578.371,825.266L600.523,815.754L600.904,815.627L601.299,815.563L601.701,815.563L602.096,815.627L602.477,815.754Z" style="fill:rgb(55,55,55);"/>
            </g>
            <g transform="matrix(-0.707107,0.707107,-0.707107,-0.707107,1131.89,396.12)">
                <rect x="351" y="774" width="42" height="42" style="fill:url(#_Linear3);"/>
                <path d="M393.434,771.538L393.855,771.651L394.25,771.835L394.607,772.085L394.915,772.393L395.165,772.75L395.349,773.145L395.462,773.566L395.5,774L395.402,783.613L395.186,806.987L395.119,816L395.083,816.367L394.984,816.722L394.825,817.054L394.611,817.352L394.35,817.609L394.349,817.608L394.048,817.814L393.715,817.965L393.362,818.055L393,818.083L377.039,817.971L362.214,817.9L351,817.877L350.707,817.853L350.421,817.783L350.149,817.669L350.012,817.584L349.899,817.516L349.675,817.325L349.484,817.102L349.483,817.102L349.329,816.851L349.215,816.58L349.146,816.294L349.122,816L349.109,807.08L349.058,794.184L348.93,774L348.958,773.64L349.048,773.29L349.198,772.96L349.403,772.66L349.659,772.402L349.658,772.4L349.954,772.188L350.283,772.031L350.635,771.932L351,771.897L351.724,771.892L374.692,771.686L392.286,771.507L393,771.5L393.434,771.538ZM353.539,814.127L353.543,814.123L364.131,814.1L376.127,814.029L376.1,813.901L390.899,813.899L390.881,813.881L390.814,803.513L390.598,782.554L390.528,776.472L376.672,776.314L355.998,776.108L355.98,776.088L353.086,776.086L353.07,776.07L352.942,794.4L352.891,804.852L352.875,804.861L352.874,814.126L352.873,814.127L353.539,814.127Z" style="fill:rgb(55,55,55);"/>
            </g>
        </g>
    </g>
    <defs>
        <linearGradient id="_Linear1" x1="0" y1="0" x2="1" y2="0" gradientUnits="userSpaceOnUse" gradientTransform="matrix(75,0,0,396,587,579)"><stop offset="0" style="stop-color:rgb(117,120,124);stop-opacity:1"/><stop offset="1" style="stop-color:rgb(172,173,176);stop-opacity:1"/></linearGradient>
        <linearGradient id="_Linear2" x1="0" y1="0" x2="1" y2="0" gradientUnits="userSpaceOnUse" gradientTransform="matrix(207,0,0,43.9448,498,840.028)"><stop offset="0" style="stop-color:rgb(117,120,124);stop-opacity:1"/><stop offset="1" style="stop-color:rgb(172,173,176);stop-opacity:1"/></linearGradient>
        <linearGradient id="_Linear3" x1="0" y1="0" x2="1" y2="0" gradientUnits="userSpaceOnUse" gradientTransform="matrix(42,0,0,42,351,795)"><stop offset="0" style="stop-color:rgb(117,120,124);stop-opacity:1"/><stop offset="1" style="stop-color:rgb(172,173,176);stop-opacity:1"/></linearGradient>
    </defs>
</svg>
