<?xml version="1.0" encoding="UTF-8" standalone="no"?>
<!DOCTYPE svg PUBLIC "-//W3C//DTD SVG 1.1//EN" "http://www.w3.org/Graphics/SVG/1.1/DTD/svg11.dtd">
<svg width="100%" height="100%" viewBox="0 0 264 918" version="1.1" xmlns="http://www.w3.org/2000/svg" xmlns:xlink="http://www.w3.org/1999/xlink" xml:space="preserve" xmlns:serif="http://www.serif.com/" style="fill-rule:evenodd;clip-rule:evenodd;stroke-linejoin:round;stroke-miterlimit:1.41421;">
    <g transform="matrix(1,0,0,1,-1613,-82)">
        <g>
            <g transform="matrix(0.937213,0,0,-1.51193,277.049,1379.53)">
                <rect x="1539.83" y="734" width="48.333" height="120" style="fill:rgb(114,96,92);"/>
                <path d="M1539.83,732.46L1539.4,732.485L1538.99,732.555L1538.59,732.67L1538.24,732.825L1537.94,733.015L1537.69,733.234L1537.53,733.454L1537.51,733.477L1537.4,733.734L1537.37,734L1537.58,773.01L1537.76,815.91L1537.82,836.989L1537.83,854L1537.86,854.215L1537.95,854.424L1538.1,854.62L1538.3,854.797L1538.55,854.949L1538.83,855.073L1539.15,855.164L1539.49,855.22L1539.58,855.225L1539.83,855.239L1576.62,855.257L1588.17,855.269L1588.52,855.251L1588.87,855.194L1589.19,855.101L1589.49,854.975L1589.74,854.818L1589.95,854.637L1590.1,854.436L1590.19,854.221L1590.22,854L1590.27,839.777L1590.5,790.348L1590.73,750.421L1590.83,734L1590.79,733.713L1590.67,733.434L1590.48,733.173L1590.21,732.937L1589.88,732.733L1589.5,732.568L1589.08,732.446L1588.63,732.372L1588.17,732.346L1586.12,732.351L1539.83,732.46ZM1541.83,852.761L1541.83,852.76L1541.83,834.975L1541.85,834.967L1541.9,814.873L1542.08,774.062L1542.3,736.393L1542.3,736.396L1542.3,735.532L1542.31,735.534L1585.51,735.534L1585.6,749.983L1585.83,788.912L1586.06,837.206L1586.11,852.724L1586.11,852.728L1574.43,852.728L1574.44,852.743L1543.77,852.761L1543.77,852.761L1541.83,852.761Z" style="fill:rgb(55,55,55);"/>
            </g>
            <g transform="matrix(1.14659,0,0,0.107995,-50.4176,99.7854)">
                <rect x="1539.83" y="734" width="48.333" height="120" style="fill:rgb(189,189,189);"/>
                <path d="M1588.91,712.247L1589.26,713.952L1589.57,716.267L1589.84,719.12L1590.06,722.425L1590.22,726.083L1590.31,729.98L1590.35,734L1590.26,815.583L1590.23,854L1590.19,857.786L1590.09,861.438L1589.94,864.846L1589.73,867.909L1589.48,870.564L1589.47,870.535L1589.18,872.646L1588.86,874.181L1588.52,875.097L1588.17,875.368L1578.55,874.246L1557.37,872.25L1547.13,871.592L1539.83,871.39L1539.55,871.114L1539.27,870.318L1539.02,869.029L1538.81,867.464L1538.78,867.286L1538.58,865.154L1538.42,862.677L1538.42,862.681L1538.3,859.941L1538.22,857.018L1538.2,854L1538.18,768.035L1538.17,734L1538.19,730.932L1538.27,727.949L1538.39,725.142L1538.55,722.597L1538.76,720.406L1538.76,720.391L1539,718.593L1539.26,717.26L1539.54,716.432L1539.83,716.136L1541.91,716.022L1559.26,714.48L1575.35,712.575L1587.67,710.92L1588.17,710.851L1588.55,711.202L1588.91,712.247ZM1541.48,782.191L1541.47,782.149L1541.47,836.646L1541.47,836.656L1541.95,836.657L1541.95,836.61L1549.66,836.408L1558.4,835.75L1576.31,833.754L1576.24,832.415L1586.13,832.378L1586.11,832.145L1586.07,789.714L1586.02,756.833L1576.41,755.425L1561.56,753.52L1545.46,751.978L1545.44,751.765L1541.51,751.745L1541.5,751.641L1541.48,782.191Z" style="fill:rgb(55,55,55);"/>
            </g>
            <g transform="matrix(1.14659,0,0,0.107995,-50.4176,5.53518)">
                <rect x="1539.83" y="734" width="48.333" height="120" style="fill:rgb(189,189,189);"/>
                <path d="M1588.91,712.247L1589.26,713.952L1589.57,716.267L1589.84,719.12L1590.06,722.425L1590.22,726.083L1590.31,729.98L1590.35,734L1590.26,815.583L1590.23,854L1590.19,857.786L1590.09,861.438L1589.94,864.846L1589.73,867.909L1589.48,870.564L1589.47,870.535L1589.18,872.646L1588.86,874.181L1588.52,875.097L1588.17,875.368L1578.55,874.246L1557.37,872.25L1547.13,871.592L1539.83,871.39L1539.55,871.114L1539.27,870.318L1539.02,869.029L1538.81,867.464L1538.78,867.286L1538.58,865.154L1538.42,862.677L1538.42,862.681L1538.3,859.941L1538.22,857.018L1538.2,854L1538.18,768.035L1538.17,734L1538.19,730.932L1538.27,727.949L1538.39,725.142L1538.55,722.597L1538.76,720.406L1538.76,720.391L1539,718.593L1539.26,717.26L1539.54,716.432L1539.83,716.136L1541.91,716.022L1559.26,714.48L1575.35,712.575L1587.67,710.92L1588.17,710.851L1588.55,711.202L1588.91,712.247ZM1541.48,782.191L1541.47,782.149L1541.47,836.646L1541.47,836.656L1541.95,836.657L1541.95,836.61L1549.66,836.408L1558.4,835.75L1576.31,833.754L1576.24,832.415L1586.13,832.378L1586.11,832.145L1586.07,789.714L1586.02,756.833L1576.41,755.425L1561.56,753.52L1545.46,751.978L1545.44,751.765L1541.51,751.745L1541.5,751.641L1541.48,782.191Z" style="fill:rgb(55,55,55);"/>
            </g>
            <g transform="matrix(1.06917,0,0,-1.49409,188.012,1014.73)">
                <path d="M1501,87C1498.21,57.979 1456,12 1456,12L1456,480L1501,480C1501,480 1508.5,165 1501,87Z" style="fill:rgb(189,189,189);"/>
                <path d="M1503.32,86.709L1503.3,86.532L1503.28,86.355L1503.26,86.178L1503.24,86.001L1503.21,85.823L1503.19,85.645L1503.17,85.466L1503.14,85.287L1503.12,85.108L1503.09,84.929L1503.06,84.749L1503.03,84.569L1503,84.389L1502.97,84.208L1502.94,84.027L1502.91,83.846L1502.88,83.664L1502.84,83.483L1502.81,83.3L1502.77,83.118L1502.74,82.935L1502.72,82.871L1502.7,82.753L1502.66,82.569L1502.62,82.386L1502.58,82.202L1502.54,82.018L1502.5,81.834L1502.46,81.649L1502.42,81.464L1502.37,81.279L1502.33,81.093L1502.24,80.722L1502.14,80.35L1502.05,79.976L1501.95,79.602L1501.84,79.226L1501.74,78.85L1501.63,78.473L1501.52,78.095L1501.4,77.716L1501.28,77.336L1501.16,76.955L1501.04,76.574L1500.91,76.191L1500.78,75.808L1500.65,75.424L1500.51,75.04L1500.38,74.654L1500.24,74.268L1500.09,73.882L1499.95,73.495L1499.8,73.107L1499.65,72.718L1499.5,72.329L1499.34,71.939L1499.18,71.549L1499.02,71.158L1498.86,70.767L1498.69,70.375L1498.53,69.982L1498.36,69.59L1498.18,69.197L1498.01,68.803L1497.83,68.409L1497.65,68.015L1497.47,67.62L1497.29,67.225L1497.11,66.83L1496.92,66.434L1496.73,66.038L1496.54,65.642L1496.35,65.246L1496.15,64.849L1495.95,64.452L1495.76,64.056L1495.56,63.659L1495.35,63.261L1495.15,62.864L1494.94,62.467L1494.74,62.07L1494.53,61.672L1494.32,61.275L1494.1,60.877L1493.89,60.48L1493.67,60.083L1493.46,59.686L1493.24,59.289L1493.02,58.892L1492.8,58.495L1492.57,58.098L1492.35,57.702L1492.12,57.305L1491.89,56.909L1491.66,56.513L1491.43,56.118L1491.2,55.723L1490.97,55.328L1490.74,54.933L1490.5,54.539L1490.27,54.145L1490.03,53.752L1489.79,53.359L1489.55,52.966L1489.31,52.574L1489.07,52.182L1488.83,51.791L1488.59,51.401L1488.34,51.01L1488.1,50.621L1487.85,50.232L1487.6,49.844L1487.36,49.456L1487.11,49.069L1486.86,48.683L1486.61,48.298L1486.36,47.913L1486.11,47.529L1485.86,47.145L1485.61,46.763L1485.35,46.381L1485.1,46.001L1484.85,45.621L1484.59,45.241L1484.34,44.863L1484.08,44.486L1483.83,44.11L1483.57,43.734L1483.31,43.36L1483.06,42.987L1482.8,42.615L1482.54,42.243L1482.29,41.873L1482.03,41.504L1481.77,41.136L1481.51,40.769L1481.26,40.404L1481,40.039L1480.74,39.676L1480.48,39.314L1480.23,38.954L1479.97,38.594L1479.71,38.236L1479.45,37.879L1479.19,37.524L1478.94,37.17L1478.68,36.817L1478.42,36.466L1477.91,35.768L1477.4,35.076L1476.89,34.39L1476.38,33.71L1475.87,33.036L1475.37,32.37L1474.87,31.71L1474.37,31.057L1473.87,30.411L1473.38,29.773L1472.89,29.142L1472.4,28.519L1471.92,27.903L1471.44,27.296L1470.97,26.697L1470.5,26.106L1470.04,25.524L1469.58,24.951L1469.12,24.387L1468.67,23.832L1468.23,23.286L1467.79,22.75L1467.36,22.223L1466.94,21.706L1466.52,21.2L1466.11,20.703L1465.7,20.217L1465.31,19.741L1464.92,19.277L1464.53,18.823L1464.16,18.38L1463.8,17.948L1463.44,17.528L1463.09,17.12L1462.75,16.723L1462.42,16.339L1462.1,15.966L1461.79,15.606L1461.49,15.259L1461.2,14.924L1460.92,14.602L1460.65,14.293L1460.14,13.715L1459.68,13.192L1459.26,12.724L1458.9,12.314L1458.58,11.963L1458.32,11.672L1458.11,11.442L1457.96,11.275L1457.84,11.141L1457.61,10.93L1457.33,10.75L1457.01,10.607L1456.67,10.504L1456.3,10.445L1455.93,10.431L1455.56,10.463L1455.2,10.539L1454.86,10.659L1454.56,10.817L1454.3,11.009L1454.09,11.231L1453.93,11.474L1453.84,11.733L1453.81,12L1453.84,27.794L1454.03,154.772L1454.18,291.733L1454.23,359.026L1454.25,422.899L1454.23,480L1454.25,480.22L1454.33,480.434L1454.46,480.634L1454.64,480.816L1454.86,480.972L1455.11,481.099L1455.39,481.193L1455.69,481.25L1456,481.27L1467.75,481.272L1501,481.285L1501.31,481.266L1501.61,481.209L1501.89,481.117L1502.14,480.991L1502.37,480.835L1502.55,480.655L1502.68,480.456L1502.77,480.242L1502.8,480.022L1502.82,479.115L1502.88,476.464L1502.98,472.17L1503.05,469.438L1503.12,466.333L1503.19,462.867L1503.28,459.054L1503.37,454.906L1503.46,450.435L1503.57,445.655L1503.67,440.577L1503.78,435.215L1503.89,429.58L1503.96,426.348L1504.01,423.687L1504.13,417.547L1504.26,411.173L1504.32,407.902L1504.38,404.577L1504.44,401.2L1504.51,397.773L1504.57,394.296L1504.63,390.773L1504.7,387.203L1504.76,383.589L1504.82,379.932L1504.88,376.234L1504.95,372.496L1505.01,368.721L1505.07,364.909L1505.13,361.062L1505.19,357.182L1505.25,353.271L1505.31,349.329L1505.37,345.359L1505.43,341.362L1505.48,337.339L1505.54,333.293L1505.59,329.225L1505.65,325.136L1505.7,321.028L1505.75,316.902L1505.8,312.761L1505.85,308.605L1505.9,304.437L1505.94,300.257L1505.99,296.068L1506.03,291.871L1506.07,287.668L1506.11,283.459L1506.14,279.248L1506.18,275.035L1506.21,270.821L1506.24,267.756L1506.25,266.61L1506.28,262.401L1506.3,258.197L1506.33,253.999L1506.35,249.809L1506.38,245.629L1506.39,241.459L1506.41,237.302L1506.42,233.159L1506.44,229.031L1506.45,224.921L1506.45,220.83L1506.45,218.792L1506.45,216.76L1506.45,214.732L1506.45,212.711L1506.45,210.695L1506.45,208.686L1506.45,206.682L1506.45,204.686L1506.44,202.696L1506.44,200.713L1506.43,198.736L1506.43,196.768L1506.42,194.806L1506.41,192.853L1506.4,190.907L1506.39,188.969L1506.38,187.04L1506.37,185.119L1506.36,183.206L1506.35,181.303L1506.33,179.408L1506.32,177.523L1506.3,175.647L1506.28,173.781L1506.27,171.925L1506.25,170.079L1506.23,168.243L1506.21,166.417L1506.19,164.602L1506.16,162.798L1506.14,161.005L1506.12,159.223L1506.09,157.453L1506.07,155.694L1506.04,153.947L1506.01,152.212L1505.98,150.489L1505.95,148.779L1505.92,147.081L1505.89,145.396L1505.86,143.724L1505.82,142.065L1505.79,140.419L1505.77,139.622L1505.75,138.787L1505.71,137.169L1505.67,135.565L1505.64,133.975L1505.6,132.399L1505.55,130.838L1505.51,129.292L1505.47,127.76L1505.42,126.244L1505.38,124.743L1505.33,123.258L1505.28,121.788L1505.23,120.335L1505.18,118.897L1505.13,117.476L1505.08,116.071L1505.02,114.683L1504.97,113.312L1504.91,111.958L1504.85,110.621L1504.79,109.302L1504.73,108L1504.67,106.717L1504.61,105.451L1504.54,104.204L1504.48,102.975L1504.41,101.764L1504.34,100.573L1504.27,99.401L1504.2,98.247L1504.13,97.114L1504.06,96L1503.98,94.905L1503.9,93.831L1503.87,93.301L1503.83,92.777L1503.79,92.257L1503.75,91.743L1503.71,91.233L1503.67,90.729L1503.63,90.23L1503.59,89.737L1503.55,89.248L1503.5,88.765L1503.46,88.287L1503.42,87.814L1503.38,87.347L1503.33,86.884L1503.32,86.709ZM1498.76,88.035L1498.8,88.504L1498.84,88.977L1498.89,89.457L1498.93,89.941L1498.97,90.431L1499.01,90.926L1499.06,91.427L1499.1,91.932L1499.14,92.443L1499.18,92.959L1499.22,93.48L1499.26,94.006L1499.34,95.075L1499.42,96.163L1499.49,97.272L1499.57,98.4L1499.64,99.548L1499.72,100.715L1499.79,101.902L1499.86,103.107L1499.93,104.332L1500,105.575L1500.07,106.836L1500.13,108.116L1500.2,109.413L1500.26,110.729L1500.32,112.062L1500.38,113.413L1500.44,114.78L1500.5,116.165L1500.56,117.567L1500.62,118.985L1500.67,120.42L1500.73,121.87L1500.78,123.337L1500.83,124.82L1500.88,126.318L1500.93,127.832L1500.98,129.361L1501.03,130.905L1501.08,132.464L1501.12,134.037L1501.17,135.625L1501.21,137.227L1501.26,138.843L1501.28,139.677L1501.3,140.473L1501.34,142.117L1501.38,143.774L1501.41,145.444L1501.45,147.127L1501.49,148.823L1501.52,150.532L1501.56,152.253L1501.59,153.986L1501.62,155.732L1501.66,157.489L1501.69,159.258L1501.72,161.039L1501.75,162.83L1501.77,164.633L1501.8,166.447L1501.83,168.271L1501.85,170.105L1501.88,171.95L1501.9,173.805L1501.92,175.67L1501.94,177.545L1501.96,179.429L1501.98,181.322L1502,183.225L1502.02,185.136L1502.04,187.056L1502.05,188.984L1502.07,190.921L1502.09,192.866L1502.1,194.818L1502.11,196.779L1502.13,198.747L1502.14,200.722L1502.15,202.704L1502.16,204.693L1502.17,206.689L1502.18,208.691L1502.18,210.7L1502.19,212.715L1502.2,214.736L1502.2,216.762L1502.21,218.794L1502.21,220.831L1502.22,224.921L1502.23,229.03L1502.23,233.156L1502.23,237.297L1502.22,241.453L1502.22,245.621L1502.21,249.801L1502.2,253.99L1502.18,258.187L1502.17,262.39L1502.15,266.597L1502.15,267.743L1502.13,270.808L1502.11,275.02L1502.08,279.233L1502.06,283.443L1502.03,287.651L1502,291.853L1501.97,296.05L1501.93,300.238L1501.9,304.417L1501.86,308.584L1501.83,312.739L1501.79,316.88L1501.75,321.005L1501.7,325.112L1501.66,329.201L1501.62,333.268L1501.57,337.314L1501.52,341.336L1501.48,345.332L1501.43,349.302L1501.38,353.243L1501.33,357.154L1501.28,361.034L1501.23,364.88L1501.18,368.691L1501.12,372.467L1501.07,376.204L1501.02,379.901L1500.96,383.558L1500.91,387.171L1500.86,390.741L1500.8,394.264L1500.75,397.74L1500.69,401.167L1500.64,404.544L1500.59,407.868L1500.53,411.139L1500.42,417.512L1500.32,423.652L1500.27,426.312L1500.21,429.545L1500.11,435.178L1500.01,440.54L1499.91,445.617L1499.82,450.397L1499.73,454.867L1499.65,459.015L1499.57,462.827L1499.5,466.292L1499.43,469.397L1499.38,472.129L1499.28,476.422L1499.23,478.714L1470.13,478.714L1470.12,478.728L1457.77,478.73L1457.77,478.731L1457.77,420.325L1457.75,420.338L1457.77,356.855L1457.82,289.962L1457.97,153.834L1458.16,27.685L1458.18,17.431L1458.34,17.62L1458.66,17.989L1458.99,18.37L1459.32,18.764L1459.66,19.169L1460.02,19.585L1460.38,20.013L1460.74,20.453L1461.12,20.903L1461.5,21.364L1461.9,21.836L1462.3,22.319L1462.7,22.811L1463.11,23.314L1463.53,23.827L1463.96,24.35L1464.39,24.882L1464.83,25.423L1465.27,25.974L1465.72,26.534L1466.17,27.103L1466.63,27.681L1467.09,28.267L1467.56,28.861L1468.03,29.463L1468.51,30.074L1468.99,30.692L1469.47,31.318L1469.96,31.951L1470.45,32.592L1470.94,33.239L1471.43,33.894L1471.93,34.555L1472.43,35.222L1472.93,35.896L1473.43,36.577L1473.94,37.263L1474.44,37.955L1474.69,38.303L1474.95,38.652L1475.2,39.003L1475.45,39.355L1475.71,39.708L1475.96,40.063L1476.22,40.419L1476.47,40.776L1476.72,41.135L1476.98,41.494L1477.23,41.855L1477.48,42.217L1477.74,42.58L1477.99,42.944L1478.24,43.309L1478.5,43.676L1478.75,44.043L1479,44.411L1479.25,44.781L1479.51,45.151L1479.76,45.522L1480.01,45.894L1480.26,46.268L1480.51,46.641L1480.76,47.016L1481.01,47.392L1481.26,47.768L1481.51,48.145L1481.75,48.523L1482,48.902L1482.25,49.282L1482.49,49.662L1482.74,50.042L1482.98,50.424L1483.22,50.806L1483.47,51.188L1483.71,51.572L1483.95,51.955L1484.19,52.34L1484.43,52.724L1484.67,53.11L1484.9,53.495L1485.14,53.882L1485.38,54.268L1485.61,54.655L1485.84,55.043L1486.08,55.43L1486.31,55.818L1486.54,56.206L1486.77,56.595L1486.99,56.984L1487.22,57.373L1487.44,57.762L1487.67,58.152L1487.89,58.541L1488.11,58.931L1488.33,59.321L1488.55,59.711L1488.76,60.101L1488.98,60.491L1489.19,60.881L1489.4,61.271L1489.61,61.661L1489.82,62.051L1490.03,62.44L1490.23,62.83L1490.44,63.22L1490.64,63.609L1490.84,63.999L1491.04,64.388L1491.24,64.777L1491.43,65.165L1491.62,65.554L1491.81,65.942L1492,66.329L1492.19,66.717L1492.38,67.104L1492.56,67.491L1492.74,67.877L1492.92,68.263L1493.1,68.648L1493.27,69.033L1493.44,69.417L1493.61,69.801L1493.78,70.184L1493.95,70.567L1494.11,70.949L1494.27,71.331L1494.43,71.712L1494.59,72.092L1494.74,72.471L1494.89,72.85L1495.04,73.228L1495.19,73.605L1495.33,73.981L1495.48,74.357L1495.62,74.732L1495.75,75.106L1495.89,75.479L1496.02,75.851L1496.15,76.222L1496.27,76.592L1496.4,76.961L1496.52,77.329L1496.63,77.696L1496.75,78.062L1496.86,78.427L1496.97,78.79L1497.08,79.153L1497.18,79.514L1497.28,79.875L1497.38,80.234L1497.47,80.591L1497.57,80.948L1497.65,81.303L1497.74,81.658L1497.78,81.833L1497.82,82.009L1497.86,82.185L1497.9,82.36L1497.94,82.535L1497.98,82.71L1498.01,82.884L1498.05,83.058L1498.09,83.232L1498.12,83.405L1498.15,83.578L1498.19,83.75L1498.22,83.922L1498.25,84.094L1498.28,84.265L1498.31,84.436L1498.34,84.606L1498.37,84.777L1498.39,84.946L1498.42,85.116L1498.44,85.285L1498.47,85.453L1498.49,85.621L1498.52,85.789L1498.54,85.956L1498.56,86.123L1498.58,86.289L1498.6,86.455L1498.62,86.621L1498.63,86.786L1498.65,86.951L1498.67,87.117L1498.71,87.572L1498.76,88.035Z" style="fill:rgb(55,55,55);"/>
            </g>
            <g transform="matrix(-1.06917,0,0,-1.49409,3301.43,1014.73)">
                <path d="M1501,87C1498.21,57.979 1456,12 1456,12L1456,480L1501,480C1501,480 1508.5,165 1501,87Z" style="fill:url(#_Linear1);"/>
                <path d="M1503.42,87.814L1503.46,88.287L1503.5,88.765L1503.55,89.248L1503.59,89.737L1503.63,90.23L1503.67,90.729L1503.71,91.233L1503.75,91.743L1503.79,92.257L1503.83,92.777L1503.87,93.301L1503.9,93.831L1503.98,94.905L1504.06,96L1504.13,97.114L1504.2,98.247L1504.27,99.401L1504.34,100.573L1504.41,101.764L1504.48,102.975L1504.54,104.204L1504.61,105.451L1504.67,106.717L1504.73,108L1504.79,109.302L1504.85,110.621L1504.91,111.958L1504.97,113.312L1505.02,114.683L1505.08,116.071L1505.13,117.476L1505.18,118.897L1505.23,120.335L1505.28,121.788L1505.33,123.258L1505.38,124.743L1505.42,126.244L1505.47,127.76L1505.51,129.292L1505.55,130.838L1505.6,132.399L1505.64,133.975L1505.67,135.565L1505.71,137.169L1505.75,138.787L1505.77,139.622L1505.79,140.419L1505.82,142.065L1505.86,143.724L1505.89,145.396L1505.92,147.081L1505.95,148.779L1505.98,150.489L1506.01,152.212L1506.04,153.947L1506.07,155.694L1506.09,157.453L1506.12,159.223L1506.14,161.005L1506.16,162.798L1506.19,164.602L1506.21,166.417L1506.23,168.243L1506.25,170.079L1506.27,171.925L1506.28,173.781L1506.3,175.647L1506.32,177.523L1506.33,179.408L1506.35,181.303L1506.36,183.206L1506.37,185.119L1506.38,187.04L1506.39,188.969L1506.4,190.907L1506.41,192.853L1506.42,194.806L1506.43,196.768L1506.43,198.736L1506.44,200.713L1506.44,202.696L1506.45,204.686L1506.45,206.682L1506.45,208.686L1506.45,210.695L1506.45,212.711L1506.45,214.732L1506.45,216.76L1506.45,218.792L1506.45,220.83L1506.45,224.921L1506.44,229.031L1506.42,233.159L1506.41,237.302L1506.39,241.459L1506.38,245.629L1506.35,249.809L1506.33,253.999L1506.3,258.197L1506.28,262.401L1506.25,266.61L1506.24,267.756L1506.21,270.821L1506.18,275.035L1506.14,279.248L1506.11,283.459L1506.07,287.668L1506.03,291.871L1505.99,296.068L1505.94,300.257L1505.9,304.437L1505.85,308.605L1505.8,312.761L1505.75,316.902L1505.7,321.028L1505.65,325.136L1505.59,329.225L1505.54,333.293L1505.48,337.339L1505.43,341.362L1505.37,345.359L1505.31,349.329L1505.25,353.271L1505.19,357.182L1505.13,361.062L1505.07,364.909L1505.01,368.721L1504.95,372.496L1504.88,376.234L1504.82,379.932L1504.76,383.589L1504.7,387.203L1504.63,390.773L1504.57,394.296L1504.51,397.773L1504.44,401.2L1504.38,404.577L1504.32,407.902L1504.26,411.173L1504.13,417.547L1504.01,423.687L1503.96,426.348L1503.89,429.58L1503.78,435.215L1503.67,440.577L1503.57,445.655L1503.46,450.435L1503.37,454.906L1503.28,459.054L1503.19,462.867L1503.12,466.333L1503.05,469.438L1502.98,472.17L1502.88,476.464L1502.82,479.115L1502.8,480.022L1502.77,480.242L1502.77,480.242L1502.68,480.456L1502.55,480.655L1502.37,480.835L1502.14,480.991L1501.89,481.117L1501.61,481.209L1501.31,481.266L1501,481.285L1467.75,481.272L1456,481.27L1455.69,481.25L1455.39,481.193L1455.11,481.099L1454.86,480.972L1454.64,480.816L1454.64,480.816L1454.46,480.634L1454.33,480.434L1454.25,480.22L1454.23,480L1454.25,422.899L1454.23,359.026L1454.18,291.733L1454.03,154.772L1453.84,27.794L1453.81,12L1453.84,11.733L1453.93,11.474L1454.09,11.231L1454.3,11.009L1454.56,10.817L1454.86,10.659L1455.2,10.539L1455.56,10.463L1455.93,10.431L1456.3,10.445L1456.67,10.504L1457.01,10.607L1457.33,10.75L1457.61,10.93L1457.84,11.141L1457.96,11.275L1458.11,11.442L1458.32,11.672L1458.58,11.963L1458.9,12.314L1459.26,12.724L1459.68,13.192L1460.14,13.715L1460.65,14.293L1460.92,14.602L1461.2,14.924L1461.49,15.259L1461.79,15.606L1462.1,15.966L1462.42,16.339L1462.75,16.723L1463.09,17.12L1463.44,17.528L1463.8,17.948L1464.16,18.38L1464.53,18.823L1464.92,19.277L1465.31,19.741L1465.7,20.217L1466.11,20.703L1466.52,21.2L1466.94,21.706L1467.36,22.223L1467.79,22.75L1468.23,23.286L1468.67,23.832L1469.12,24.387L1469.58,24.951L1470.04,25.524L1470.5,26.106L1470.97,26.697L1471.44,27.296L1471.92,27.903L1472.4,28.519L1472.89,29.142L1473.38,29.773L1473.87,30.411L1474.37,31.057L1474.87,31.71L1475.37,32.37L1475.87,33.036L1476.38,33.71L1476.89,34.39L1477.4,35.076L1477.91,35.768L1478.42,36.466L1478.68,36.817L1478.94,37.17L1479.19,37.524L1479.45,37.879L1479.71,38.236L1479.97,38.594L1480.23,38.954L1480.48,39.314L1480.74,39.676L1481,40.039L1481.26,40.404L1481.51,40.769L1481.77,41.136L1482.03,41.504L1482.29,41.873L1482.54,42.243L1482.8,42.615L1483.06,42.987L1483.31,43.36L1483.57,43.734L1483.83,44.11L1484.08,44.486L1484.34,44.863L1484.59,45.241L1484.85,45.621L1485.1,46.001L1485.35,46.381L1485.61,46.763L1485.86,47.145L1486.11,47.529L1486.36,47.913L1486.61,48.298L1486.86,48.683L1487.11,49.069L1487.36,49.456L1487.6,49.844L1487.85,50.232L1488.1,50.621L1488.34,51.01L1488.59,51.401L1488.83,51.791L1489.07,52.182L1489.31,52.574L1489.55,52.966L1489.79,53.359L1490.03,53.752L1490.27,54.145L1490.5,54.539L1490.74,54.933L1490.97,55.328L1491.2,55.723L1491.43,56.118L1491.66,56.513L1491.89,56.909L1492.12,57.305L1492.35,57.702L1492.57,58.098L1492.8,58.495L1493.02,58.892L1493.24,59.289L1493.46,59.686L1493.67,60.083L1493.89,60.48L1494.1,60.877L1494.32,61.275L1494.53,61.672L1494.74,62.07L1494.94,62.467L1495.15,62.864L1495.35,63.261L1495.56,63.659L1495.76,64.056L1495.95,64.452L1496.15,64.849L1496.35,65.246L1496.54,65.642L1496.73,66.038L1496.92,66.434L1497.11,66.83L1497.29,67.225L1497.47,67.62L1497.65,68.015L1497.83,68.409L1498.01,68.803L1498.18,69.197L1498.36,69.59L1498.53,69.982L1498.69,70.375L1498.86,70.767L1499.02,71.158L1499.18,71.549L1499.34,71.939L1499.5,72.329L1499.65,72.718L1499.8,73.107L1499.95,73.495L1500.09,73.882L1500.24,74.268L1500.38,74.654L1500.51,75.04L1500.65,75.424L1500.78,75.808L1500.91,76.191L1501.04,76.574L1501.16,76.955L1501.28,77.336L1501.4,77.716L1501.52,78.095L1501.63,78.473L1501.74,78.85L1501.84,79.226L1501.95,79.602L1502.05,79.976L1502.14,80.35L1502.24,80.722L1502.33,81.093L1502.37,81.279L1502.42,81.464L1502.46,81.649L1502.5,81.834L1502.54,82.018L1502.58,82.202L1502.62,82.386L1502.66,82.569L1502.7,82.753L1502.74,82.935L1502.77,83.118L1502.81,83.3L1502.84,83.483L1502.88,83.664L1502.91,83.846L1502.94,84.027L1502.97,84.208L1503,84.389L1503.03,84.569L1503.06,84.749L1503.09,84.929L1503.12,85.108L1503.14,85.287L1503.17,85.466L1503.19,85.645L1503.21,85.823L1503.24,86.001L1503.26,86.178L1503.28,86.355L1503.3,86.532L1503.32,86.709L1503.33,86.884L1503.38,87.347L1503.42,87.814ZM1457.77,478.73L1470.12,478.728L1470.13,478.714L1499.23,478.714L1499.28,476.422L1499.38,472.129L1499.43,469.397L1499.5,466.292L1499.57,462.827L1499.65,459.015L1499.73,454.867L1499.82,450.397L1499.91,445.617L1500.01,440.54L1500.11,435.178L1500.21,429.545L1500.27,426.312L1500.32,423.652L1500.42,417.512L1500.53,411.139L1500.59,407.868L1500.64,404.544L1500.69,401.167L1500.75,397.74L1500.8,394.264L1500.86,390.741L1500.91,387.171L1500.96,383.558L1501.02,379.901L1501.07,376.204L1501.12,372.467L1501.18,368.691L1501.23,364.88L1501.28,361.034L1501.33,357.154L1501.38,353.243L1501.43,349.302L1501.48,345.332L1501.52,341.336L1501.57,337.314L1501.62,333.268L1501.66,329.201L1501.7,325.112L1501.75,321.005L1501.79,316.88L1501.83,312.739L1501.86,308.584L1501.9,304.417L1501.93,300.238L1501.97,296.05L1502,291.853L1502.03,287.651L1502.06,283.443L1502.08,279.233L1502.11,275.02L1502.13,270.808L1502.15,267.743L1502.15,266.597L1502.17,262.39L1502.18,258.187L1502.2,253.99L1502.21,249.801L1502.22,245.621L1502.22,241.453L1502.23,237.297L1502.23,233.156L1502.23,229.03L1502.22,224.921L1502.21,220.831L1502.21,218.794L1502.2,216.762L1502.2,214.736L1502.19,212.715L1502.18,210.7L1502.18,208.691L1502.17,206.689L1502.16,204.693L1502.15,202.704L1502.14,200.722L1502.13,198.747L1502.11,196.779L1502.1,194.818L1502.09,192.866L1502.07,190.921L1502.05,188.984L1502.04,187.056L1502.02,185.136L1502,183.225L1501.98,181.322L1501.96,179.429L1501.94,177.545L1501.92,175.67L1501.9,173.805L1501.88,171.95L1501.85,170.105L1501.83,168.271L1501.8,166.447L1501.77,164.633L1501.75,162.83L1501.72,161.039L1501.69,159.258L1501.66,157.489L1501.62,155.732L1501.59,153.986L1501.56,152.253L1501.52,150.532L1501.49,148.823L1501.45,147.127L1501.41,145.444L1501.38,143.774L1501.34,142.117L1501.3,140.473L1501.28,139.677L1501.26,138.843L1501.21,137.227L1501.17,135.625L1501.12,134.037L1501.08,132.464L1501.03,130.905L1500.98,129.361L1500.93,127.832L1500.88,126.318L1500.83,124.82L1500.78,123.337L1500.73,121.87L1500.67,120.42L1500.62,118.985L1500.56,117.567L1500.5,116.165L1500.44,114.78L1500.38,113.413L1500.32,112.062L1500.26,110.729L1500.2,109.413L1500.13,108.116L1500.07,106.836L1500,105.575L1499.93,104.332L1499.86,103.107L1499.79,101.902L1499.72,100.715L1499.64,99.548L1499.57,98.4L1499.49,97.272L1499.42,96.163L1499.34,95.075L1499.26,94.006L1499.22,93.48L1499.18,92.959L1499.14,92.443L1499.1,91.932L1499.06,91.427L1499.01,90.926L1498.97,90.431L1498.93,89.941L1498.89,89.457L1498.84,88.977L1498.8,88.504L1498.76,88.035L1498.71,87.572L1498.67,87.117L1498.65,86.951L1498.63,86.786L1498.62,86.621L1498.6,86.455L1498.58,86.289L1498.56,86.123L1498.54,85.956L1498.52,85.789L1498.49,85.621L1498.47,85.453L1498.44,85.285L1498.42,85.116L1498.39,84.946L1498.37,84.777L1498.34,84.606L1498.31,84.436L1498.28,84.265L1498.25,84.094L1498.22,83.922L1498.19,83.75L1498.15,83.578L1498.12,83.405L1498.11,83.344L1498.09,83.232L1498.05,83.058L1498.01,82.884L1497.98,82.71L1497.94,82.535L1497.9,82.36L1497.86,82.185L1497.82,82.009L1497.78,81.833L1497.74,81.658L1497.65,81.303L1497.57,80.948L1497.47,80.591L1497.38,80.234L1497.28,79.875L1497.18,79.514L1497.08,79.153L1496.97,78.79L1496.86,78.427L1496.75,78.062L1496.63,77.696L1496.52,77.329L1496.4,76.961L1496.27,76.592L1496.15,76.222L1496.02,75.851L1495.89,75.479L1495.75,75.106L1495.62,74.732L1495.48,74.357L1495.33,73.981L1495.19,73.605L1495.04,73.228L1494.89,72.85L1494.74,72.471L1494.59,72.092L1494.43,71.712L1494.27,71.331L1494.11,70.949L1493.95,70.567L1493.78,70.184L1493.61,69.801L1493.44,69.417L1493.27,69.033L1493.1,68.648L1492.92,68.263L1492.74,67.877L1492.56,67.491L1492.38,67.104L1492.19,66.717L1492,66.329L1491.81,65.942L1491.62,65.554L1491.43,65.165L1491.24,64.777L1491.04,64.388L1490.84,63.999L1490.64,63.609L1490.44,63.22L1490.23,62.83L1490.03,62.44L1489.82,62.051L1489.61,61.661L1489.4,61.271L1489.19,60.881L1488.98,60.491L1488.76,60.101L1488.55,59.711L1488.33,59.321L1488.11,58.931L1487.89,58.541L1487.67,58.152L1487.44,57.762L1487.22,57.373L1486.99,56.984L1486.77,56.595L1486.54,56.206L1486.31,55.818L1486.08,55.43L1485.84,55.043L1485.61,54.655L1485.38,54.268L1485.14,53.882L1484.9,53.495L1484.67,53.11L1484.43,52.724L1484.19,52.34L1483.95,51.955L1483.71,51.572L1483.47,51.188L1483.22,50.806L1482.98,50.424L1482.74,50.042L1482.49,49.662L1482.25,49.282L1482,48.902L1481.75,48.523L1481.51,48.145L1481.26,47.768L1481.01,47.392L1480.76,47.016L1480.51,46.641L1480.26,46.268L1480.01,45.894L1479.76,45.522L1479.51,45.151L1479.25,44.781L1479,44.411L1478.75,44.043L1478.5,43.676L1478.24,43.309L1477.99,42.944L1477.74,42.58L1477.48,42.217L1477.23,41.855L1476.98,41.494L1476.72,41.135L1476.47,40.776L1476.22,40.419L1475.96,40.063L1475.71,39.708L1475.45,39.355L1475.2,39.003L1474.95,38.652L1474.69,38.303L1474.44,37.955L1473.94,37.263L1473.43,36.577L1472.93,35.896L1472.43,35.222L1471.93,34.555L1471.43,33.894L1470.94,33.239L1470.45,32.592L1469.96,31.951L1469.47,31.318L1468.99,30.692L1468.51,30.074L1468.03,29.463L1467.56,28.861L1467.09,28.267L1466.63,27.681L1466.17,27.103L1465.72,26.534L1465.27,25.974L1464.83,25.423L1464.39,24.882L1463.96,24.35L1463.53,23.827L1463.11,23.314L1462.7,22.811L1462.3,22.319L1461.9,21.836L1461.5,21.364L1461.12,20.903L1460.74,20.453L1460.38,20.013L1460.02,19.585L1459.66,19.169L1459.32,18.764L1458.99,18.37L1458.66,17.989L1458.34,17.62L1458.18,17.431L1458.16,27.685L1457.97,153.834L1457.82,289.962L1457.77,356.855L1457.75,420.338L1457.77,420.325L1457.77,478.731L1457.77,478.73Z" style="fill:rgb(55,55,55);"/>
            </g>
            <g transform="matrix(1.06917,0,0,-1.06917,60.2468,1049.19)">
                <path d="M1659.29,702L1670,691.287L1696.21,717.5L1670,743.713L1659.29,733L1491.71,733L1481,743.713L1454.79,717.5L1481,691.287L1491.71,702L1659.29,702Z" style="fill:url(#_Linear2);"/>
                <path d="M1558.98,699.955L1492.5,700.105L1492.5,700.107L1482.34,689.949L1482.32,689.97L1482.09,689.78L1481.85,689.629L1481.58,689.518L1481.29,689.451L1481,689.428L1481,689.429L1480.71,689.452L1480.43,689.521L1480.16,689.634L1479.91,689.786L1479.69,689.976L1476.13,693.555L1453.51,716.228L1453.31,716.468L1453.16,716.74L1453.05,717.035L1453,717.343L1453,717.657L1453,717.657L1453.05,717.965L1453.16,718.258L1453.32,718.529L1453.52,718.768L1461.65,726.879L1479.75,744.959L1479.96,745.138L1480.2,745.282L1480.46,745.388L1480.73,745.452L1481,745.474L1481.28,745.452L1481.28,745.452L1481.54,745.387L1481.8,745.281L1482.03,745.136L1482.24,744.957L1490.58,736.61L1492.44,734.752L1492.44,734.753L1525.1,734.753L1525.1,734.769L1561.98,734.816L1636.97,734.972L1658.45,735.029L1658.44,735.031L1668.56,745.15L1668.54,745.175L1668.78,745.387L1669.06,745.557L1669.36,745.682L1669.68,745.759L1670,745.786L1670,745.786L1670.32,745.762L1670.64,745.687L1670.94,745.563L1671.22,745.394L1671.47,745.183L1696.52,720.257L1697.75,719.034L1697.99,718.745L1698.18,718.418L1698.31,718.063L1698.38,717.69L1698.38,717.31L1698.38,717.31L1698.32,716.936L1698.19,716.579L1698,716.249L1697.76,715.957L1671.62,689.672L1671.34,689.438L1671.04,689.249L1670.71,689.111L1670.36,689.026L1670,688.996L1669.64,689.024L1669.64,689.023L1669.29,689.106L1668.96,689.242L1668.65,689.429L1668.38,689.662L1659.42,698.569L1658.32,699.665L1630.07,699.753L1558.98,699.955ZM1481,741.222L1465.12,725.321L1465.14,725.312L1457.33,717.5L1457.33,717.5L1476.84,698.057L1476.84,698.075L1481,693.915L1481,693.921L1490.38,703.337L1490.6,703.53L1490.85,703.686L1491.13,703.801L1491.42,703.871L1491.71,703.895L1557.88,704.045L1629.74,704.247L1659.29,704.338L1659.65,704.309L1660.01,704.224L1660.35,704.083L1660.66,703.892L1660.94,703.653L1662.24,702.342L1662.22,702.31L1670,694.527L1670,694.365L1693.14,717.5L1693.15,717.5L1690.82,719.833L1690.94,719.846L1670,740.782L1670,740.79L1660.73,731.562L1660.48,731.355L1660.21,731.19L1659.91,731.069L1659.6,730.995L1659.29,730.971L1638.3,731.028L1561.7,731.184L1524.07,731.231L1491.71,731.247L1491.44,731.268L1491.17,731.333L1490.92,731.438L1490.68,731.582L1490.47,731.761L1489.5,732.732L1489.5,732.726L1481,741.224L1481,741.222Z" style="fill:rgb(55,55,55);"/>
            </g>
        </g>
    </g>
    <defs>
        <linearGradient id="_Linear1" x1="0" y1="0" x2="1" y2="0" gradientUnits="userSpaceOnUse" gradientTransform="matrix(48.3333,0,0,468,1456,246)"><stop offset="0" style="stop-color:rgb(117,120,124);stop-opacity:1"/><stop offset="1" style="stop-color:rgb(172,173,176);stop-opacity:1"/></linearGradient>
        <linearGradient id="_Linear2" x1="0" y1="0" x2="1" y2="0" gradientUnits="userSpaceOnUse" gradientTransform="matrix(241.426,0,0,52.4264,1454.79,717.5)"><stop offset="0" style="stop-color:rgb(117,120,124);stop-opacity:1"/><stop offset="1" style="stop-color:rgb(172,173,176);stop-opacity:1"/></linearGradient>
    </defs>
</svg>
