<?xml version="1.0" encoding="UTF-8" standalone="no"?>
<!DOCTYPE svg PUBLIC "-//W3C//DTD SVG 1.1//EN" "http://www.w3.org/Graphics/SVG/1.1/DTD/svg11.dtd">
<svg width="100%" height="100%" viewBox="0 0 197 441" version="1.1" xmlns="http://www.w3.org/2000/svg" xmlns:xlink="http://www.w3.org/1999/xlink" xml:space="preserve" xmlns:serif="http://www.serif.com/" style="fill-rule:evenodd;clip-rule:evenodd;stroke-linejoin:round;stroke-miterlimit:1.41421;">
    <g transform="matrix(1,0,0,1,-1250,-562)">
        <g>
            <g transform="matrix(0.889289,0,0,2.10981,-80.4841,-434.864)">
                <rect x="1591" y="581" width="32" height="99" style="fill:rgb(114,96,92);"/>
                <path d="M1623.96,579.887L1624.41,579.974L1624.81,580.092L1625.15,580.238L1625.43,580.408L1625.64,580.595L1625.77,580.794L1625.81,581L1625.7,593.296L1625.46,623.192L1625.22,660.203L1625.14,678.1L1625.13,680L1625.1,680.156L1625,680.307L1624.85,680.449L1624.63,680.577L1624.37,680.688L1624.37,680.688L1624.07,680.777L1623.73,680.843L1623.37,680.884L1623,680.897L1591,680.888L1590.84,680.882L1590.63,680.874L1590.28,680.834L1589.95,680.769L1589.64,680.68L1589.39,680.571L1589.38,680.571L1589.17,680.444L1589.02,680.304L1588.92,680.154L1588.89,680L1588.87,667.234L1588.82,651.479L1588.63,619.414L1588.4,589.685L1588.32,581L1588.36,580.804L1588.48,580.613L1588.67,580.434L1588.94,580.272L1589.27,580.132L1589.27,580.131L1589.65,580.017L1590.08,579.933L1590.53,579.881L1591,579.862L1620.67,579.819L1623,579.815L1623.49,579.833L1623.96,579.887ZM1593.6,591.535L1593.37,619.9L1593.18,650.612L1593.13,665.728L1593.11,665.734L1593.11,679.112L1593.11,679.112L1595.13,679.112L1595.14,679.102L1620.87,679.102L1620.87,679.101L1620.86,676.079L1620.78,658.528L1620.54,622.257L1620.3,593.011L1620.2,582.134L1593.69,582.133L1593.68,582.129L1593.6,591.535Z" style="fill:rgb(55,55,55);"/>
            </g>
            <g transform="matrix(1.12816,0,0,0.768386,-464.349,271.156)">
                <path d="M1623,581L1591,581L1591,680L1607,713.559L1623,680L1623,581Z" style="fill:url(#_Linear1);"/>
                <path d="M1623.76,577.943L1624.11,578.182L1624.42,578.508L1624.7,578.909L1624.92,579.373L1625.08,579.887L1625.18,580.435L1625.22,581L1625.13,598.838L1624.94,642.212L1624.8,680L1624.78,680.402L1624.72,680.795L1624.61,681.169L1624.61,681.168L1624.47,681.513L1618.44,694.035L1608.38,714.983L1608.21,715.287L1608.01,715.547L1607.78,715.756L1607.53,715.908L1607.27,716L1607.26,716.002L1607,716.031L1606.73,715.999L1606.47,715.904L1606.22,715.75L1606,715.539L1605.79,715.278L1605.62,714.974L1597.39,697.701L1597.4,697.684L1589.63,681.409L1589.5,681.087L1589.4,680.739L1589.35,680.374L1589.34,680.374L1589.33,680L1589.32,678.602L1589.28,655.273L1589.13,607.792L1589.02,581L1589.05,580.495L1589.13,580.003L1589.28,579.54L1589.47,579.121L1589.72,578.758L1589.72,578.757L1590,578.46L1590.32,578.24L1590.65,578.103L1591,578.054L1598.51,577.989L1622.04,577.756L1623,577.746L1623.38,577.796L1623.76,577.943ZM1592.87,611.517L1592.72,655.355L1592.68,676.978L1592.67,676.979L1592.67,679.225L1592.67,679.225L1600.51,695.694L1606.99,709.239L1615.14,692.01L1615.09,691.979L1621.2,679.167L1621.2,679.165L1621.06,641.035L1620.87,598.48L1620.8,584.228L1601.57,584.011L1601.53,583.928L1592.99,583.926L1592.98,583.906L1592.87,611.517Z" style="fill:rgb(55,55,55);"/>
            </g>
            <g transform="matrix(1.28933,0,0,1.28933,-893.533,96.7784)">
                <path d="M1739,363L1750.66,393.492L1776,372.914L1770.85,405.15L1803.09,400L1782.51,425.342L1813,437L1782.51,448.658L1803.09,474L1770.85,468.85L1776,501.086L1750.66,480.508L1739,511L1727.34,480.508L1702,501.086L1707.15,468.85L1674.91,474L1695.49,448.658L1665,437L1695.49,425.342L1674.91,400L1707.15,405.15L1702,372.914L1727.34,393.492L1739,363Z" style="fill:rgb(189,189,189);"/>
                <path d="M1751.5,390.399L1774.85,371.496L1775.11,371.321L1775.4,371.192L1775.7,371.115L1776.01,371.09L1776.33,371.12L1776.63,371.203L1776.91,371.336L1777.17,371.516L1777.39,371.737L1777.57,371.993L1777.7,372.276L1777.79,372.578L1777.82,372.889L1777.8,373.201L1775.45,387.745L1772.99,403.026L1802.82,398.302L1803.11,398.281L1803.4,398.311L1803.69,398.391L1803.95,398.519L1804.19,398.69L1804.4,398.9L1804.57,399.142L1804.7,399.41L1804.77,399.695L1804.8,399.988L1804.78,400.282L1804.7,400.567L1804.58,400.836L1804.41,401.079L1785.25,424.615L1800.86,430.607L1813.58,435.486L1813.83,435.608L1814.06,435.771L1814.25,435.97L1814.41,436.2L1814.52,436.453L1814.6,436.723L1814.62,437L1814.59,437.277L1814.52,437.546L1814.41,437.799L1814.25,438.028L1814.05,438.226L1813.83,438.388L1813.58,438.509L1785.11,449.36L1804.28,473.027L1804.43,473.247L1804.54,473.489L1804.61,473.746L1804.63,474.011L1804.6,474.275L1804.53,474.53L1804.42,474.77L1804.27,474.987L1804.08,475.175L1803.87,475.328L1803.63,475.441L1803.37,475.512L1803.11,475.538L1802.84,475.519L1772.66,470.665L1777.46,500.852L1777.48,501.106L1777.45,501.36L1777.39,501.605L1777.28,501.835L1777.13,502.043L1776.95,502.222L1776.74,502.367L1776.51,502.475L1776.26,502.542L1776.01,502.565L1775.76,502.545L1775.51,502.481L1775.28,502.376L1775.07,502.233L1761.36,491.09L1751.3,482.916L1740.36,511.519L1740.25,511.744L1740.1,511.947L1739.92,512.122L1739.72,512.264L1739.49,512.368L1739.25,512.432L1739,512.454L1738.75,512.432L1738.51,512.368L1738.28,512.264L1738.08,512.122L1737.9,511.947L1737.75,511.744L1737.64,511.519L1737.25,510.495L1726.7,482.918L1707.73,498.334L1702.93,502.234L1702.72,502.377L1702.49,502.481L1702.24,502.545L1701.99,502.565L1701.74,502.542L1701.49,502.476L1701.26,502.368L1701.05,502.222L1700.87,502.043L1700.72,501.835L1700.61,501.605L1700.54,501.36L1700.52,501.106L1700.54,500.852L1705.33,470.672L1685.45,473.864L1675.16,475.521L1674.89,475.541L1674.63,475.515L1674.37,475.444L1674.13,475.33L1673.92,475.177L1673.73,474.989L1673.58,474.772L1673.46,474.531L1673.39,474.275L1673.37,474.011L1673.39,473.746L1673.45,473.488L1673.56,473.245L1673.71,473.025L1692.88,449.364L1664.42,438.519L1664.17,438.397L1663.94,438.234L1663.74,438.035L1663.58,437.804L1663.47,437.55L1663.39,437.279L1663.37,437L1663.39,436.721L1663.47,436.449L1663.58,436.194L1663.74,435.963L1663.94,435.762L1664.16,435.598L1664.42,435.475L1692.74,424.61L1682.5,412.027L1673.58,401.082L1673.42,400.838L1673.29,400.569L1673.22,400.283L1673.2,399.988L1673.22,399.694L1673.3,399.408L1673.42,399.14L1673.59,398.897L1673.8,398.687L1674.04,398.515L1674.31,398.387L1674.6,398.307L1674.89,398.277L1675.19,398.298L1705.01,403.019L1700.2,373.202L1700.18,372.889L1700.21,372.577L1700.29,372.275L1700.43,371.991L1700.61,371.735L1700.83,371.513L1701.09,371.333L1701.37,371.199L1701.67,371.116L1701.99,371.087L1702.3,371.111L1702.61,371.189L1702.89,371.318L1703.15,371.494L1721.45,386.311L1726.5,390.398L1737.19,362.308L1737.33,362.007L1737.53,361.737L1737.77,361.503L1738.04,361.314L1738.35,361.175L1738.67,361.09L1739,361.061L1739.33,361.09L1739.65,361.175L1739.96,361.314L1740.23,361.503L1740.47,361.737L1740.67,362.007L1740.81,362.308L1742,365.427L1751.5,390.399ZM1707.17,467.339L1707.43,467.365L1707.68,467.434L1707.91,467.545L1708.12,467.695L1708.31,467.878L1708.45,468.09L1708.56,468.323L1708.63,468.573L1708.66,468.83L1708.64,469.088L1704.08,497.498L1705.87,496.046L1726.42,479.371L1726.63,479.23L1726.86,479.127L1727.1,479.064L1727.35,479.044L1727.6,479.066L1727.84,479.131L1728.07,479.237L1728.28,479.38L1728.45,479.556L1728.6,479.759L1728.71,479.985L1739,506.927L1749.29,479.986L1749.4,479.76L1749.55,479.556L1749.73,479.381L1749.93,479.238L1750.16,479.133L1750.4,479.068L1750.65,479.045L1750.9,479.065L1751.14,479.128L1751.37,479.231L1751.58,479.372L1763.21,488.813L1773.92,497.499L1769.37,469.087L1769.35,468.83L1769.37,468.574L1769.44,468.326L1769.55,468.093L1769.7,467.882L1769.88,467.699L1770.09,467.551L1770.33,467.44L1770.57,467.371L1770.83,467.345L1771.09,467.364L1772.61,467.606L1799.35,471.849L1781.28,449.652L1781.13,449.429L1781.02,449.182L1780.95,448.921L1780.93,448.651L1780.95,448.381L1781.02,448.12L1781.14,447.874L1781.29,447.651L1781.48,447.457L1781.7,447.299L1781.94,447.181L1808.47,437.008L1799.69,433.661L1781.91,426.894L1781.66,426.77L1781.43,426.604L1781.23,426.402L1781.06,426.167L1780.94,425.909L1780.87,425.634L1780.84,425.349L1780.87,425.065L1780.94,424.788L1781.05,424.528L1781.21,424.291L1798.93,402.411L1771.13,406.892L1770.83,406.915L1770.53,406.885L1770.23,406.805L1769.96,406.676L1769.71,406.502L1769.5,406.288L1769.32,406.041L1769.19,405.767L1769.11,405.475L1769.08,405.173L1769.1,404.871L1771.9,387.179L1773.46,377.339L1751.84,394.949L1751.58,395.131L1751.28,395.264L1750.97,395.345L1750.65,395.372L1750.33,395.343L1750.02,395.26L1749.72,395.126L1749.46,394.943L1749.23,394.717L1749.04,394.455L1748.9,394.165L1739,368.406L1729.1,394.165L1728.96,394.455L1728.77,394.717L1728.54,394.943L1728.28,395.126L1727.98,395.261L1727.67,395.343L1727.35,395.372L1727.03,395.345L1726.72,395.264L1726.42,395.131L1726.16,394.95L1719.11,389.204L1704.55,377.347L1708.9,404.87L1708.92,405.173L1708.89,405.476L1708.81,405.769L1708.68,406.044L1708.51,406.292L1708.29,406.506L1708.04,406.681L1707.77,406.81L1707.48,406.891L1707.17,406.92L1706.87,406.898L1679.08,402.417L1685.13,409.889L1696.79,424.287L1696.95,424.524L1697.07,424.786L1697.14,425.064L1697.16,425.349L1697.14,425.635L1697.06,425.912L1696.94,426.172L1696.78,426.407L1696.58,426.611L1696.35,426.778L1696.09,426.902L1669.56,437.009L1696.06,447.174L1696.31,447.293L1696.53,447.452L1696.72,447.646L1696.87,447.87L1696.98,448.117L1697.05,448.38L1697.08,448.651L1697.06,448.922L1696.99,449.185L1696.88,449.432L1696.72,449.656L1678.66,471.846L1684.97,470.845L1706.91,467.358L1707.17,467.339Z" style="fill:rgb(55,55,55);"/>
            </g>
            <g transform="matrix(1.28933,0,0,1.28933,-893.533,96.7784)">
                <circle cx="1739" cy="437" r="54" style="fill:url(#_Linear2);"/>
                <path d="M1739.36,381.064L1739.72,381.069L1740.08,381.076L1740.44,381.085L1740.8,381.097L1741.16,381.111L1741.52,381.127L1741.88,381.145L1742.23,381.166L1742.59,381.189L1742.94,381.214L1743.3,381.241L1743.65,381.271L1744.01,381.303L1744.36,381.337L1744.71,381.373L1745.06,381.411L1745.41,381.452L1745.77,381.494L1746.12,381.539L1746.46,381.586L1746.81,381.635L1747.16,381.686L1747.51,381.74L1747.85,381.795L1748.2,381.853L1748.54,381.913L1748.89,381.975L1749.23,382.038L1749.57,382.105L1749.92,382.173L1750.26,382.243L1750.6,382.315L1750.94,382.389L1751.28,382.466L1751.61,382.544L1751.95,382.625L1752.29,382.707L1752.62,382.792L1752.96,382.878L1753.29,382.967L1753.63,383.057L1753.96,383.15L1754.29,383.245L1754.62,383.341L1754.95,383.44L1755.28,383.54L1755.61,383.643L1755.93,383.747L1756.26,383.853L1756.59,383.962L1756.91,384.072L1757.23,384.184L1757.56,384.298L1757.88,384.414L1758.2,384.532L1758.52,384.652L1758.84,384.773L1759.16,384.897L1759.47,385.023L1759.79,385.15L1760.1,385.279L1760.42,385.41L1760.73,385.543L1761.04,385.678L1761.36,385.814L1761.66,385.953L1761.98,386.093L1762.28,386.235L1762.59,386.379L1762.9,386.525L1763.2,386.672L1763.51,386.821L1763.81,386.972L1764.11,387.125L1764.41,387.28L1764.71,387.436L1765.01,387.594L1765.31,387.754L1765.6,387.915L1765.9,388.079L1766.19,388.244L1766.49,388.41L1766.78,388.579L1767.07,388.749L1767.36,388.921L1767.65,389.094L1767.94,389.27L1768.22,389.446L1768.51,389.625L1768.79,389.805L1769.08,389.987L1769.36,390.171L1769.64,390.356L1769.92,390.543L1770.19,390.731L1770.47,390.921L1770.75,391.113L1771.02,391.306L1771.3,391.501L1771.57,391.697L1771.84,391.895L1772.11,392.095L1772.38,392.296L1772.6,392.462L1772.64,392.499L1772.91,392.703L1773.17,392.908L1773.44,393.116L1773.7,393.324L1773.96,393.535L1774.22,393.747L1774.48,393.96L1774.74,394.175L1774.99,394.391L1775.24,394.609L1775.5,394.828L1775.75,395.049L1776,395.271L1776.25,395.495L1776.5,395.72L1776.74,395.947L1776.99,396.175L1777.23,396.405L1777.47,396.636L1777.71,396.868L1777.95,397.102L1778.19,397.337L1778.43,397.574L1778.66,397.812L1778.89,398.052L1779.13,398.292L1779.36,398.535L1779.59,398.778L1779.81,399.023L1780.04,399.27L1780.27,399.517L1780.49,399.766L1780.71,400.017L1780.93,400.268L1781.15,400.521L1781.37,400.776L1781.58,401.031L1781.8,401.288L1782.01,401.546L1782.22,401.806L1782.43,402.067L1782.64,402.329L1782.85,402.592L1783.05,402.857L1783.26,403.122L1783.46,403.39L1783.66,403.658L1783.86,403.928L1784.06,404.198L1784.25,404.47L1784.44,404.744L1784.64,405.018L1784.83,405.294L1785.02,405.57L1785.2,405.848L1785.39,406.128L1785.58,406.408L1785.76,406.69L1785.94,406.972L1786.12,407.256L1786.3,407.541L1786.47,407.827L1786.65,408.115L1786.82,408.403L1786.99,408.692L1787.16,408.983L1787.33,409.275L1787.49,409.568L1787.66,409.861L1787.82,410.156L1787.98,410.452L1788.14,410.75L1788.3,411.048L1788.45,411.347L1788.61,411.647L1788.76,411.949L1788.91,412.251L1789.06,412.554L1789.2,412.859L1789.35,413.164L1789.49,413.471L1789.63,413.778L1789.77,414.086L1789.91,414.396L1790.05,414.706L1790.18,415.018L1790.31,415.33L1790.44,415.643L1790.57,415.957L1790.7,416.273L1790.82,416.589L1790.94,416.906L1791.06,417.224L1791.18,417.543L1791.3,417.862L1791.41,418.183L1791.53,418.505L1791.64,418.827L1791.75,419.15L1791.86,419.475L1791.96,419.8L1792.07,420.126L1792.17,420.452L1792.27,420.78L1792.36,421.109L1792.46,421.438L1792.55,421.768L1792.64,422.099L1792.74,422.431L1792.82,422.763L1792.91,423.097L1792.99,423.431L1793.07,423.766L1793.15,424.101L1793.23,424.438L1793.31,424.775L1793.38,425.113L1793.45,425.452L1793.52,425.791L1793.59,426.131L1793.65,426.472L1793.72,426.814L1793.78,427.156L1793.84,427.499L1793.89,427.843L1793.95,428.187L1794,428.533L1794.05,428.878L1794.1,429.225L1794.15,429.572L1794.19,429.92L1794.23,430.268L1794.27,430.617L1794.28,430.684L1794.31,430.967L1794.35,431.317L1794.38,431.668L1794.41,432.019L1794.44,432.371L1794.47,432.724L1794.49,433.077L1794.52,433.431L1794.54,433.786L1794.55,434.141L1794.57,434.496L1794.58,434.852L1794.6,435.209L1794.6,435.566L1794.61,435.924L1794.62,436.282L1794.62,436.641L1794.62,437L1794.62,437.359L1794.61,437.718L1794.61,438.076L1794.6,438.434L1794.59,438.791L1794.57,439.147L1794.56,439.503L1794.54,439.859L1794.52,440.214L1794.5,440.568L1794.47,440.921L1794.44,441.274L1794.42,441.627L1794.38,441.978L1794.35,442.33L1794.32,442.68L1794.28,443.03L1794.24,443.379L1794.2,443.728L1794.15,444.076L1794.11,444.423L1794.06,444.769L1794.01,445.115L1793.95,445.46L1793.9,445.805L1793.84,446.149L1793.78,446.492L1793.72,446.834L1793.66,447.176L1793.6,447.516L1793.53,447.857L1793.46,448.196L1793.39,448.535L1793.31,448.872L1793.24,449.209L1793.16,449.546L1793.08,449.881L1793,450.216L1792.91,450.55L1792.83,450.883L1792.74,451.215L1792.65,451.547L1792.56,451.878L1792.47,452.207L1792.37,452.536L1792.27,452.865L1792.17,453.192L1792.07,453.518L1791.97,453.844L1791.86,454.169L1791.76,454.492L1791.65,454.815L1791.54,455.137L1791.42,455.458L1791.31,455.779L1791.19,456.098L1791.07,456.416L1790.95,456.734L1790.83,457.05L1790.71,457.366L1790.58,457.68L1790.45,457.994L1790.32,458.307L1790.19,458.619L1790.06,458.929L1789.92,459.239L1789.78,459.548L1789.64,459.856L1789.5,460.162L1789.36,460.468L1789.22,460.773L1789.07,461.077L1788.92,461.379L1788.77,461.681L1788.62,461.981L1788.47,462.281L1788.31,462.579L1788.15,462.877L1788,463.173L1787.84,463.468L1787.67,463.763L1787.51,464.056L1787.34,464.348L1787.18,464.639L1787.01,464.928L1786.84,465.217L1786.67,465.504L1786.49,465.791L1786.32,466.076L1786.14,466.36L1785.96,466.643L1785.78,466.925L1785.6,467.205L1785.41,467.485L1785.23,467.763L1785.04,468.04L1784.85,468.316L1784.66,468.591L1784.47,468.864L1784.28,469.136L1784.08,469.407L1783.88,469.677L1783.69,469.946L1783.49,470.213L1783.29,470.479L1783.08,470.744L1782.88,471.007L1782.67,471.27L1782.46,471.531L1782.26,471.79L1782.04,472.049L1781.83,472.306L1781.62,472.562L1781.4,472.816L1781.19,473.07L1780.97,473.321L1780.75,473.572L1780.53,473.821L1780.31,474.069L1780.08,474.316L1779.86,474.561L1779.63,474.805L1779.4,475.047L1779.2,475.259L1779.17,475.288L1778.94,475.528L1778.71,475.767L1778.48,476.004L1778.24,476.239L1778,476.474L1777.77,476.707L1777.53,476.938L1777.29,477.168L1777.04,477.397L1776.8,477.624L1776.56,477.85L1776.31,478.074L1776.06,478.297L1775.81,478.518L1775.56,478.738L1775.31,478.957L1775.06,479.174L1774.8,479.389L1774.55,479.603L1774.29,479.815L1774.03,480.026L1773.78,480.236L1773.52,480.444L1773.25,480.65L1772.99,480.855L1772.73,481.058L1772.46,481.26L1772.19,481.46L1771.92,481.658L1771.66,481.855L1771.39,482.051L1771.11,482.245L1770.84,482.437L1770.57,482.627L1770.29,482.816L1770.02,483.004L1769.74,483.189L1769.46,483.374L1769.18,483.556L1768.9,483.737L1768.62,483.916L1768.33,484.094L1768.05,484.27L1767.76,484.444L1767.48,484.616L1767.19,484.787L1766.9,484.956L1766.61,485.124L1766.32,485.29L1766.02,485.454L1765.73,485.616L1765.44,485.777L1765.14,485.935L1764.84,486.093L1764.55,486.248L1764.25,486.402L1763.95,486.553L1763.65,486.704L1763.35,486.852L1763.04,486.998L1762.74,487.143L1762.43,487.286L1762.13,487.427L1761.82,487.567L1761.51,487.704L1761.2,487.84L1760.89,487.974L1760.58,488.106L1760.27,488.236L1759.96,488.365L1759.64,488.491L1759.6,488.509L1759.33,488.616L1759.02,488.739L1758.7,488.861L1758.38,488.98L1758.06,489.097L1757.74,489.213L1757.42,489.327L1757.1,489.438L1756.78,489.548L1756.46,489.656L1756.13,489.762L1755.81,489.866L1755.49,489.969L1755.16,490.069L1754.83,490.167L1754.51,490.263L1754.18,490.358L1753.85,490.45L1753.52,490.54L1753.18,490.629L1752.85,490.715L1752.52,490.799L1752.19,490.882L1751.85,490.962L1751.52,491.04L1751.18,491.116L1750.85,491.191L1750.51,491.263L1750.17,491.333L1749.83,491.401L1749.49,491.467L1749.15,491.531L1748.81,491.593L1748.47,491.653L1748.13,491.71L1747.78,491.766L1747.44,491.819L1747.1,491.871L1746.75,491.92L1746.4,491.967L1746.06,492.012L1745.71,492.055L1745.36,492.096L1745.01,492.134L1744.66,492.171L1744.32,492.205L1743.97,492.237L1743.61,492.267L1743.26,492.294L1742.91,492.32L1742.56,492.343L1742.2,492.364L1741.85,492.383L1741.5,492.4L1741.14,492.414L1740.79,492.426L1740.43,492.436L1740.07,492.444L1739.72,492.45L1739.36,492.453L1739,492.454L1738.64,492.452L1738.28,492.449L1737.93,492.443L1737.57,492.435L1737.48,492.432L1737.21,492.425L1736.86,492.412L1736.5,492.398L1736.15,492.382L1735.8,492.363L1735.44,492.342L1735.09,492.319L1734.74,492.293L1734.39,492.266L1734.04,492.236L1733.68,492.204L1733.34,492.17L1732.99,492.133L1732.64,492.095L1732.29,492.054L1731.94,492.012L1731.6,491.967L1731.25,491.92L1730.9,491.871L1730.56,491.819L1730.22,491.766L1729.87,491.71L1729.53,491.653L1729.19,491.593L1728.85,491.531L1728.51,491.467L1728.17,491.401L1727.83,491.333L1727.49,491.263L1727.15,491.191L1726.82,491.117L1726.48,491.041L1726.15,490.963L1725.81,490.882L1725.48,490.8L1725.15,490.716L1724.81,490.63L1724.48,490.541L1724.15,490.451L1723.82,490.359L1723.5,490.265L1723.17,490.168L1722.84,490.07L1722.51,489.97L1722.19,489.868L1721.86,489.764L1721.54,489.658L1721.22,489.55L1720.9,489.44L1720.58,489.329L1720.26,489.215L1719.94,489.1L1719.62,488.982L1719.3,488.863L1718.98,488.742L1718.67,488.619L1718.35,488.494L1718.04,488.367L1717.73,488.238L1717.42,488.108L1717.11,487.976L1716.8,487.841L1716.49,487.705L1716.18,487.568L1715.87,487.428L1715.57,487.287L1715.26,487.143L1714.96,486.998L1714.65,486.852L1714.35,486.703L1714.28,486.666L1714.05,486.553L1713.75,486.401L1713.45,486.248L1713.16,486.092L1712.86,485.935L1712.56,485.777L1712.27,485.616L1711.98,485.454L1711.68,485.29L1711.39,485.124L1711.1,484.957L1710.81,484.788L1710.53,484.617L1710.24,484.445L1709.95,484.271L1709.67,484.095L1709.38,483.917L1709.1,483.738L1708.82,483.557L1708.54,483.375L1708.26,483.191L1707.98,483.005L1707.71,482.818L1707.43,482.629L1707.16,482.439L1706.88,482.247L1706.61,482.053L1706.34,481.858L1706.07,481.661L1705.81,481.462L1705.54,481.262L1705.27,481.061L1705.01,480.857L1704.75,480.653L1704.48,480.446L1704.22,480.239L1703.96,480.029L1703.7,479.819L1703.45,479.606L1703.19,479.392L1702.94,479.177L1702.69,478.96L1702.43,478.742L1702.18,478.522L1701.93,478.301L1701.69,478.078L1701.44,477.854L1701.2,477.628L1700.95,477.401L1700.71,477.172L1700.47,476.942L1700.23,476.711L1699.99,476.478L1699.76,476.244L1699.52,476.008L1699.29,475.771L1699.06,475.533L1698.82,475.293L1698.59,475.051L1698.37,474.809L1698.14,474.565L1697.91,474.319L1697.69,474.073L1697.47,473.825L1697.25,473.575L1697.03,473.325L1696.81,473.073L1696.59,472.819L1696.38,472.565L1696.16,472.309L1695.95,472.051L1695.74,471.793L1695.53,471.533L1695.33,471.272L1695.12,471.009L1694.92,470.746L1694.71,470.481L1694.51,470.214L1694.31,469.947L1694.11,469.678L1693.92,469.408L1693.72,469.137L1693.65,469.037L1693.53,468.865L1693.34,468.592L1693.15,468.317L1692.96,468.041L1692.77,467.764L1692.59,467.486L1692.4,467.206L1692.22,466.926L1692.04,466.644L1691.86,466.361L1691.68,466.077L1691.51,465.792L1691.33,465.506L1691.16,465.218L1690.99,464.93L1690.82,464.64L1690.65,464.349L1690.49,464.057L1690.32,463.764L1690.16,463.47L1690,463.175L1689.84,462.878L1689.68,462.581L1689.53,462.283L1689.38,461.983L1689.23,461.683L1689.08,461.381L1688.93,461.078L1688.78,460.775L1688.64,460.47L1688.49,460.164L1688.35,459.857L1688.21,459.55L1688.08,459.241L1687.94,458.931L1687.81,458.62L1687.67,458.309L1687.54,457.996L1687.42,457.682L1687.29,457.368L1687.16,457.052L1687.04,456.736L1686.92,456.418L1686.8,456.1L1686.69,455.781L1686.57,455.46L1686.46,455.139L1686.35,454.817L1686.24,454.494L1686.13,454.17L1686.02,453.846L1685.92,453.52L1685.82,453.194L1685.72,452.866L1685.62,452.538L1685.53,452.209L1685.43,451.879L1685.34,451.549L1685.25,451.217L1685.16,450.885L1685.08,450.552L1684.99,450.218L1684.91,449.883L1684.83,449.547L1684.76,449.211L1684.68,448.874L1684.61,448.536L1684.53,448.197L1684.47,447.858L1684.4,447.518L1684.33,447.177L1684.27,446.835L1684.21,446.493L1684.15,446.15L1684.09,445.806L1684.04,445.462L1683.98,445.116L1683.93,444.771L1683.88,444.424L1683.84,444.077L1683.79,443.729L1683.75,443.38L1683.71,443.031L1683.67,442.681L1683.64,442.33L1683.61,441.979L1683.58,441.627L1683.55,441.275L1683.52,440.922L1683.49,440.568L1683.47,440.214L1683.45,439.859L1683.43,439.504L1683.42,439.148L1683.4,438.791L1683.39,438.434L1683.38,438.076L1683.38,437.718L1683.37,437.359L1683.37,437L1683.37,436.641L1683.37,436.282L1683.38,435.924L1683.38,435.566L1683.39,435.208L1683.4,434.852L1683.42,434.496L1683.43,434.14L1683.45,433.785L1683.47,433.43L1683.5,433.076L1683.52,432.723L1683.55,432.37L1683.58,432.018L1683.61,431.667L1683.64,431.316L1683.68,430.965L1683.72,430.616L1683.76,430.266L1683.8,429.918L1683.84,429.57L1683.89,429.223L1683.94,428.877L1683.99,428.531L1684.04,428.186L1684.1,427.841L1684.15,427.497L1684.21,427.154L1684.27,426.812L1684.34,426.47L1684.4,426.129L1684.47,425.789L1684.54,425.45L1684.61,425.111L1684.68,424.773L1684.76,424.436L1684.84,424.099L1684.92,423.764L1685,423.429L1685.08,423.095L1685.17,422.761L1685.26,422.429L1685.35,422.097L1685.44,421.766L1685.53,421.436L1685.63,421.107L1685.73,420.778L1685.83,420.45L1685.93,420.124L1686.03,419.798L1686.14,419.473L1686.25,419.149L1686.36,418.825L1686.47,418.503L1686.58,418.181L1686.69,417.861L1686.81,417.541L1686.93,417.222L1687.05,416.904L1687.17,416.587L1687.3,416.271L1687.43,415.956L1687.56,415.642L1687.69,415.329L1687.82,415.016L1687.83,414.982L1687.95,414.705L1688.09,414.395L1688.23,414.085L1688.36,413.777L1688.51,413.469L1688.65,413.163L1688.79,412.857L1688.94,412.553L1689.09,412.249L1689.24,411.947L1689.39,411.646L1689.54,411.345L1689.7,411.046L1689.86,410.748L1690.02,410.451L1690.18,410.155L1690.34,409.86L1690.5,409.566L1690.67,409.273L1690.84,408.981L1691.01,408.69L1691.18,408.401L1691.35,408.112L1691.52,407.825L1691.7,407.539L1691.88,407.254L1692.06,406.97L1692.24,406.687L1692.42,406.406L1692.61,406.125L1692.79,405.846L1692.98,405.568L1693.17,405.291L1693.36,405.015L1693.55,404.741L1693.75,404.468L1693.94,404.196L1694.14,403.925L1694.34,403.655L1694.54,403.387L1694.74,403.12L1694.94,402.854L1695.15,402.589L1695.36,402.326L1695.56,402.064L1695.77,401.803L1695.99,401.543L1696.2,401.285L1696.41,401.028L1696.63,400.772L1696.85,400.518L1697.07,400.265L1697.29,400.013L1697.51,399.763L1697.73,399.514L1697.96,399.266L1698.18,399.02L1698.41,398.775L1698.64,398.531L1698.87,398.289L1699.1,398.048L1699.34,397.808L1699.57,397.57L1699.81,397.334L1700.05,397.098L1700.28,396.864L1700.52,396.632L1700.77,396.401L1701.01,396.171L1701.26,395.943L1701.5,395.716L1701.75,395.491L1702,395.267L1702.25,395.045L1702.5,394.824L1702.75,394.605L1703.01,394.387L1703.26,394.17L1703.52,393.955L1703.78,393.742L1704.04,393.53L1704.3,393.32L1704.56,393.111L1704.82,392.904L1705.09,392.698L1705.35,392.494L1705.62,392.291L1705.89,392.09L1706.16,391.89L1706.43,391.692L1706.7,391.496L1706.98,391.301L1707.25,391.108L1707.53,390.917L1707.8,390.727L1708.08,390.538L1708.36,390.352L1708.64,390.167L1708.92,389.983L1709.21,389.801L1709.49,389.621L1709.78,389.443L1710.06,389.266L1710.35,389.091L1710.64,388.918L1710.93,388.746L1711.22,388.576L1711.51,388.407L1711.81,388.241L1712.1,388.076L1712.39,387.913L1712.69,387.751L1712.99,387.592L1713.29,387.434L1713.59,387.277L1713.89,387.123L1714.19,386.97L1714.49,386.819L1714.8,386.67L1715.1,386.523L1715.41,386.377L1715.72,386.233L1716.03,386.092L1716.33,385.951L1716.64,385.813L1716.96,385.677L1717.27,385.542L1717.58,385.409L1717.89,385.278L1718.21,385.149L1718.53,385.022L1718.84,384.897L1719.16,384.773L1719.48,384.652L1719.8,384.532L1720.12,384.414L1720.4,384.313L1720.44,384.298L1720.77,384.184L1721.09,384.072L1721.41,383.962L1721.74,383.853L1722.07,383.747L1722.39,383.643L1722.72,383.54L1723.05,383.44L1723.38,383.341L1723.71,383.245L1724.04,383.15L1724.38,383.057L1724.71,382.967L1725.04,382.878L1725.38,382.792L1725.71,382.707L1726.05,382.625L1726.39,382.544L1726.72,382.466L1727.06,382.389L1727.4,382.315L1727.74,382.243L1728.08,382.173L1728.43,382.105L1728.77,382.038L1729.11,381.975L1729.46,381.913L1729.8,381.853L1730.15,381.795L1730.49,381.74L1730.84,381.686L1731.19,381.635L1731.54,381.586L1731.88,381.539L1732.24,381.494L1732.59,381.452L1732.94,381.411L1733.29,381.373L1733.64,381.337L1733.99,381.303L1734.35,381.271L1734.7,381.241L1735.06,381.214L1735.41,381.189L1735.77,381.166L1736.13,381.145L1736.48,381.127L1736.84,381.111L1737.2,381.097L1737.56,381.085L1737.92,381.076L1738.28,381.068L1738.64,381.064L1739,381.061L1739.36,381.064ZM1738.33,384.94L1737.99,384.944L1737.66,384.95L1737.32,384.958L1736.99,384.969L1736.65,384.981L1736.32,384.995L1735.99,385.012L1735.66,385.03L1735.33,385.051L1734.99,385.074L1734.66,385.099L1734.33,385.125L1734.01,385.154L1733.68,385.185L1733.35,385.218L1733.02,385.253L1732.69,385.29L1732.37,385.329L1732.04,385.37L1731.72,385.413L1731.39,385.459L1731.07,385.506L1730.75,385.555L1730.42,385.606L1730.1,385.659L1729.78,385.714L1729.46,385.771L1729.14,385.829L1728.82,385.89L1728.5,385.953L1728.18,386.018L1727.87,386.084L1727.55,386.153L1727.24,386.223L1726.92,386.296L1726.61,386.37L1726.29,386.446L1725.98,386.524L1725.67,386.604L1725.36,386.686L1725.05,386.77L1724.74,386.855L1724.43,386.943L1724.12,387.032L1723.81,387.123L1723.51,387.216L1723.2,387.311L1722.89,387.408L1722.59,387.506L1722.29,387.607L1721.98,387.709L1721.68,387.813L1721.64,387.826L1721.38,387.918L1721.08,388.026L1720.78,388.135L1720.48,388.247L1720.19,388.36L1719.89,388.474L1719.59,388.591L1719.3,388.709L1719,388.829L1718.71,388.951L1718.42,389.074L1718.13,389.199L1717.84,389.326L1717.55,389.455L1717.26,389.585L1716.97,389.717L1716.68,389.851L1716.4,389.987L1716.11,390.124L1715.83,390.263L1715.55,390.403L1715.26,390.545L1714.98,390.689L1714.7,390.835L1714.42,390.982L1714.14,391.13L1713.87,391.281L1713.59,391.433L1713.32,391.586L1713.04,391.742L1712.77,391.899L1712.5,392.057L1712.22,392.217L1711.95,392.379L1711.68,392.542L1711.42,392.707L1711.15,392.873L1710.88,393.041L1710.62,393.211L1710.36,393.382L1710.09,393.554L1709.83,393.729L1709.57,393.904L1709.31,394.081L1709.05,394.26L1708.8,394.44L1708.54,394.622L1708.29,394.806L1708.03,394.99L1707.78,395.177L1707.53,395.364L1707.28,395.554L1707.03,395.744L1706.78,395.936L1706.53,396.13L1706.29,396.325L1706.04,396.522L1705.8,396.72L1705.56,396.919L1705.32,397.12L1705.08,397.322L1704.84,397.526L1704.6,397.731L1704.37,397.937L1704.13,398.145L1703.9,398.354L1703.67,398.565L1703.43,398.777L1703.21,398.99L1702.98,399.205L1702.75,399.421L1702.53,399.638L1702.3,399.857L1702.08,400.077L1701.86,400.299L1701.63,400.521L1701.42,400.745L1701.2,400.971L1700.98,401.197L1700.77,401.425L1700.55,401.655L1700.34,401.885L1700.13,402.117L1699.92,402.35L1699.71,402.585L1699.5,402.82L1699.3,403.057L1699.09,403.295L1698.89,403.535L1698.69,403.775L1698.49,404.017L1698.29,404.26L1698.09,404.504L1697.9,404.75L1697.7,404.997L1697.51,405.245L1697.32,405.494L1697.13,405.744L1696.94,405.995L1696.75,406.248L1696.57,406.502L1696.38,406.757L1696.2,407.013L1696.02,407.27L1695.84,407.528L1695.66,407.788L1695.49,408.048L1695.31,408.31L1695.14,408.573L1694.97,408.837L1694.8,409.102L1694.63,409.368L1694.46,409.635L1694.3,409.903L1694.13,410.173L1693.97,410.443L1693.81,410.715L1693.65,410.987L1693.49,411.261L1693.34,411.535L1693.18,411.811L1693.03,412.088L1692.88,412.366L1692.73,412.644L1692.58,412.924L1692.43,413.205L1692.29,413.487L1692.14,413.769L1692,414.053L1691.86,414.338L1691.73,414.623L1691.59,414.91L1691.45,415.198L1691.32,415.486L1691.19,415.776L1691.06,416.066L1690.95,416.325L1690.93,416.357L1690.81,416.65L1690.68,416.943L1690.56,417.237L1690.44,417.532L1690.32,417.828L1690.2,418.125L1690.09,418.423L1689.98,418.722L1689.86,419.021L1689.75,419.322L1689.64,419.623L1689.54,419.925L1689.43,420.228L1689.33,420.532L1689.23,420.837L1689.13,421.142L1689.03,421.448L1688.94,421.756L1688.84,422.064L1688.75,422.372L1688.66,422.682L1688.57,422.992L1688.49,423.303L1688.4,423.615L1688.32,423.928L1688.24,424.241L1688.16,424.556L1688.08,424.871L1688.01,425.186L1687.93,425.503L1687.86,425.82L1687.79,426.138L1687.73,426.456L1687.66,426.776L1687.6,427.096L1687.54,427.417L1687.48,427.738L1687.42,428.06L1687.36,428.383L1687.31,428.707L1687.26,429.031L1687.21,429.356L1687.16,429.682L1687.12,430.008L1687.07,430.335L1687.03,430.662L1686.99,430.99L1686.95,431.319L1686.92,431.649L1686.88,431.979L1686.85,432.309L1686.82,432.641L1686.8,432.973L1686.77,433.305L1686.75,433.638L1686.73,433.972L1686.71,434.306L1686.69,434.641L1686.67,434.976L1686.66,435.312L1686.65,435.649L1686.64,435.986L1686.64,436.323L1686.63,436.661L1686.63,437L1686.63,437.339L1686.63,437.677L1686.64,438.015L1686.64,438.352L1686.65,438.688L1686.66,439.024L1686.67,439.36L1686.69,439.695L1686.71,440.029L1686.73,440.363L1686.75,440.697L1686.77,441.029L1686.8,441.362L1686.82,441.693L1686.85,442.024L1686.88,442.355L1686.92,442.685L1686.95,443.014L1686.99,443.343L1687.03,443.671L1687.07,443.998L1687.12,444.325L1687.16,444.651L1687.21,444.976L1687.26,445.301L1687.31,445.626L1687.36,445.949L1687.42,446.272L1687.48,446.594L1687.54,446.916L1687.6,447.237L1687.66,447.557L1687.73,447.876L1687.79,448.195L1687.86,448.513L1687.93,448.831L1688.01,449.147L1688.08,449.463L1688.16,449.778L1688.24,450.093L1688.32,450.406L1688.4,450.719L1688.49,451.032L1688.57,451.343L1688.66,451.654L1688.75,451.964L1688.84,452.273L1688.94,452.581L1689.03,452.888L1689.13,453.195L1689.23,453.501L1689.33,453.806L1689.43,454.11L1689.54,454.414L1689.65,454.716L1689.76,455.018L1689.87,455.319L1689.98,455.619L1690.09,455.918L1690.21,456.217L1690.32,456.514L1690.44,456.811L1690.56,457.106L1690.69,457.401L1690.81,457.695L1690.94,457.988L1691.07,458.28L1691.19,458.571L1691.33,458.862L1691.46,459.151L1691.59,459.439L1691.73,459.727L1691.87,460.013L1692.01,460.299L1692.15,460.583L1692.29,460.867L1692.44,461.15L1692.58,461.431L1692.73,461.712L1692.88,461.992L1693.03,462.27L1693.19,462.548L1693.34,462.824L1693.5,463.1L1693.65,463.375L1693.82,463.648L1693.98,463.921L1694.14,464.192L1694.3,464.463L1694.47,464.732L1694.64,465L1694.81,465.267L1694.98,465.533L1695.15,465.798L1695.32,466.062L1695.5,466.325L1695.67,466.587L1695.85,466.848L1696.03,467.107L1696.15,467.27L1696.21,467.365L1696.4,467.622L1696.58,467.878L1696.77,468.133L1696.95,468.387L1697.14,468.639L1697.34,468.89L1697.53,469.14L1697.72,469.389L1697.92,469.637L1698.11,469.883L1698.31,470.129L1698.51,470.373L1698.71,470.616L1698.91,470.857L1699.12,471.098L1699.32,471.337L1699.53,471.575L1699.74,471.812L1699.95,472.047L1700.16,472.281L1700.37,472.514L1700.58,472.746L1700.8,472.976L1701.01,473.205L1701.23,473.433L1701.45,473.66L1701.67,473.885L1701.89,474.109L1702.11,474.331L1702.34,474.553L1702.56,474.772L1702.79,474.991L1703.02,475.208L1703.25,475.424L1703.48,475.639L1703.71,475.852L1703.94,476.063L1704.18,476.274L1704.41,476.483L1704.65,476.69L1704.89,476.896L1705.13,477.101L1705.37,477.305L1705.61,477.507L1705.86,477.707L1706.1,477.906L1706.35,478.104L1706.59,478.3L1706.84,478.495L1707.09,478.688L1707.34,478.88L1707.59,479.07L1707.85,479.259L1708.1,479.447L1708.36,479.632L1708.61,479.817L1708.87,480L1709.13,480.181L1709.39,480.361L1709.65,480.539L1709.91,480.716L1710.18,480.891L1710.44,481.065L1710.7,481.237L1710.97,481.408L1711.24,481.577L1711.51,481.745L1711.78,481.911L1712.05,482.075L1712.32,482.238L1712.59,482.399L1712.87,482.558L1713.14,482.716L1713.42,482.873L1713.7,483.027L1713.98,483.18L1714.25,483.332L1714.53,483.482L1714.82,483.63L1715.1,483.776L1715.38,483.921L1715.6,484.029L1715.66,484.064L1715.95,484.205L1716.24,484.345L1716.52,484.483L1716.81,484.619L1717.1,484.753L1717.39,484.886L1717.68,485.017L1717.98,485.146L1718.27,485.274L1718.56,485.399L1718.86,485.523L1719.15,485.646L1719.45,485.766L1719.75,485.885L1720.05,486.002L1720.35,486.117L1720.64,486.231L1720.95,486.343L1721.25,486.452L1721.55,486.56L1721.85,486.667L1722.16,486.771L1722.46,486.874L1722.77,486.975L1723.08,487.074L1723.38,487.171L1723.69,487.266L1724,487.36L1724.31,487.451L1724.62,487.541L1724.94,487.629L1725.25,487.715L1725.56,487.799L1725.88,487.881L1726.19,487.962L1726.51,488.04L1726.82,488.117L1727.14,488.191L1727.46,488.264L1727.78,488.335L1728.1,488.404L1728.42,488.471L1728.74,488.536L1729.06,488.599L1729.38,488.66L1729.7,488.719L1730.03,488.776L1730.35,488.831L1730.68,488.884L1731,488.935L1731.33,488.985L1731.65,489.032L1731.98,489.077L1732.31,489.12L1732.64,489.161L1732.97,489.2L1733.3,489.237L1733.63,489.272L1733.96,489.305L1734.29,489.336L1734.63,489.365L1734.96,489.392L1735.29,489.416L1735.63,489.439L1735.96,489.459L1736.3,489.478L1736.63,489.494L1736.97,489.508L1737.31,489.52L1737.56,489.528L1737.64,489.53L1737.98,489.537L1738.32,489.543L1738.66,489.546L1739,489.546L1739.34,489.545L1739.68,489.542L1740.02,489.536L1740.36,489.528L1740.69,489.518L1741.03,489.506L1741.37,489.492L1741.7,489.476L1742.04,489.458L1742.37,489.437L1742.71,489.415L1743.04,489.39L1743.38,489.364L1743.71,489.335L1744.04,489.304L1744.37,489.271L1744.7,489.236L1745.03,489.199L1745.36,489.16L1745.69,489.119L1746.02,489.076L1746.35,489.031L1746.67,488.984L1747,488.935L1747.32,488.884L1747.65,488.831L1747.97,488.776L1748.3,488.719L1748.62,488.66L1748.94,488.599L1749.26,488.536L1749.58,488.471L1749.9,488.404L1750.22,488.336L1750.54,488.265L1750.86,488.192L1751.18,488.118L1751.49,488.041L1751.81,487.963L1752.12,487.883L1752.44,487.8L1752.75,487.716L1753.06,487.63L1753.38,487.543L1753.69,487.453L1754,487.361L1754.31,487.268L1754.62,487.173L1754.92,487.075L1755.23,486.977L1755.54,486.876L1755.84,486.773L1756.15,486.669L1756.45,486.563L1756.75,486.455L1757.06,486.345L1757.36,486.233L1757.66,486.12L1757.95,486.004L1758.25,485.888L1758.51,485.786L1758.55,485.769L1758.85,485.648L1759.14,485.525L1759.44,485.401L1759.73,485.275L1760.03,485.147L1760.32,485.018L1760.61,484.887L1760.9,484.754L1761.19,484.619L1761.48,484.483L1761.76,484.345L1762.05,484.205L1762.33,484.064L1762.62,483.921L1762.9,483.776L1763.18,483.629L1763.47,483.481L1763.75,483.332L1764.03,483.18L1764.3,483.027L1764.58,482.873L1764.86,482.717L1765.13,482.559L1765.41,482.399L1765.68,482.238L1765.95,482.076L1766.22,481.911L1766.49,481.746L1766.76,481.578L1767.03,481.409L1767.3,481.239L1767.56,481.067L1767.83,480.893L1768.09,480.718L1768.35,480.541L1768.61,480.363L1768.87,480.183L1769.13,480.002L1769.39,479.819L1769.64,479.635L1769.9,479.449L1770.15,479.261L1770.41,479.073L1770.66,478.882L1770.91,478.691L1771.16,478.497L1771.41,478.303L1771.65,478.107L1771.9,477.909L1772.15,477.71L1772.39,477.51L1772.63,477.308L1772.87,477.105L1773.11,476.9L1773.35,476.694L1773.59,476.486L1773.82,476.277L1774.06,476.067L1774.29,475.855L1774.52,475.642L1774.76,475.428L1774.99,475.212L1775.21,474.995L1775.44,474.777L1775.67,474.557L1775.89,474.336L1776.11,474.113L1776.34,473.889L1776.56,473.664L1776.77,473.438L1776.99,473.21L1777.02,473.183L1777.21,472.981L1777.42,472.75L1777.64,472.518L1777.85,472.285L1778.06,472.051L1778.27,471.815L1778.48,471.578L1778.68,471.34L1778.89,471.101L1779.09,470.86L1779.29,470.618L1779.49,470.375L1779.69,470.131L1779.89,469.886L1780.09,469.639L1780.28,469.391L1780.48,469.142L1780.67,468.892L1780.86,468.64L1781.05,468.388L1781.23,468.134L1781.42,467.879L1781.6,467.623L1781.79,467.366L1781.97,467.108L1782.15,466.848L1782.33,466.588L1782.5,466.326L1782.68,466.063L1782.85,465.799L1783.03,465.534L1783.2,465.268L1783.37,465.001L1783.53,464.733L1783.7,464.464L1783.86,464.193L1784.03,463.922L1784.19,463.649L1784.35,463.376L1784.51,463.101L1784.66,462.826L1784.82,462.549L1784.97,462.272L1785.12,461.993L1785.27,461.713L1785.42,461.433L1785.57,461.151L1785.71,460.869L1785.85,460.585L1786,460.3L1786.13,460.015L1786.27,459.728L1786.41,459.441L1786.55,459.153L1786.68,458.863L1786.81,458.573L1786.94,458.282L1787.07,457.99L1787.19,457.697L1787.32,457.403L1787.44,457.108L1787.56,456.813L1787.68,456.516L1787.8,456.219L1787.91,455.92L1788.03,455.621L1788.14,455.321L1788.25,455.02L1788.36,454.718L1788.47,454.416L1788.57,454.112L1788.67,453.808L1788.78,453.503L1788.88,453.197L1788.97,452.89L1789.07,452.583L1789.16,452.274L1789.25,451.965L1789.34,451.655L1789.43,451.345L1789.52,451.033L1789.6,450.721L1789.69,450.408L1789.77,450.094L1789.85,449.78L1789.92,449.465L1790,449.149L1790.07,448.832L1790.14,448.515L1790.21,448.197L1790.28,447.878L1790.35,447.558L1790.41,447.238L1790.47,446.917L1790.53,446.596L1790.59,446.273L1790.64,445.951L1790.7,445.627L1790.75,445.303L1790.8,444.978L1790.85,444.652L1790.89,444.326L1790.94,443.999L1790.98,443.672L1791.02,443.344L1791.06,443.015L1791.09,442.686L1791.13,442.356L1791.16,442.025L1791.19,441.694L1791.22,441.362L1791.24,441.03L1791.26,440.697L1791.29,440.364L1791.3,440.03L1791.32,439.695L1791.34,439.36L1791.35,439.025L1791.36,438.689L1791.37,438.352L1791.38,438.015L1791.38,437.677L1791.38,437.339L1791.38,437L1791.38,436.661L1791.38,436.323L1791.37,435.985L1791.36,435.648L1791.35,435.312L1791.34,434.976L1791.32,434.64L1791.31,434.305L1791.29,433.971L1791.27,433.637L1791.24,433.304L1791.22,432.972L1791.19,432.64L1791.16,432.308L1791.13,431.977L1791.1,431.647L1791.06,431.318L1791.03,431.052L1791.02,430.989L1790.98,430.661L1790.94,430.333L1790.9,430.006L1790.85,429.68L1790.8,429.354L1790.75,429.029L1790.7,428.705L1790.65,428.381L1790.59,428.059L1790.53,427.736L1790.47,427.415L1790.41,427.094L1790.35,426.774L1790.28,426.454L1790.22,426.136L1790.15,425.818L1790.08,425.501L1790,425.184L1789.93,424.868L1789.85,424.553L1789.77,424.239L1789.69,423.926L1789.61,423.613L1789.52,423.301L1789.43,422.99L1789.35,422.68L1789.26,422.37L1789.16,422.062L1789.07,421.754L1788.97,421.446L1788.88,421.14L1788.78,420.835L1788.68,420.53L1788.57,420.226L1788.47,419.923L1788.36,419.621L1788.25,419.32L1788.14,419.02L1788.03,418.72L1787.92,418.421L1787.8,418.124L1787.68,417.827L1787.56,417.531L1787.44,417.236L1787.32,416.942L1787.2,416.648L1787.07,416.356L1786.94,416.065L1786.81,415.774L1786.68,415.485L1786.55,415.196L1786.41,414.909L1786.28,414.622L1786.14,414.336L1786,414.051L1785.86,413.768L1785.72,413.485L1785.57,413.203L1785.42,412.922L1785.28,412.643L1785.13,412.364L1784.98,412.086L1784.82,411.809L1784.67,411.534L1784.51,411.259L1784.36,410.985L1784.19,410.713L1784.03,410.441L1783.87,410.171L1783.71,409.901L1783.54,409.633L1783.38,409.366L1783.21,409.1L1783.04,408.834L1782.86,408.57L1782.69,408.308L1782.52,408.046L1782.34,407.785L1782.16,407.526L1781.98,407.267L1781.8,407.01L1781.62,406.754L1781.43,406.499L1781.25,406.245L1781.06,405.993L1780.87,405.741L1780.68,405.491L1780.49,405.242L1780.3,404.994L1780.11,404.747L1779.91,404.502L1779.71,404.257L1779.51,404.014L1779.31,403.772L1779.11,403.532L1778.91,403.292L1778.71,403.054L1778.5,402.817L1778.29,402.581L1778.09,402.347L1777.88,402.114L1777.66,401.882L1777.45,401.651L1777.24,401.422L1777.02,401.194L1776.81,400.967L1776.59,400.742L1776.37,400.518L1776.15,400.295L1775.93,400.073L1775.7,399.853L1775.48,399.634L1775.25,399.417L1775.03,399.201L1774.8,398.986L1774.57,398.773L1774.34,398.561L1774.11,398.35L1773.87,398.141L1773.64,397.933L1773.4,397.726L1773.16,397.521L1772.93,397.317L1772.69,397.115L1772.45,396.914L1772.2,396.715L1771.96,396.517L1771.72,396.32L1771.47,396.125L1771.22,395.932L1770.98,395.739L1770.73,395.549L1770.48,395.359L1770.43,395.326L1770.23,395.172L1769.97,394.985L1769.72,394.801L1769.46,394.618L1769.21,394.436L1768.95,394.256L1768.69,394.077L1768.43,393.9L1768.17,393.724L1767.91,393.55L1767.65,393.378L1767.38,393.207L1767.12,393.037L1766.85,392.869L1766.59,392.703L1766.32,392.538L1766.05,392.375L1765.78,392.214L1765.51,392.054L1765.23,391.895L1764.96,391.739L1764.69,391.583L1764.41,391.43L1764.13,391.278L1763.86,391.128L1763.58,390.979L1763.3,390.832L1763.02,390.687L1762.74,390.543L1762.46,390.401L1762.17,390.26L1761.89,390.122L1761.6,389.985L1761.32,389.849L1761.03,389.716L1760.74,389.584L1760.45,389.454L1760.16,389.325L1759.87,389.198L1759.58,389.073L1759.29,388.95L1759,388.828L1758.7,388.708L1758.41,388.59L1758.11,388.474L1757.81,388.359L1757.52,388.246L1757.22,388.135L1756.92,388.026L1756.62,387.918L1756.32,387.813L1756.02,387.709L1755.71,387.607L1755.41,387.506L1755.11,387.408L1754.8,387.311L1754.49,387.216L1754.19,387.123L1753.88,387.032L1753.57,386.943L1753.26,386.855L1752.95,386.77L1752.64,386.686L1752.33,386.604L1752.02,386.524L1751.71,386.446L1751.39,386.37L1751.08,386.296L1750.76,386.223L1750.45,386.153L1750.13,386.084L1749.82,386.018L1749.5,385.953L1749.18,385.89L1748.86,385.829L1748.54,385.77L1748.22,385.714L1747.9,385.659L1747.58,385.606L1747.25,385.555L1746.93,385.506L1746.61,385.458L1746.28,385.413L1745.96,385.37L1745.63,385.329L1745.31,385.29L1744.98,385.253L1744.65,385.218L1744.32,385.185L1744,385.154L1743.67,385.125L1743.34,385.099L1743.01,385.074L1742.67,385.051L1742.34,385.03L1742.01,385.012L1741.68,384.995L1741.35,384.981L1741.01,384.968L1740.68,384.958L1740.34,384.95L1740.31,384.95L1740.01,384.944L1739.67,384.94L1739.34,384.939L1739,384.939L1738.66,384.939L1738.33,384.94Z" style="fill:rgb(55,55,55);"/>
            </g>
        </g>
    </g>
    <defs>
        <linearGradient id="_Linear1" x1="0" y1="0" x2="1" y2="0" gradientUnits="userSpaceOnUse" gradientTransform="matrix(32,0,0,132.559,1591,647.28)"><stop offset="0" style="stop-color:rgb(117,120,124);stop-opacity:1"/><stop offset="1" style="stop-color:rgb(172,173,176);stop-opacity:1"/></linearGradient>
        <linearGradient id="_Linear2" x1="0" y1="0" x2="1" y2="0" gradientUnits="userSpaceOnUse" gradientTransform="matrix(108,0,0,108,1685,437)"><stop offset="0" style="stop-color:rgb(117,120,124);stop-opacity:1"/><stop offset="1" style="stop-color:rgb(172,173,176);stop-opacity:1"/></linearGradient>
    </defs>
</svg>
