<?xml version="1.0" encoding="UTF-8" standalone="no"?>
<!DOCTYPE svg PUBLIC "-//W3C//DTD SVG 1.1//EN" "http://www.w3.org/Graphics/SVG/1.1/DTD/svg11.dtd">
<svg width="100%" height="100%" viewBox="0 0 286 649" version="1.1" xmlns="http://www.w3.org/2000/svg" xmlns:xlink="http://www.w3.org/1999/xlink" xml:space="preserve" xmlns:serif="http://www.serif.com/" style="fill-rule:evenodd;clip-rule:evenodd;stroke-linejoin:round;stroke-miterlimit:1.41421;">
    <g transform="matrix(1,0,0,1,-1020,-351)">
        <g>
            <g transform="matrix(1.26303,0,0,1.26303,-345.82,-137.397)">
                <path d="M1180.68,797L1175.49,787L1175.49,535L1214.11,535L1214.11,787L1208.4,797L1208.4,876L1214.11,886L1214.11,898L1175.49,898L1175.49,886L1180.68,876L1180.68,797Z" style="fill:rgb(114,96,92);"/>
                <path d="M1173.75,787.904L1173.63,787.615L1173.55,787.312L1173.53,787L1173.65,714.861L1173.82,609.475L1173.9,535L1173.93,534.725L1174,534.459L1174.12,534.209L1174.28,533.984L1174.47,533.79L1174.7,533.632L1174.95,533.516L1175.21,533.445L1175.49,533.422L1214.11,533.463L1214.13,533.464L1214.38,533.486L1214.64,533.556L1214.88,533.67L1215.1,533.823L1215.29,534.013L1215.44,534.232L1215.56,534.475L1215.62,534.733L1215.65,535L1215.61,587.089L1215.6,640.109L1215.62,696.595L1215.67,760.808L1215.71,787L1215.68,787.274L1215.61,787.541L1215.5,787.791L1215.51,787.798L1210.01,797.427L1210.12,797.454L1210.12,875.546L1210.12,875.545L1215.61,885.144L1215.74,885.415L1215.81,885.703L1215.84,886L1215.84,889.039L1215.86,898L1215.83,898.303L1215.75,898.597L1215.62,898.872L1215.45,899.122L1215.24,899.338L1214.99,899.513L1214.71,899.642L1214.42,899.721L1214.11,899.749L1175.49,899.805L1175.17,899.778L1174.87,899.697L1174.58,899.565L1174.33,899.384L1174.1,899.162L1173.92,898.904L1173.79,898.619L1173.7,898.314L1173.68,898L1173.66,886L1173.68,885.709L1173.75,885.426L1173.87,885.157L1173.85,885.149L1178.84,875.549L1178.84,875.549L1178.78,840.425L1178.7,797.483L1177.37,794.905L1173.75,787.904ZM1212.58,536.536L1210.95,536.536L1210.95,536.537L1177.02,536.537L1177.07,536.58L1177.07,611.703L1177.16,611.758L1177.32,715.281L1177.44,786.522L1177.45,786.521L1180.99,793.338L1181,793.333L1182.44,796.087L1182.56,796.378L1182.64,796.685L1182.66,797L1182.58,840.949L1182.53,876L1182.5,876.293L1182.43,876.579L1182.43,876.579L1182.32,876.85L1177.32,886.446L1177.31,886.446L1177.31,896.173L1177.3,896.192L1212.31,896.193L1212.37,896.254L1212.37,888.913L1212.38,888.914L1212.38,886.458L1212.38,886.458L1206.9,876.856L1206.92,876.849L1206.79,876.58L1206.72,876.295L1206.72,876.295L1206.69,876L1206.79,797L1206.82,796.723L1206.89,796.454L1206.89,796.454L1207.01,796.202L1212.52,786.577L1212.52,786.577L1212.52,760.335L1212.55,760.339L1212.61,697.247L1212.63,641.731L1212.62,589.635L1212.58,536.534L1212.58,536.536Z" style="fill:rgb(55,55,55);"/>
            </g>
            <g transform="matrix(2.2767,0,0,0.0487119,-1631.31,517.768)">
                <rect x="1208" y="422" width="38.626" height="363" style="fill:url(#_Linear1);"/>
                <path d="M1247,373.773L1247.17,377.554L1247.33,382.685L1247.47,389.011L1247.58,396.339L1247.66,404.447L1247.71,413.088L1247.72,422L1247.68,689.319L1247.67,785L1247.65,793.436L1247.6,801.587L1247.52,809.209L1247.42,816.07L1247.29,822.008L1247.29,821.966L1247.14,826.721L1246.98,830.194L1246.8,832.284L1246.63,832.933L1237.75,829.886L1221.8,825.46L1214.08,824.002L1208,823.506L1207.86,822.903L1207.72,821.149L1207.59,818.3L1207.57,817.813L1207.47,814.462L1207.37,809.73L1207.29,804.237L1207.29,804.244L1207.23,798.168L1207.19,791.688L1207.18,785L1207.17,494.237L1207.16,422L1207.18,415.218L1207.21,408.63L1207.28,402.436L1207.36,396.825L1207.46,391.99L1207.46,391.97L1207.58,388.018L1207.71,385.093L1207.85,383.285L1208,382.651L1211.22,382.143L1224.5,378.724L1236.81,374.5L1246.24,370.831L1246.63,370.678L1246.82,371.457L1247,373.773ZM1208.83,539.76L1208.82,539.609L1208.82,746.526L1208.82,746.54L1209.21,746.551L1209.21,746.494L1215.36,745.998L1222.35,744.54L1236.71,740.114L1236.67,736.744L1245.59,736.69L1245.59,736.341L1245.57,624.391L1245.54,472.871L1237.33,469.5L1225.63,465.276L1212.96,461.857L1212.94,461.202L1208.84,461.175L1208.84,461.019L1208.83,539.76Z" style="fill:rgb(55,55,55);"/>
            </g>
            <g transform="matrix(1.26303,0,0,1.26303,-685.828,-350.848)">
                <rect x="1364" y="572" width="200" height="132" style="fill:url(#_Linear2);"/>
                <path d="M1564.34,570.051L1564.68,570.14L1564.99,570.286L1565.27,570.484L1565.52,570.728L1565.71,571.01L1565.86,571.323L1565.95,571.656L1565.98,572L1565.9,608.398L1565.73,696.899L1565.72,704L1565.69,704.299L1565.62,704.588L1565.49,704.859L1565.32,705.104L1565.1,705.315L1565.1,705.315L1564.86,705.486L1564.59,705.612L1564.3,705.689L1564,705.714L1465.01,705.56L1411.78,705.504L1364.95,705.483L1364,705.483L1363.74,705.461L1363.49,705.394L1363.26,705.285L1363.05,705.137L1362.86,704.954L1362.86,704.954L1362.71,704.742L1362.61,704.508L1362.54,704.258L1362.52,704L1362.5,664.559L1362.46,617.781L1362.4,572L1362.42,571.722L1362.5,571.452L1362.61,571.199L1362.77,570.97L1362.97,570.772L1362.97,570.771L1363.2,570.611L1363.45,570.492L1363.72,570.419L1364,570.394L1408.5,570.331L1495.03,570.168L1561.31,570.027L1564,570.021L1564.34,570.051ZM1496.33,573.832L1411.31,573.669L1411.26,573.604L1365.6,573.603L1365.6,573.601L1365.54,618.845L1365.5,663.209L1365.48,663.214L1365.48,702.516L1365.48,702.517L1368.33,702.517L1413.58,702.496L1464.99,702.44L1464.99,702.283L1562.28,702.283L1562.28,702.28L1562.27,693.44L1562.1,607.344L1562.03,573.975L1561.36,573.973L1496.33,573.832Z" style="fill:rgb(55,55,55);"/>
            </g>
            <g transform="matrix(0.193029,0,0,1.53576,759.985,-524.848)">
                <rect x="1364" y="572" width="200" height="132" style="fill:rgb(189,189,189);"/>
                <path d="M1568.43,570.47L1570.48,570.59L1572.33,570.753L1573.92,570.954L1575.22,571.186L1576.17,571.443L1576.76,571.717L1576.95,572L1576.44,589.182L1575.33,630.961L1574.21,682.681L1573.9,704L1573.74,704.216L1573.29,704.425L1572.56,704.621L1571.57,704.798L1570.35,704.951L1570.35,704.95L1568.93,705.074L1567.37,705.165L1565.71,705.22L1564,705.238L1558.57,705.237L1364,705.22L1363.22,705.211L1362.32,705.201L1360.68,705.146L1359.15,705.057L1357.76,704.935L1356.56,704.784L1356.56,704.784L1355.59,704.61L1354.87,704.418L1354.43,704.212L1354.28,704L1354.2,686.126L1353.94,664.101L1353.08,619.276L1352.01,577.717L1351.85,572L1352.02,571.735L1352.56,571.477L1353.45,571.234L1354.66,571.015L1356.16,570.825L1356.15,570.825L1357.89,570.67L1359.82,570.556L1361.88,570.485L1364,570.461L1553.31,570.377L1564,570.372L1566.25,570.397L1568.43,570.47ZM1375.99,580.53L1374.92,620.119L1374.06,662.991L1373.8,684.094L1373.71,684.102L1373.71,702.78L1373.7,702.78L1383.54,702.78L1383.54,702.78L1539.54,702.763L1539.52,702.759L1554.13,702.759L1554.1,702.756L1553.79,680.27L1552.67,629.614L1551.56,588.772L1551.1,573.534L1376.2,573.534L1376.15,573.528L1375.99,580.53Z" style="fill:rgb(55,55,55);"/>
            </g>
            <g transform="matrix(0.193029,0,0,1.53576,1001.32,-524.848)">
                <rect x="1364" y="572" width="200" height="132" style="fill:rgb(189,189,189);"/>
                <path d="M1568.43,570.47L1570.48,570.59L1572.33,570.753L1573.92,570.954L1575.22,571.186L1576.17,571.443L1576.76,571.717L1576.95,572L1576.44,589.182L1575.33,630.961L1574.21,682.681L1573.9,704L1573.74,704.216L1573.29,704.425L1572.56,704.621L1571.57,704.798L1570.35,704.951L1570.35,704.95L1568.93,705.074L1567.37,705.165L1565.71,705.22L1564,705.238L1558.57,705.237L1364,705.22L1363.22,705.211L1362.32,705.201L1360.68,705.146L1359.15,705.057L1357.76,704.935L1356.56,704.784L1356.56,704.784L1355.59,704.61L1354.87,704.418L1354.43,704.212L1354.28,704L1354.2,686.126L1353.94,664.101L1353.08,619.276L1352.01,577.717L1351.85,572L1352.02,571.735L1352.56,571.477L1353.45,571.234L1354.66,571.015L1356.16,570.825L1356.15,570.825L1357.89,570.67L1359.82,570.556L1361.88,570.485L1364,570.461L1553.31,570.377L1564,570.372L1566.25,570.397L1568.43,570.47ZM1375.99,580.53L1374.92,620.119L1374.06,662.991L1373.8,684.094L1373.71,684.102L1373.71,702.78L1373.7,702.78L1383.54,702.78L1383.54,702.78L1539.54,702.763L1539.52,702.759L1554.13,702.759L1554.1,702.756L1553.79,680.27L1552.67,629.614L1551.56,588.772L1551.1,573.534L1376.2,573.534L1376.15,573.528L1375.99,580.53Z" style="fill:rgb(55,55,55);"/>
            </g>
            <g transform="matrix(1.26303,0,0,1.26303,-326.567,-137.397)">
                <path d="M1214.11,535L1145,403" style="fill:url(#_Linear3);"/>
                <path d="M1146.75,402.075L1146.75,402.082L1150.42,409.247L1159.34,426.66L1170.43,448.197L1175.81,458.6L1180.57,467.737L1185.07,476.298L1189.83,485.306L1199.57,503.617L1208.63,520.573L1215.58,533.555L1215.87,534.082L1215.87,534.089L1216,535.59L1215.04,536.75L1215.02,536.757L1213.52,536.887L1212.36,535.925L1212.36,535.918L1212.09,535.386L1205.38,522.273L1196.61,505.165L1187.11,486.732L1182.41,477.687L1177.94,469.113L1173.14,459.995L1167.66,449.645L1156.27,428.266L1147.05,411.011L1143.25,403.918L1143.24,403.911L1143.14,402.459L1144.11,401.319L1144.13,401.312L1145.62,401.162L1146.75,402.075Z" style="fill:rgb(55,55,55);"/>
            </g>
            <g transform="matrix(-1.26303,0,0,1.26303,2653.06,-137.397)">
                <path d="M1214.11,535L1145,403" style="fill:url(#_Linear4);"/>
                <path d="M1144.13,401.312L1144.11,401.319L1143.14,402.459L1143.24,403.911L1143.25,403.918L1147.05,411.011L1156.27,428.266L1167.66,449.645L1173.14,459.995L1177.94,469.113L1182.41,477.687L1187.11,486.732L1196.61,505.165L1205.38,522.273L1212.09,535.386L1212.36,535.918L1212.36,535.925L1213.52,536.887L1215.02,536.757L1215.04,536.75L1216,535.59L1215.87,534.089L1215.87,534.082L1215.58,533.555L1208.63,520.573L1199.57,503.617L1189.83,485.306L1185.07,476.298L1180.57,467.737L1175.81,458.6L1170.43,448.197L1159.34,426.66L1150.42,409.247L1146.75,402.082L1146.75,402.075L1145.62,401.162L1144.13,401.312Z" style="fill:rgb(55,55,55);"/>
            </g>
        </g>
    </g>
    <defs>
        <linearGradient id="_Linear1" x1="0" y1="0" x2="1" y2="0" gradientUnits="userSpaceOnUse" gradientTransform="matrix(38.6257,0,0,363,1208,603.5)"><stop offset="0" style="stop-color:rgb(117,120,124);stop-opacity:1"/><stop offset="1" style="stop-color:rgb(172,173,176);stop-opacity:1"/></linearGradient>
        <linearGradient id="_Linear2" x1="0" y1="0" x2="1" y2="0" gradientUnits="userSpaceOnUse" gradientTransform="matrix(200,0,0,132,1364,638)"><stop offset="0" style="stop-color:rgb(117,120,124);stop-opacity:1"/><stop offset="1" style="stop-color:rgb(172,173,176);stop-opacity:1"/></linearGradient>
        <linearGradient id="_Linear3" x1="0" y1="0" x2="1" y2="0" gradientUnits="userSpaceOnUse" gradientTransform="matrix(69.1126,0,0,132,1145,469)"><stop offset="0" style="stop-color:rgb(117,120,124);stop-opacity:1"/><stop offset="1" style="stop-color:rgb(172,173,176);stop-opacity:1"/></linearGradient>
        <linearGradient id="_Linear4" x1="0" y1="0" x2="1" y2="0" gradientUnits="userSpaceOnUse" gradientTransform="matrix(69.1126,0,0,132,1145,469)"><stop offset="0" style="stop-color:rgb(117,120,124);stop-opacity:1"/><stop offset="1" style="stop-color:rgb(172,173,176);stop-opacity:1"/></linearGradient>
    </defs>
</svg>
